<svg xmlns="http://www.w3.org/2000/svg" width="15.711" height="20.214" viewBox="0 0 15.711 20.214">
  <path id="パス_166" data-name="パス 166" d="M1034.853,228.773l-2.722-2.736-.125-.114-.026-.007a1.58,1.58,0,0,0-.545-.248,1.6,1.6,0,0,0-1.164.127l-1.1.658-.03-.014a2.107,2.107,0,0,1-.407-.31,7.431,7.431,0,0,1-.749-.812,10.881,10.881,0,0,1-.973-1.467,10.676,10.676,0,0,1-.794-1.542,7.033,7.033,0,0,1-.337-1.052,3.025,3.025,0,0,1-.081-.553l.894-.525a1.62,1.62,0,0,0,.639-.692,1.391,1.391,0,0,0,.113-.983l-.9-3.834-.012-.044a1.756,1.756,0,0,0-.3-.558,1.193,1.193,0,0,0-.648-.418,1.319,1.319,0,0,0-1.018.154l-2.773,1.628a1.859,1.859,0,0,0-.539.445,2.22,2.22,0,0,0-.363.582l-.024.069c-.009.031-.041.132-.1.3a4.705,4.705,0,0,0-.171.956,9.368,9.368,0,0,0-.011,1.415,11.4,11.4,0,0,0,.292,1.888,16.82,16.82,0,0,0,.75,2.335,19.4,19.4,0,0,0,1.394,2.769,18.469,18.469,0,0,0,2.223,3.139,15.592,15.592,0,0,0,2.064,1.944,8.458,8.458,0,0,0,1.706,1.049,8.248,8.248,0,0,0,1.074.4c.111.029.2.048.272.059a.22.22,0,0,0,.05.007l.077.014a2.035,2.035,0,0,0,.229.013,2.341,2.341,0,0,0,.455-.046,1.852,1.852,0,0,0,.651-.254l2.769-1.612a1.342,1.342,0,0,0,.679-1.019l0-.038A1.416,1.416,0,0,0,1034.853,228.773Z" transform="translate(-1020.071 -213.105)" fill="#fff" stroke="#fff4e6" stroke-width="1"/>
</svg>
