<svg id="グループ_32" data-name="グループ 32" xmlns="http://www.w3.org/2000/svg" width="22.07" height="15.895" viewBox="0 0 22.07 15.895">
  <path id="パス_61" data-name="パス 61" d="M372.986,225.9a.718.718,0,0,1-.15.207c-.248.234-4.889,4.621-7.334,6.907l7.333,6.9a.691.691,0,0,1,.079.091,1.434,1.434,0,0,0,.152-.641V226.371A1.431,1.431,0,0,0,372.986,225.9Z" transform="translate(-350.996 -224.92)" fill="#fff"/>
  <path id="パス_62" data-name="パス 62" d="M303.786,226.717a1.453,1.453,0,0,0-.027.278v12.994a1.447,1.447,0,0,0,.028.28l7.471-6.638C308.809,231.375,304.258,227.154,303.786,226.717Z" transform="translate(-303.759 -225.545)" fill="#fff"/>
  <path id="パス_63" data-name="パス 63" d="M316.813,230.006a1.437,1.437,0,0,0,2.312.007c.977-.877,8.6-8.08,8.676-8.152a.718.718,0,0,1,.119-.091,1.437,1.437,0,0,0-.343-.043H308.409a1.434,1.434,0,0,0-.468.079C308.192,222.039,315.641,228.947,316.813,230.006Z" transform="translate(-306.958 -221.727)" fill="#fff"/>
  <path id="パス_64" data-name="パス 64" d="M320.4,260.359c-.13.12-.235.217-.306.28a2.85,2.85,0,0,1-4.253-.01l-.311-.283-7.589,6.743a1.434,1.434,0,0,0,.468.079H327.58l.056,0Z" transform="translate(-306.961 -251.273)" fill="#fff"/>
</svg>
