<?xml version="1.0" encoding="utf-8"?>
<!-- Generator: Adobe Illustrator 26.5.3, SVG Export Plug-In . SVG Version: 6.00 Build 0)  -->
<svg version="1.1" id="レイヤー_1" xmlns="http://www.w3.org/2000/svg" xmlns:xlink="http://www.w3.org/1999/xlink" x="0px"
	 y="0px" viewBox="0 0 199.4 54" style="enable-background:new 0 0 199.4 54;" xml:space="preserve">
<style type="text/css">
	.st0{fill:#2F548E;}
</style>
<g>
	<polygon class="st0" points="16.3,18.4 16.3,12.4 5,12.4 1.3,12.4 0,12.4 0,43 1.3,43 5,43 16.3,43 16.3,37.1 5,37.1 5,18.4 	"/>
	<polygon class="st0" points="32.6,18.4 32.6,12.4 43.9,12.4 47.6,12.4 48.9,12.4 48.9,43 47.6,43 43.9,43 32.6,43 32.6,37.1 
		43.9,37.1 43.9,18.4 	"/>
	<g>
		<polygon class="st0" points="48.5,6 48.5,0 0.4,0 0.4,6 21.5,6 21.5,24.6 10.1,24.6 10.1,31.8 21.5,31.8 21.5,48.1 0.4,48.1 
			0.4,54 48.5,54 48.5,48.1 27.4,48.1 27.4,31.8 38.8,31.8 38.8,24.6 27.4,24.6 27.4,6 		"/>
		<g>
			<path class="st0" d="M87.4,43.7v5.7h-1v-1h-3.2v4.2h-1v-4.2h-3.1v1h-1v-5.8h4.1v-2.6h1v2.6H87.4z M79.1,44.6v3.1h3.1v-3.1H79.1z
				 M86.4,47.7v-3.1h-3.2v3.1H86.4z"/>
			<path class="st0" d="M96.4,49.2v2.3c0,0.8-0.5,1.1-1.3,1.1c-0.6,0-1.2,0-1.9-0.1l-0.2-1c0.6,0.2,1.2,0.2,1.9,0.2
				c0.3,0,0.5-0.2,0.5-0.5v-2h-5.1v-0.8h5.1v-0.9c0.7-0.3,1.5-0.7,2.2-1.1h-5.1v-0.8h6.3l0.5,0.5c-0.9,0.7-1.9,1.4-3,1.9h0v0.5h5
				v0.8H96.4z M92,41.7l0.9-0.4c0.4,0.6,0.7,1.3,1,1.9l-0.8,0.3h4.1c0.5-0.7,1-1.6,1.4-2.4l1,0.5c-0.4,0.6-0.8,1.3-1.3,2h2.5v2.8
				h-0.9v-2h-8.1v2h-0.9v-2.8h2.1l0-0.1C92.6,42.8,92.4,42.3,92,41.7z M94.6,41.5l0.9-0.4c0.4,0.6,0.7,1.3,0.9,2l-0.9,0.4h0
				C95.2,42.8,95,42.1,94.6,41.5z"/>
			<path class="st0" d="M103.7,50.2l-0.5-1c0.9-1.4,1.5-3,1.9-4.7h-1.6v-0.8h1.8V41h0.9v2.7h1.5v0.8H106V46c0.6,0.6,1.2,1.2,1.7,1.9
				l-0.5,1c-0.4-0.7-0.8-1.2-1.2-1.8v5.6h-0.9v-6.1C104.8,47.8,104.3,49,103.7,50.2z M110.4,49.7c-0.6-0.8-1.1-1.8-1.4-2.7l0.7-0.4
				c0.3,0.8,0.7,1.7,1.2,2.4c0.5-0.8,0.8-1.8,1-2.7l0.8,0.4c-0.2,1.1-0.6,2.1-1.2,3c0.9,0.8,1.9,1.5,3,1.9l-0.6,0.9
				c-1.1-0.6-2-1.3-2.9-2.1c-0.9,1-1.9,1.8-3.1,2.3l-0.5-0.8C108.5,51.5,109.5,50.7,110.4,49.7z M109.3,44.3l0.8,0.4
				c-0.5,1.2-1.2,2.2-2.1,3.1l-0.5-0.7C108.4,46.3,108.9,45.3,109.3,44.3z M107.6,43.1h2.8V41h0.9v2.1h3v0.8h-6.7V43.1z M111.4,44.6
				l0.7-0.4c0.8,0.8,1.6,1.7,2.3,2.7l-0.7,0.7h0C112.9,46.4,112.2,45.5,111.4,44.6z"/>
			<path class="st0" d="M121,45.9h1.7v1.7H121V45.9z"/>
			<path class="st0" d="M130,42.3h4.4v-1.4h0.9v1.4h4.5v0.8H130V42.3z M138.3,52.5c-0.5,0-1,0-1.4-0.1l-0.1-1c0.5,0.1,1,0.1,1.4,0.1
				c0.2,0,0.4-0.1,0.4-0.4v-3.5h-7.2v4.9h-0.9v-5.6h9v4.5C139.4,52.2,139,52.5,138.3,52.5z M138,43.9v2.4h-6.2v-2.4H138z
				 M132.5,51.8v-3.2h4.7V51h-3.9v0.7H132.5z M132.7,44.6v1h4.4v-1H132.7z M136.4,49.2h-3v1.1h3V49.2z"/>
			<path class="st0" d="M146.5,44l-0.8,0.4l0-0.1c-0.2-0.5-0.3-1-0.5-1.4h-0.9c-0.4,0.6-0.8,1.3-1.3,1.8l-0.6-0.6
				c0.8-0.9,1.4-2,1.8-3.2l0.8,0.2c-0.1,0.3-0.2,0.7-0.4,1h3.1v0.8H146C146.2,43.3,146.4,43.7,146.5,44z M152.2,44.9v0.8h-3.9v1.1h5
				v0.8h-2.7v1.1h2.1v0.8h-2.1v2.3c0,0.6-0.4,0.9-1,0.9c-0.6,0-1.2,0-1.8-0.1l-0.2-1c0.6,0.1,1.2,0.2,1.8,0.2c0.2,0,0.3-0.1,0.3-0.4
				v-2h-6.8v-0.8h6.7v-1.1h-7.3v-0.8h5v-1.1h-3.8v-0.8h3.8V44h0.9v0.9H152.2z M144.8,50.1l0.7-0.6c0.6,0.5,1.2,1.1,1.7,1.8l-0.7,0.7
				h0C146,51.3,145.5,50.7,144.8,50.1z M151.3,44l-0.8,0.4c-0.2-0.5-0.5-1-0.7-1.5h-0.9c-0.2,0.4-0.5,0.7-0.8,1.1l-0.7-0.5
				c0.7-0.7,1.1-1.6,1.4-2.6l0.8,0.2c-0.1,0.3-0.2,0.7-0.4,1h3.9v0.8h-2.5C150.9,43.3,151.1,43.7,151.3,44z"/>
			<path class="st0" d="M161.5,49.2v2.3c0,0.8-0.5,1.1-1.3,1.1c-0.6,0-1.2,0-1.9-0.1l-0.2-1c0.6,0.2,1.2,0.2,1.9,0.2
				c0.3,0,0.5-0.2,0.5-0.5v-2h-5.1v-0.8h5.1v-0.9c0.7-0.3,1.5-0.7,2.2-1.1h-5.1v-0.8h6.3l0.5,0.5c-0.9,0.7-1.9,1.4-3,1.9h0v0.5h5
				v0.8H161.5z M157.2,41.7l0.9-0.4c0.4,0.6,0.7,1.3,1,1.9l-0.8,0.3h4.1c0.5-0.7,1-1.6,1.4-2.4l1,0.5c-0.4,0.6-0.8,1.3-1.3,2h2.5
				v2.8H165v-2h-8.1v2H156v-2.8h2.1l0-0.1C157.7,42.8,157.6,42.3,157.2,41.7z M159.7,41.5l0.9-0.4c0.4,0.6,0.7,1.3,0.9,2l-0.9,0.4h0
				C160.4,42.8,160.1,42.1,159.7,41.5z"/>
			<path class="st0" d="M168.8,50.2l-0.5-1c0.9-1.4,1.5-3,1.9-4.7h-1.6v-0.8h1.8V41h0.9v2.7h1.5v0.8h-1.5V46
				c0.6,0.6,1.2,1.2,1.7,1.9l-0.5,1c-0.4-0.7-0.8-1.2-1.2-1.8v5.6h-0.9v-6.1C170,47.8,169.5,49,168.8,50.2z M175.5,49.7
				c-0.6-0.8-1.1-1.8-1.4-2.7l0.7-0.4c0.3,0.8,0.7,1.7,1.2,2.4c0.5-0.8,0.8-1.8,1-2.7l0.8,0.4c-0.2,1.1-0.6,2.1-1.2,3
				c0.9,0.8,1.9,1.5,3,1.9l-0.6,0.9c-1.1-0.6-2-1.3-2.9-2.1c-0.9,1-1.9,1.8-3.1,2.3l-0.5-0.8C173.7,51.5,174.7,50.7,175.5,49.7z
				 M174.5,44.3l0.8,0.4c-0.5,1.2-1.2,2.2-2.1,3.1l-0.5-0.7C173.5,46.3,174.1,45.3,174.5,44.3z M172.7,43.1h2.8V41h0.9v2.1h3v0.8
				h-6.7V43.1z M176.5,44.6l0.7-0.4c0.8,0.8,1.6,1.7,2.3,2.7l-0.7,0.7h0C178.1,46.4,177.3,45.5,176.5,44.6z"/>
		</g>
		<g>
			<g>
				<path class="st0" d="M168.6,3.3c0.2,0.1,0.3,0.1,0.5,0.1c0.1,0.1,0.4,0.3,0.5,0.3c0,0.1,0,0.1,0.1,0.2c0,0.1,0.3,0.3,0.4,0.3
					c0,0,0,0,0,0c0,0.2,0.1,0.4,0.2,0.5c0,0.1,0,0.2,0,0.2c0,0,0,0.1,0,0.1c0,0,0.1,0,0.1,0v0h0c0,0.1,0.1,0.4,0,0.4
					c0,0.1,0.1,0.1,0.1,0.2c0,0.1,0,0.2,0,0.4c0.1,0.3,0.2,0.6,0.3,0.9c0,0,0.1,0.1,0.2,0.1c0,0.2,0.1,0.2,0.1,0.3
					c0,0.1,0.1,0.2,0.2,0.2c0,0.1,0,0.2,0,0.2c0,0.1,0,0.1,0,0.2c0.1,0.1,0.1,0.3,0.1,0.3c0,0,0,0,0,0c0,0,0,0.1-0.1,0.1
					c0,0,0,0,0,0c0,0,0.1,0.1,0.1,0.1v0.1c0,0-0.1,0-0.1,0c0,0,0,0.1,0,0.1c0,0,0,0,0,0c0,0-0.1,0-0.1,0.1c0,0.1,0,0.1,0,0.2
					c0,0.2-0.1,0.3-0.1,0.5h0v0c0,0-0.1-0.1-0.1,0c0,0,0,0.1,0,0.2c-0.1,0.1-0.2,0.2-0.3,0.3c-0.1,0.1-0.2,0.2-0.4,0.2
					c-0.5,0.2-1,0-1.4-0.2c-0.1-0.1-0.2-0.2-0.3-0.2c0,0-0.1-0.1-0.1-0.1c-0.2,0-0.5-0.4-0.5-0.6c-0.1-0.1-0.1-0.1-0.1-0.2h0
					c0,0,0,0,0,0c-0.1,0-0.1,0-0.2-0.1c0-0.1-0.1-0.2-0.1-0.3c-0.1-0.1-0.2-0.3-0.3-0.4c0-0.1-0.1-0.1-0.1-0.2c0,0-0.1-0.1-0.1-0.1
					C167,7.6,167,7.5,167,7.4c-0.1-0.1-0.2-0.2-0.2-0.3c-0.2-0.1-0.2-0.2-0.3-0.4c0,0-0.1-0.1-0.1-0.1c0-0.1-0.1-0.1-0.1-0.2
					c-0.1,0-0.1-0.1-0.2-0.1c-0.1-0.1-0.2-0.3-0.3-0.4c-0.1,0-0.1-0.1-0.2-0.1c-0.1-0.1,0-0.1-0.1-0.2c0,0,0,0-0.1,0
					c0,0,0.1-0.2,0.1-0.1h0c0,0-0.1-0.1-0.1-0.1c0-0.1,0-0.3,0-0.3c0.3-0.7,1.1-1.1,1.7-1.4c0,0,0.2-0.1,0.2-0.1h0
					c0.1,0,0.2,0,0.2,0c0.1-0.1,0.5-0.1,0.6-0.1c0.1,0,0.1,0,0.2,0C168.5,3.3,168.5,3.3,168.6,3.3"/>
				<path class="st0" d="M79.5,4.2c-0.1,0-0.3,0-0.4,0c-0.1,0.1-0.2,0.2-0.4,0.2c0,0-0.1,0.1-0.1,0.1c-0.1,0.1-0.1,0.1-0.2,0.2
					c-0.2,0.1-0.4,0.3-0.5,0.5c-0.1,0.2-0.1,0.3-0.2,0.5c0,0.1,0,0.1,0,0.2c0,0.2-0.1,0.3,0.1,0.4v0c-0.1,0-0.1,0-0.2,0.1h0
					c0,0,0,0,0,0c0,0.2,0,0.3-0.1,0.5c0,0,0,0.1,0,0.2c-0.1,0,0,0.1,0,0.2v0c-0.1,0-0.1,0.1-0.1,0.2c0,0,0,0.1-0.1,0.2
					c0,0.1,0,0.1,0.1,0.2v0c-0.1,0-0.1,0.1-0.2,0.1c0,0.1,0,0.2-0.1,0.2c0,0,0,0.3,0,0.3c0,0.1,0,0.1-0.1,0.2c0,0,0,0.3-0.1,0.4
					c0,0,0,0,0,0c0,0.1-0.2,0.7-0.2,0.7v0c0.1,0,0.1,0,0.2,0v0c-0.1,0-0.2,0.1-0.3,0.2c0,0,0,0.1,0.1,0.1c0,0,0,0-0.1,0.1
					c0,0,0,0,0,0c0,0.1,0.1,0.1,0.1,0.1v0c-0.1,0-0.1,0.1-0.1,0.2c-0.1,0-0.1,0-0.1,0.1v0.3c0,0,0,0.1,0.1,0.1v0
					c-0.2,0-0.1,0.3-0.1,0.4c0,0.1,0,0.1,0,0.2c0,0,0,0.1,0.1,0.1c0,0,0,0,0,0c0,0-0.1,0.1-0.2,0.1c0,0,0,0.1,0,0.1
					c0,0.1,0,0.2,0,0.3c0,0.1-0.1,0.1,0,0.2v0c-0.2,0-0.1,0.2-0.1,0.3c-0.1,0-0.1,0.4,0,0.5c0,0,0,0.1-0.1,0.1c-0.1,0,0,0.1,0,0.1
					c0,0,0,0-0.1,0.1v0c0,0,0,0.2,0.1,0.2c-0.1,0-0.3,0.3-0.3,0.4c0,0.1-0.1,0.1-0.1,0.2c-0.1,0.2-0.2,0.3-0.3,0.4
					c-0.1,0.2-0.3,0.4-0.4,0.5c0,0.1-0.1,0.1-0.1,0.1c-0.1,0.2-0.3,0.3-0.5,0.4c-0.1,0.1-0.2,0.3-0.4,0.4c-0.1,0-0.1,0.1-0.2,0.1
					c-0.1,0.1-0.2,0.2-0.3,0.3c-0.1,0.1-0.2,0.1-0.3,0.2c-0.1,0.1-0.3,0.2-0.4,0.3c-0.1,0.1-0.2,0.2-0.4,0.3c-0.1,0-0.1,0.1-0.2,0.1
					c0,0,0,0,0,0c0,0,0,0-0.1,0c-0.1,0-0.2,0.1-0.3,0.2c-0.2,0.1-0.5,0.2-0.7,0.4h0c0,0,0,0,0,0c0,0,0,0,0,0
					c-0.2,0.1-0.3,0.1-0.5,0.2c-0.1,0.1-0.2,0.1-0.3,0.2c-0.1,0-0.2,0.1-0.4,0.1c0,0,0,0,0,0c0,0-0.2,0.1-0.2,0.1c0,0,0,0,0,0.1
					c0,0.2,0,0.2,0.2,0.2v0c0,0,0,0,0,0c0,0,0,0,0,0c0,0-0.1,0-0.1,0h0c0,0,0,0,0,0c0,0,0,0.1,0,0.1c0,0.1,0.1,0.1,0.2,0.2
					c0.1,0.1,0.1,0.3,0.2,0.4c0,0,0,0-0.1,0v0c0,0,0,0,0,0c0.1,0.1,0.2,0.2,0.2,0.2c0.1,0.1,0.3,0.3,0.4,0.4c0.1,0,0.1,0.1,0.2,0.1
					c0.1,0.1,0.2,0.2,0.3,0.2c0.2,0,0.3,0,0.4,0c0.1,0,0.2,0,0.3,0c0.4,0,0.6,0,0.9-0.1c0.3-0.1,0.5-0.1,0.7-0.2
					c0.1-0.1,0.2-0.1,0.3-0.2c0.1-0.1,0.1-0.1,0.2-0.2c0.1-0.1,0.3-0.2,0.4-0.3c0.1-0.1,0.2-0.2,0.3-0.3c0.2-0.2,0.4-0.4,0.5-0.5
					c0-0.1,0.1-0.1,0.1-0.2c0.4-0.4,0.7-0.8,1.1-1.2c0.1-0.1,0.1-0.1,0.1-0.2c0.1,0,0.1-0.1,0.2-0.1c0.1-0.1,0.2-0.2,0.3-0.4
					c0,0,0,0,0,0c0-0.2,0.3-0.4,0.3-0.6c0.2,0,0.2-0.2,0.3-0.3c0.1-0.1,0.2-0.1,0.3-0.3c0.2,0,0.5-0.3,0.6-0.4
					c0.2-0.2,0.5-0.2,0.7-0.4c0.1-0.1,0.2-0.1,0.3-0.2c0.1-0.1,0.3-0.1,0.4-0.1c0.1,0,0.1-0.1,0.2-0.1c0.1,0,0.1,0,0.2,0
					c0,0,0.1,0,0.1-0.1c0.2-0.1,0.5-0.1,0.7-0.2c0.2-0.1,0.3-0.1,0.5-0.2c0.2-0.1,0.5-0.1,0.7-0.1c0.4-0.1,0.7,0,1.1-0.1
					c0.1,0,0.1,0,0.2,0c0.1,0,0.2,0,0.3,0c0.2,0,0.4-0.1,0.7-0.1c0.2,0,0.5,0,0.7,0c0.2,0,0.3,0.1,0.5,0.1c0.2,0,0.5,0,0.7,0
					c0.3,0,0.7,0.1,1,0.1c0.2,0,0.5,0,0.7,0c0.6,0.1,1.3,0.1,1.9,0.1c0.2,0,0.5,0.1,0.7,0.1c0.2,0,0.3,0,0.5,0c0.1,0,0.2,0,0.3,0
					c0.2,0,0.4,0.1,0.6,0c0.2,0,0.4-0.1,0.5-0.2c0.1,0,0.2,0,0.3-0.1c0.2-0.1,0.4-0.4,0.6-0.5c0-0.1,0-0.1,0-0.2
					c0.1-0.2,0.3-0.4,0.5-0.6c0.1-0.1,0.1-0.2,0.2-0.3c0.1-0.1,0.1-0.3,0.2-0.4c0.1-0.1,0.1-0.1,0.2-0.2c0-0.1,0.1-0.1,0.1-0.2v-0.1
					c0,0,0,0-0.1-0.1c0,0,0,0,0,0c0.1,0,0.1-0.1,0.2-0.1v0h0c0,0,0-0.1,0-0.1c0-0.1,0-0.2,0-0.3c-0.1,0-0.1,0-0.2,0
					c-0.5,0-0.9-0.2-1.4-0.3c-0.3-0.1-0.6,0-0.9-0.1c-0.1,0-0.2,0-0.3-0.1c-0.1,0-0.2,0-0.4,0c-0.1,0-0.2,0-0.3,0
					c-0.2,0-0.4,0-0.5,0v0c0,0-0.1,0-0.1,0c0,0,0,0,0,0v0h-0.1c0,0,0,0-0.1,0v0c-0.1,0-0.2-0.1-0.2-0.1c0,0,0,0-0.1,0
					c-0.3,0.1-0.6-0.1-0.9,0.1v0c-0.1,0-0.2,0-0.3,0.1c-0.1,0-0.2,0-0.3,0c-0.3,0-0.5,0-0.8,0c-0.1,0-0.3,0-0.4,0
					c-0.2,0-0.4,0-0.5,0.1h0c0,0-0.1,0-0.1,0c-0.3,0-0.7-0.1-1,0v0c-0.2,0-0.4,0-0.5,0.1c0,0-0.4,0-0.5,0c-0.1,0-0.2,0-0.3,0
					c-0.1,0-0.2,0-0.2,0c-0.1,0-0.1,0-0.2,0c-0.1,0-0.2,0-0.3,0h0c0,0,0,0,0,0c-0.1,0-0.9,0.1-1,0h0c0,0,0,0,0,0v0
					c-0.3,0-0.5,0-0.8,0.1v0h0v0h-0.5c0,0-0.1,0-0.1,0v0c-0.1,0-0.1,0-0.2-0.1c0,0,0,0-0.1,0c-0.3,0-0.6,0-0.8-0.2
					c-0.3-0.3,0.1-0.5,0.1-0.8c0,0,0.1,0,0.1-0.1c0.1-0.2,0.2-0.4,0.3-0.6c0.1-0.1,0.1-0.2,0.2-0.3c0,0,0.1-0.1,0.1-0.1
					c0-0.1,0.1-0.2,0.1-0.3c0.1-0.1,0.1-0.1,0.2-0.2c0,0,0,0,0,0c0,0,0-0.1,0-0.1c0-0.1,0.1-0.1,0.1-0.2c0-0.1,0.1-0.1,0.1-0.2
					c0,0,0-0.1,0-0.1c0,0,0.1,0,0.1,0v0h0c0-0.2,0.1-0.3,0.1-0.5c0.1,0,0.2-0.4,0.2-0.5c0,0,0,0,0,0C82.8,7.2,83,7,83,7V7
					c0,0-0.1,0-0.1,0h0c0-0.1,0.1-0.1,0.2-0.2v0c0,0-0.1,0-0.1,0c0-0.1,0-0.1,0-0.2c0-0.1,0-0.1,0-0.3c-0.1,0-0.1-0.1,0-0.2v0h0
					c0-0.1-0.1-0.1-0.2-0.2c0,0,0,0,0,0c0-0.2-1.3-1-1.5-1.1c0,0-0.1,0-0.1-0.1c0,0-0.1,0-0.1,0c-0.1,0-0.3-0.1-0.4-0.2
					c-0.1-0.1-0.3-0.1-0.4-0.1c0,0,0,0,0,0v0C79.9,4.3,79.7,4.2,79.5,4.2L79.5,4.2z"/>
				<path class="st0" d="M185.8,4.8C185.8,4.7,185.8,4.7,185.8,4.8C185.8,4.8,185.8,4.8,185.8,4.8c-0.1,0-0.2,0-0.2,0
					c-0.3,0.1-0.7,0.2-0.9,0.5c-0.1,0.2-0.2,0.3-0.3,0.4c0,0,0.1,0,0.1,0.1c0,0.1,0,0.1-0.1,0.1c0,0.1,0.1,0.1,0.1,0.2c0,0,0,0,0,0
					v0c0,0-0.1,0-0.1,0.1c0,0,0,0.1,0,0.1c0,0,0.1,0,0.1,0.1v0c-0.1,0-0.1,0-0.2,0.1c0,0,0,0,0,0.1c0,0,0.1,0,0.1,0v0.1
					c0,0-0.1,0-0.1,0.1c-0.1,0,0.1,0.1,0.1,0.1c0,0,0,0.1-0.1,0.1h0c0,0.1,0,0.2,0,0.3h0c0.1,0.2,0,0.5,0.1,0.6v0
					c-0.1,0,0,0.2,0,0.3c0,0-0.1,0-0.1,0.1v0c0.1,0,0.1,0.4,0,0.4c0,0.1,0,0.1,0.1,0.2c0,0,0,0,0,0.1c-0.1,0,0,0.1,0,0.1v0
					c0,0-0.1,0-0.1,0.1c0,0,0.1,0.1,0.1,0.1v0c0,0-0.1,0.1-0.1,0.1c0,0.2,0.1,0.1,0,0.3c-0.1,0,0,0.1,0.1,0.1c0.1,0,0,0.1-0.1,0.2
					c-0.1,0,0,0.1,0.1,0.1c0,0,0,0,0,0c0,0,0,0.1,0,0.1c0,0.1,0,0.2,0,0.3c0,0,0,0.1,0.1,0.1h0c0,0.1-0.1,0.2,0,0.3c0,0,0,0-0.1,0.1
					v0c0,0,0,0,0,0c0,0,0.1,0.1,0.1,0.1c0,0,0,0-0.1,0.1c0,0.1,0,0.1,0,0.2c0,0,0,0.1-0.1,0.1c0,0,0,0.1,0.1,0.1
					c0,0.1,0,0.2,0.1,0.2v0c-0.1,0-0.1,0.1-0.1,0.1c0,0,0,0.1,0,0.2c0,0.2,0.1,0.8-0.1,0.9c-0.1,0-0.3,0-0.4,0.1h-0.3
					c0,0-0.1,0-0.1,0c-0.2,0-0.4,0-0.5,0.1c-0.1,0-0.2,0-0.3-0.1c-0.1,0-0.3,0-0.4,0c-0.1,0-0.3-0.1-0.5,0c-0.2,0-0.3,0-0.5,0
					c-0.2,0-0.6-0.2-0.8-0.1h0c0,0,0,0,0,0h-0.2c-0.2,0-0.3,0-0.5,0c-0.1,0-0.2,0-0.4,0c-0.1,0-0.2,0-0.3,0h0c0,0,0,0,0,0
					c-0.2,0-0.4,0-0.6,0.2c0,0-0.1,0-0.1,0c0,0-0.4,0.2-0.4,0.2c0,0,0,0,0,0c-0.2,0.1-0.4,0.2-0.5,0.3c-0.1,0.2-0.2,0.3-0.3,0.5
					c-0.1,0.2-0.3,0.3-0.2,0.5c-0.1,0-0.3,0.9-0.4,1.1c0,0.1,0,0.1,0,0.2c0,0,0,0-0.1,0.1v0.1c0.1,0,0,0.1,0,0.2h0
					c0,0.1,0.2,0.2,0.2,0.2v0c0,0-0.1,0-0.1,0h0v0.1c0.2,0,0.2,0.1,0.3,0.2c0.1,0.1,0.2,0.1,0.3,0.2c0.1,0,0.6,0.2,0.7,0.2
					c0.1,0,0.2,0,0.2,0c0.1,0,0.3,0,0.4,0c0.3,0,0.6-0.1,0.9-0.1c0.2,0,0.4,0,0.6-0.1c0.1,0,0.2,0,0.2,0c0.2,0,0.5-0.1,0.7-0.1
					c0.4,0,0.7,0,1.1-0.1c0.2,0,0.3-0.1,0.5-0.1c0.3,0,1.8,0.2,2,0.3c0,0.1,0.1,0.2,0,0.3c0,0,0,0.1,0,0.1c0,0.1,0.1,0.5,0,0.6
					c0,0.1,0,0.1,0.1,0.2c0,0.1,0,0.1,0.1,0.2c0,0-0.1,0-0.1,0.1c0,0,0.1,0.1,0.1,0.2c0,0-0.1,0-0.1,0c0,0.1,0.1,0.1,0.1,0.1v0.1
					c0,0-0.1,0.1-0.1,0.1c0,0,0,0,0,0c0,0,0.1,0.1,0.1,0.1h0c0,0,0,0,0,0c0,0.1-0.1,0.8,0,0.8c0,0.1,0,0.1-0.1,0.1
					c0,0.1,0.1,0.1,0.1,0.2c0,0,0,0,0,0c0,0,0,0.1,0,0.1c0,0.1,0,0.1,0.1,0.2c0.1,0,0,0-0.1,0c-0.1,0,0,0.4,0,0.4c0,0,0,0,0,0
					c0,0-0.1,0-0.1,0.1c0,0,0,0,0,0c0.1,0.2,0.1,0.5,0,0.7c-0.1,0,0.1,0.1,0.1,0.1v0c0,0,0,0-0.1,0.1c0,0,0,0.1,0.1,0.1
					c0,0,0,0,0,0.1c0,0.1,0,0.1,0,0.2c0,0,0,0-0.1,0c0,0.1,0.1,0.1,0.1,0.1v0.1c0,0-0.1,0.1-0.1,0.1c0,0,0,0.2,0,0.2
					c-0.1,0,0,0.1,0.1,0.1v0c0,0,0,0-0.1,0.1c0,0,0.1,0.2,0,0.2v0c0,0,0.1,0,0.1,0.1c0,0,0,0,0,0c0,0-0.1,0.1-0.1,0.1v0
					c0,0,0,0,0,0.1h0c0,0,0.1,0,0.1,0v0.1c0,0-0.1,0.1-0.1,0.2c0,0.1,0.1,0.1,0,0.2c0,0.1,0,0.1,0.1,0.1c0,0,0,0.1,0,0.2
					c0,0,0,0,0,0c0.1,0,0,0.2,0,0.2c0,0,0,0,0,0c0,0,0.1,0,0.1,0c0,0.1,0,0.1,0,0.2c0,0,0.1,0.3,0.1,0.3c0,0,0,0.1,0,0.1
					c0,0,0,0,0.1,0.1c0,0,0,0,0,0.1c0,0.2-0.3,0.4-0.4,0.6c0,0-0.1,0-0.1,0c0,0-0.1,0-0.1,0c-0.2,0-0.4,0-0.6,0c0,0,0,0-0.1,0
					c0,0,0,0,0,0c-0.1,0-0.3,0-0.5,0c-0.1,0-0.3-0.1-0.4,0c-0.1,0-0.1,0-0.2,0h-0.3c-0.2,0-0.5,0-0.7,0c-0.1,0-0.2,0-0.3,0
					c-0.1,0-0.2,0-0.3,0c0,0,0,0,0,0c0,0-0.1,0-0.2,0h-0.9c-0.1,0-0.2,0-0.2,0c-0.2,0-0.5,0-0.6,0c-0.1,0-0.1,0-0.2,0c0,0,0,0,0,0.1
					h-0.1c-0.1,0-0.2,0-0.2,0.1c-0.1,0-0.1,0-0.2,0c-0.2,0-0.3,0-0.5,0c-0.1,0-0.2,0-0.2,0.1h-0.4c-0.2,0.1-0.5,0.2-0.7,0.2
					c0,0,0,0,0,0c0,0-0.2,0-0.2,0h0c0,0-0.3,0.1-0.3,0.1c-0.4,0.1-0.8,0.3-1.2,0.4c-0.2,0.1-0.3,0.2-0.5,0.3
					c-0.1,0.1-0.2,0.1-0.3,0.2c-0.1,0.1-0.2,0.2-0.3,0.3c0,0.3-0.1,0.4-0.1,0.6c-0.1,0.2-0.1,0.4-0.1,0.5c0,0,0,0,0,0
					c0,0,0,0,0.1,0.1c0,0,0,0,0,0c0,0.1-0.1,0.1-0.1,0.2c0,0-0.1,0.1-0.1,0.1c-0.1,0,0,0.1,0.1,0.1c0,0.1,0,0.1,0,0.1
					c0,0.1,0,0.2,0,0.3c0,0.1,0,0.1,0.1,0.2c-0.1,0,0,0.4,0,0.4c0,0,0,0,0,0c0,0,0,0,0,0.1c-0.1,0,0.1,0.1,0.1,0.1
					c0,0.2,0.1,0.2,0.1,0.3c0,0,0,0,0,0.1c0.1,0.1,0.3,0.1,0.4,0.1c0.2,0.1,0.5,0.1,0.7,0.1c0.3,0,0.6,0,0.9-0.1
					c0.2,0,0.3-0.1,0.5-0.1c0,0,0,0,0.1-0.1c0.2-0.1,0.3-0.1,0.5-0.2c0.1,0,0.2-0.2,0.3-0.2c0.1,0,0.2-0.1,0.3-0.1
					c0.2-0.1,0.3-0.1,0.4-0.2c0.1,0,0.1,0,0.2-0.1c0,0,0.1,0,0.1-0.1c0.2-0.1,0.4,0,0.5-0.1c0.4,0,0.8-0.1,1.3-0.2
					c0.2,0,0.4,0,0.6-0.1c0.1,0,0.2-0.1,0.3-0.1c0.4-0.1,0.9-0.1,1.3-0.2c0.1,0,0.2-0.1,0.3-0.1c0.1,0,0.3,0,0.4,0
					c0.1,0,0.2-0.1,0.3-0.1c0.2,0,0.3,0,0.5,0c0.2,0,0.4,0,0.6-0.1c0.2,0,1.5-0.2,1.6-0.3c0.3,0,0.5-0.1,0.8-0.1c0.6,0,1.3,0,1.9,0
					c0.2,0,0.3,0,0.4-0.1c0.4,0,0.7,0.1,1.1,0.1c0.2,0,0.4,0,0.6,0c0.1,0,0.2,0,0.3,0.1c0.1,0,0.2,0,0.3,0c0.4,0,0.7,0.1,1,0.2
					c0.3,0,0.7,0.1,1,0.1c0.4,0.1,0.9,0.2,1.2,0.4c0,0,0.1,0.1,0.1,0.1c0.1,0.1,0.3,0.1,0.4,0.2c0.1,0,0.1,0,0.2,0.1
					c0.1,0,0.2,0.1,0.2,0.1c0.1,0,0.3,0.1,0.4,0.1c0.2,0,0.3,0.1,0.5,0.1c0.2,0,0.5,0,0.7-0.1c0.1-0.1,0.3-0.2,0.4-0.3
					c0.2-0.1,0.3-0.3,0.5-0.4c0.1-0.2,0.3-0.4,0.4-0.6c0.1-0.1,0.1-0.1,0.2-0.2c0,0,0,0,0,0c0-0.1,0.2-0.4,0.3-0.5
					c0.1-0.2,0.2-0.6,0.5-0.7v0c0,0,0,0-0.1-0.1c-0.1-0.2,0-0.3,0.2-0.4c0,0,0,0,0,0c0,0-0.1,0-0.1-0.1c0-0.1,0.1-0.1,0.1-0.1
					c0-0.1,0-0.2,0.1-0.3c0,0,0-0.1-0.1-0.1v-0.1c0,0,0.1-0.1,0.1-0.1c0-0.1-0.1-0.1-0.1-0.1c0-0.1,0.1-0.1,0.1-0.2
					c0-0.2-0.1-0.3,0-0.5c-0.1,0-0.3-0.1-0.4-0.1c0,0-0.1,0-0.2,0h-0.4c0,0,0,0,0,0c0,0.1-0.2,0.1-0.3,0.1c-0.4,0-0.7,0-1.1,0.1h0
					v0.1c-0.1,0-0.2,0-0.3,0.1c0,0,0,0-0.1,0v0c0,0-0.1,0-0.1,0.1c-0.1,0-0.1,0-0.2,0.1c-0.1,0-0.1,0-0.2,0c0,0,0,0,0,0v0
					c-0.1,0-0.2,0-0.3,0c-0.2,0-0.3,0-0.5,0h0c0,0.1-0.3,0-0.4,0c0,0,0,0-0.1,0c-0.2,0-0.4,0-0.7,0c-0.1,0-0.3,0-0.4,0
					c-0.1,0-0.2-0.1-0.3-0.1c0,0,0,0,0,0c-0.1,0-0.2,0-0.3,0c-0.1,0-0.1,0-0.2,0c-0.2,0-0.4-0.1-0.6-0.1c-0.2,0-0.3-0.1-0.5-0.1
					c-0.1,0-0.3-0.1-0.4-0.1c-0.3-0.1-0.7-0.2-1-0.4c-0.2-0.1-0.6-0.1-0.8-0.3c-0.1-0.2-0.1-0.2-0.1-0.4c0-0.1-0.1-0.1-0.1-0.2
					c0-0.1,0-0.1,0-0.2c0-0.1-0.1-0.2,0-0.3c0,0-0.1-0.1-0.1-0.1c0,0,0.1-0.1,0.1-0.2c0,0-0.1-0.1-0.1-0.1h0c0,0,0,0,0.1,0v0
					c-0.1,0-0.1-0.1-0.1-0.1c0,0,0-0.1-0.1-0.2c0,0,0-0.1,0.1-0.1c0,0,0,0,0,0c-0.1,0-0.1-0.2-0.1-0.2c0,0,0-0.1-0.1-0.1
					c0,0,0.1,0,0.1-0.1v0h0v0c-0.1,0-0.1,0-0.1,0h0v-0.1c0,0,0.1,0,0.1-0.1h0c0-0.1-0.1-0.1-0.1-0.2c0,0,0.1-0.1,0.1-0.1
					c0-0.1-0.1-0.1-0.1-0.1c0,0,0,0,0,0v0c0,0,0.1,0,0.1-0.1c0.1,0-0.1-0.1-0.1-0.1h0v-0.1c0,0,0.1-0.1,0.1-0.2c0,0-0.1,0-0.1-0.1
					c0-0.1,0.1-0.1,0.1-0.2c0,0-0.1-0.1-0.1-0.2c0,0,0,0,0,0c0,0,0.1,0,0.1,0v0c-0.1,0-0.1-0.2-0.1-0.2c0,0-0.1-0.2-0.1-0.2
					c0,0,0.1-0.1,0.1-0.1v0c0,0-0.1,0-0.1,0c0-0.1,0-0.1,0.1-0.2h0v0c0,0-0.1,0-0.1-0.1h0V20c0,0,0.1-0.1,0.1-0.1
					c0-0.1-0.1-0.1,0-0.2h0c0-0.1-0.1-0.1,0-0.3c0,0,0,0,0,0c0,0-0.1,0-0.1-0.1c0-0.1,0-0.1,0.1-0.2c0,0,0-0.1,0-0.1
					c0,0,0-0.1,0-0.1c0-0.1-0.1-0.4,0-0.4c0-0.1-0.1-0.1,0-0.3h0v0c0,0-0.1,0-0.1,0c-0.1,0,0-0.2,0-0.2c0,0-0.1,0-0.1-0.1h0v0
					c0.1,0,0.1-0.1,0.2-0.1v0c-0.1,0-0.1,0-0.2-0.1c0-0.1,0.1-0.1,0.2-0.1v0c-0.1,0-0.1-0.1-0.2-0.1v0c0,0,0-0.1,0-0.1
					c0-0.3-0.1-0.7,0.3-0.8c0.2-0.1,0.5,0,0.8,0c0.3,0,0.7,0.1,1,0.1c0.3,0,0.6,0,0.8,0c0.2,0,0.5,0,0.7,0c0.3,0,0.7-0.1,1-0.1
					c0.2,0,0.5,0,0.7,0c0.1,0,0.1,0,0.2-0.1c0.1,0,0.2,0,0.3,0c0.1,0,0.2-0.1,0.2-0.1c0.1,0,0.3,0,0.4-0.1c0.2-0.1,0.4-0.2,0.6-0.4
					c0.1-0.1,0.3-0.3,0.4-0.4c0.1-0.1,0.1-0.2,0.2-0.2c0,0,0-0.1,0-0.1c0-0.1,0-0.1,0-0.2c0,0,0.1-0.1,0.1-0.1c-0.1,0-0.1,0-0.1-0.1
					c0-0.1,0.1-0.1,0.1-0.2c0,0,0,0,0,0c-0.1,0-0.1-0.3-0.1-0.3c0,0,0-0.1,0-0.1c-0.1,0-0.1-0.1-0.1-0.2c-0.1-0.4-0.6-1.3-1-1.5
					c0,0-0.1-0.1-0.2-0.1c-0.4-0.2-0.9-0.2-1.4-0.1c-0.4,0-0.7,0-1,0.1c0,0.1,0,0-0.1,0v0c0,0-0.1,0-0.1,0.1c-0.1,0-0.2,0-0.3,0
					c0,0,0,0-0.1,0c-0.2,0-0.5,0.1-0.7,0.1c0,0,0,0,0,0c0,0,0,0.1-0.1,0.1c0-0.1-0.1,0-0.1,0c-0.2,0-0.3,0.1-0.4,0.1
					c-0.1,0-0.2,0-0.3,0c0,0,0,0,0,0c0,0,0,0-0.1,0h-0.3h0c0,0-0.4,0-0.4,0c0,0-0.1,0-0.1,0v0c-0.1,0-0.1,0-0.2,0
					c-0.2,0-0.6,0-0.7-0.2c0-0.1-0.1-0.2-0.1-0.3c0,0,0.1-0.1,0.1-0.1c0,0-0.1-0.2-0.1-0.2c0,0,0.1,0,0.1,0c0-0.1-0.1-0.1-0.1-0.2
					c0,0,0-0.1,0.1-0.1c0,0,0.1,0,0.1,0v0c0,0-0.1-0.1-0.1-0.1c0-0.1,0.1-0.1,0.1-0.1v0h0v0c-0.1,0-0.1,0-0.2-0.1v-0.1
					c0.1,0,0.1,0,0.1,0h0c0-0.1-0.1-0.1-0.1-0.1c0,0,0-0.1,0.1-0.1c0,0,0,0,0-0.1c-0.1,0,0-0.2,0-0.2c0,0-0.1,0-0.1,0c0,0,0,0,0,0
					c0.1,0,0.1-0.3,0-0.4c0,0,0-0.1-0.1-0.2c0,0,0-0.1,0-0.1c0,0-0.1-0.1-0.1-0.2c0,0,0.1,0,0.1,0c0-0.1-0.1-0.1-0.1-0.3h0
					c-0.1-0.2,0-0.3-0.1-0.4c0,0,0.1,0,0.1-0.1c0.1,0,0-0.1-0.1-0.1c0-0.1,0.1-0.1,0.1-0.1c0-0.1,0-0.1-0.1-0.1c0-0.1,0-0.2,0-0.2
					c0.1,0,0.1-0.2,0.1-0.2c0,0,0-0.1,0-0.1c0,0,0.1,0,0.1-0.1c0-0.1,0.1-0.2,0-0.3v0c0.1,0,0.1-0.5,0.2-0.6c0.1,0,0-0.3,0-0.3
					c0,0,0,0,0-0.1c0,0,0,0,0,0c0-0.1-0.1-0.2,0-0.3v0c-0.1,0-0.2-0.1-0.2-0.2c0,0,0,0,0,0c0,0,0,0,0,0c-0.1-0.1-0.1-0.2-0.2-0.3
					c-0.1-0.1-0.3-0.3-0.4-0.4c-0.1-0.1-0.1-0.1-0.2-0.2V5.2h0c0,0,0,0,0,0.1c-0.2,0-0.4-0.3-0.6-0.3c0-0.1-0.5-0.2-0.6-0.2
					c-0.2,0-0.3,0-0.5,0C186.3,4.8,186,4.7,185.8,4.8"/>
				<path class="st0" d="M136.8,5.4c0,0-0.1,0-0.1,0c-0.2,0-0.5,0-0.6,0c-0.2,0-0.3,0-0.5,0c-0.1,0-0.3,0-0.4,0.1
					c-0.2,0-0.5,0-0.7,0c-0.1,0-0.3,0-0.4,0c-0.1,0-0.2,0-0.3,0c-0.2,0-0.4,0-0.5,0.1c-0.1,0-0.2,0-0.3,0c-0.1,0-0.3,0-0.4,0
					c0,0-0.3,0-0.4,0.1c-0.1,0-0.1,0-0.2,0c-0.1,0-0.2,0-0.3,0.1v0c-0.2,0-0.4-0.1-0.5,0c-0.1,0-0.2,0-0.3,0c-0.1,0-0.1,0-0.2,0
					c-0.1,0-0.2,0-0.3,0c0,0,0,0,0,0c-0.1,0-0.6,0.1-0.7,0.1c-0.1,0-0.2,0-0.3,0H129h0c0,0,0,0,0,0c-0.2,0-0.8,0-0.9,0.1
					c0,0-0.1,0-0.1,0h0c0,0.1-0.3,0-0.3,0.1c0,0-0.1,0-0.1,0c-0.2,0-0.5,0-0.7,0.1c0,0,0,0-0.1,0c-0.1,0-0.2,0-0.4,0
					c-0.2,0-0.4,0-0.7,0c-0.1,0-0.2,0-0.3,0c-0.1,0-0.2,0-0.3,0c-0.3,0-0.5,0-0.8,0c-0.3,0-0.5,0-0.8,0c-0.2,0-0.4-0.1-0.6,0
					c-0.3,0-0.6,0-0.9,0c-0.2,0-0.4,0-0.7,0c-0.3,0-0.6-0.1-0.9-0.1c-0.4-0.1-0.8-0.2-1.2-0.2c-0.3,0-0.5,0-0.8-0.1
					c-0.2,0-0.4,0-0.5,0h0c0,0.1-0.2,0.1-0.2,0.1c-0.5,0.2-1,0.4-1.3,0.9c-0.1,0.2-0.1,0.4-0.3,0.5c0,0,0,0.1,0,0.1
					c-0.1,0-0.3,0.7-0.3,0.8c0,0,0,0.2-0.1,0.2c0,0,0,0,0,0c0,0,0.2,0.1,0.2,0.1c0,0,0,0,0,0c-0.1,0-0.1,0-0.2,0.1h0c0,0,0,0,0,0
					c0,0,0,0.1,0,0.2c0,0-0.1,0-0.1,0.1c0,0.1,0.1,0.2,0.1,0.3c0,0,0.1,0.1,0.2,0.2h-0.1c0,0,0,0,0,0c0,0,0,0.1,0,0.2
					c0.1,0,0.1,0.2,0.3,0.2c0,0.1,0.1,0.1,0.1,0.1c0.2,0.1,0.5,0.2,0.8,0.2c0.1,0,0.2,0,0.3-0.1c0.1,0,0.2,0,0.3,0
					c0.1,0,0.7-0.1,0.8-0.1c0,0,0.1,0,0.1,0c0.3,0,0.5-0.1,0.8-0.1c0.1,0,0.3,0,0.4,0c0.1,0,0.1,0,0.2,0c0.1,0,0.3,0,0.4,0
					c0.6-0.1,1.1-0.1,1.7-0.1c0.2,0,0.5-0.1,0.7-0.1c0.1,0,0.2,0,0.4,0c0.3,0,0.5,0,0.8,0c0.2,0,0.4-0.1,0.6,0
					c0.1,0,0.4,0.3,0.5,0.4c0,0.1,0,0.2,0,0.2c0,0.1-0.1,0.2-0.1,0.3c0,0.1,0.1,0.3,0,0.4c0,0.1,0.1,0.1,0.1,0.2
					c0,0.1,0,0.2,0.1,0.3c0,0,0,0,0,0.1h0c0,0,0,0,0,0c0,0.3,0.2,0.5,0.1,0.7c0,0,0.1,0.1,0.1,0.1c0,0,0,0-0.1,0.1c0,0,0,0,0,0
					c0.1,0,0.1,0.4,0.1,0.5c0,0,0.1,0.1,0.1,0.1v0.1c-0.1,0-0.1,0.1-0.2,0.1v0c0.1,0,0.1,0,0.2,0.1c0,0,0,0.1,0,0.1
					c0,0.1,0,0.1,0,0.2c0,0,0,0.1,0.1,0.2c0,0.2-0.1,0.5-0.1,0.7c0,0.1,0,0.2,0,0.2c-0.1,0.2-0.2,0.4-0.3,0.6
					c-0.1,0.1-0.1,0.1-0.2,0.2c-0.1,0-0.2,0-0.3,0c-0.1,0-0.2,0-0.3,0c-0.1,0-0.3-0.1-0.4,0H123c0,0,0,0,0,0.1c-0.2,0-0.5-0.1-0.7,0
					c-0.1,0-0.1,0-0.2,0c-0.1,0-0.1,0-0.2,0c-0.1,0-0.2,0-0.3,0c-0.2,0-0.4-0.1-0.5,0c-0.3,0-0.6,0-1,0c-0.1,0-0.2-0.1-0.4,0
					c-0.3,0-0.7,0-1,0c-0.1,0-0.2,0-0.2,0c-0.2,0-0.4,0-0.5,0.1c-0.1,0-0.2,0-0.3,0c0,0-0.1,0-0.1,0.1c-0.2,0.1-0.3,0.4-0.5,0.5
					c-0.3,0.3-0.5,0.5-0.7,0.9c-0.1,0.1-0.2,0.2-0.1,0.3c-0.1,0-0.1,0.2-0.1,0.2c-0.1,0-0.1,0.3-0.1,0.3c0,0,0.1,0.1,0.1,0.2
					c0,0,0,0-0.1,0c0,0-0.1,0-0.1,0.1v0c0,0,0,0,0,0v0h0l0,0c0,0,0.1,0,0.1,0c0,0.1-0.1,0.2-0.1,0.4c-0.1,0,0,0.2,0,0.2
					c0,0,0.1,0.4,0.1,0.4c0,0.2,0.1,0.4,0.3,0.5c0.1,0.1,0.1,0.1,0.2,0.2c0.5,0.3,1.1,0.2,1.7,0.2c0.2,0,0.3,0,0.4,0
					c0.4,0,0.9,0,1.3,0c0.2,0,0.5,0,0.7,0c0.1,0,0.2,0,0.2-0.1c0.1,0,0.2,0,0.2,0c0.1,0,0.2,0,0.3-0.1c0.3,0,0.6,0,0.9-0.1
					c0.1,0,0.2-0.1,0.3-0.1c0.1,0,0.1,0,0.2,0c0.2,0,0.4-0.1,0.7-0.1c0.1,0,0.3,0,0.4,0c0.1,0,0.1,0,0.2-0.1c0.3,0,0.9-0.1,1.1,0.2
					c0.1,0.1,0.1,0.2,0.1,0.3c0,0-0.1,0.1-0.1,0.1c0.1,0,0,0.4,0.2,0.6v0.1c-0.1,0-0.1,0-0.1,0c0,0.2,0,0.5,0.1,0.6c0,0,0,0,0,0
					c0,0-0.1,0.1-0.1,0.1v0h0c0,0,0,0.1,0.1,0.1c0,0.1,0,0.2,0,0.3c0,0,0,0,0,0c0,0,0,0-0.1,0.1c0,0,0,0,0,0c0.1,0,0,0.1,0,0.2
					c0,0.1,0,0.1,0.1,0.2c-0.1,0,0,0.2,0,0.3c0,0,0,0-0.1,0.1c-0.1,0,0.1,0.1,0.1,0.1c0,0,0,0,0,0c0,0,0,0.1-0.1,0.1
					c-0.1,0,0,0.1,0.1,0.1c0,0,0,0.1-0.1,0.1c0,0.2,0.1,0.3,0.1,0.4c-0.1,0,0,0.2,0,0.2c0,0-0.1,0-0.1,0.1c0,0.1,0.1,0.1,0.1,0.2
					c-0.1,0,0,0.2-0.1,0.3v0.1c0.1,0,0.1,0.1,0.1,0.1c0,0,0,0.1-0.1,0.1c0.1,0,0,0.1,0,0.2c0,0.1,0,0.1,0,0.2c0,0.2,0,0.3,0.1,0.5
					c0,0-0.1,0-0.1,0.1c0,0.1,0.1,0.2,0,0.3c0,0.1,0,0.2,0,0.2c0,0,0,0,0,0.1c0,0,0.1,0,0.1,0v0.1c0,0-0.1,0-0.1,0.1
					c0,0,0,0.5,0.1,0.5v0c0,0-0.1,0-0.1,0.1c-0.1,0.3-0.4,0.6-0.7,0.8c0,0,0,0,0,0v0c0,0,0,0,0,0c-0.2,0-0.4,0.1-0.6,0.1
					c0,0.1-0.5,0.1-0.6,0.2c-0.1,0-0.2,0-0.3,0.1c-0.1,0-0.3,0-0.4,0c-0.1,0-0.1,0-0.2,0.1c-0.2,0-0.4,0-0.6,0.1
					c-0.2,0-0.4,0.1-0.5,0.1c-0.2,0-0.5,0-0.6,0.1c-0.3,0-0.9,0-1.1,0.1c-0.1,0-0.3,0-0.4,0c-0.2,0-0.4,0-0.6,0c0,0,0,0,0,0
					c0,0-0.5,0-0.5,0h-0.1c-0.1,0-0.3,0-0.4,0.1c-0.5,0-0.9,0.1-1.4,0.1c-0.2,0-0.4,0-0.6,0.1c-0.2,0-0.3,0-0.4,0h-0.3H115
					c0,0-0.2,0-0.3,0c-0.2,0-0.3,0-0.5,0v0c0,0-0.4,0.1-0.4,0.1c-0.1,0-0.3,0-0.4-0.1h0c0,0,0,0,0,0c-0.3,0.1-0.6,0-0.8,0.1h-0.3h0
					c0,0,0,0,0,0v0c-0.2,0-0.4,0-0.5,0c-0.1,0-0.1,0-0.2,0c-0.1,0-0.2,0.1-0.3,0.1c-0.4,0.2-0.8,0.4-1.1,0.6c0,0,0,0,0,0
					c-0.1,0-0.2,0.1-0.2,0.2c0,0.1-0.1,0.2-0.2,0.3c-0.1,0.2-0.4,0.6-0.3,0.8c-0.1,0-0.3,0.6-0.3,0.7c-0.1,0-0.1,0.2-0.1,0.3
					c-0.1,0,0,0.1,0,0.1h0v0c0,0-0.1,0.1-0.1,0.1c0,0.1,0.1,0.1,0.2,0.1v0.1c-0.1,0-0.1,0-0.2,0.1c0,0,0,0,0,0
					c0,0.1,0.1,0.1,0.1,0.1c0,0-0.1,0-0.1,0c0,0,0,0.1,0.1,0.1v0.1c0,0,0,0,0,0.1c-0.1,0,0.1,0.1,0.1,0.1v0h0c0,0.1,0,0-0.1,0.1
					c0,0.1,0,0.3,0.1,0.4v0.1c0,0,0,0-0.1,0c0,0,0,0,0,0c0.1,0.2,0.1,0.3,0.2,0.5v0c0,0,0,0.1,0,0.1c0,0,0.3,0.3,0.4,0.4
					c0.1,0.1,0.2,0.1,0.3,0.2c0.3,0.1,0.8,0.2,1.1,0.1c0.5-0.1,0.9-0.4,1.3-0.5c0.2-0.1,0.4-0.2,0.6-0.2c0.1,0,0.1,0,0.2,0
					c0.1-0.1,0.3-0.1,0.4-0.2c0.1,0,0.3,0,0.4-0.1c0.2-0.1,0.4-0.1,0.6-0.2c0.3-0.1,0.6-0.1,0.9-0.2c0.1,0,0.2-0.1,0.3-0.1
					c0.1,0,0.2,0,0.4-0.1c0.1,0,0.2,0,0.3-0.1c0.2-0.1,0.5-0.1,0.8-0.1c0.5-0.1,1-0.2,1.5-0.3c0.3,0,0.5-0.1,0.8-0.1
					c0.3,0,0.5-0.2,0.8-0.2c0.1,0,0.3,0,0.4,0c0.4-0.1,0.9-0.2,1.3-0.3c0.2,0,0.4,0,0.6-0.1c0.2,0,0.4-0.1,0.6-0.1
					c0.1,0,0.2,0,0.4,0c0.5-0.1,0.9-0.1,1.4-0.1c0.4,0,0.8-0.1,1.2-0.1c0.1,0,0.2,0,0.4,0c0.1,0,0.2,0,0.4,0c0.1,0,0.4,0,0.5,0
					c0.3,0,0.5,0,0.8,0c0.1,0,0.1,0,0.2,0c0.2,0,0.5,0,0.7,0c0.3,0,0.6,0,0.8,0c0.1,0,0.3,0,0.4,0c0.1,0,0.1,0,0.1,0.1h0
					c0,0,0-0.1,0.1-0.1c0.1,0,0.3,0,0.5,0h0.7c0.2,0,0.4,0.1,0.6,0c0,0.1,0.2,0.1,0.3,0.1c0.1,0,0.2,0,0.3,0c0.1,0,0.3,0.1,0.4,0.1
					c0.1,0,0.3,0,0.4,0c0.1,0,0.2,0.1,0.4,0.1c0.1,0,0.3,0,0.4,0c0.3,0,0.6,0.1,0.9,0.1c0.1,0,0.2,0,0.3,0c0.1,0,0.3,0,0.4,0.1
					c0.2,0,0.4,0,0.7,0c0.1,0,0.2,0.1,0.4,0.1h0.4c0.1,0,0.1,0,0.2,0c0.1,0,0.2,0,0.3,0c0.2,0,0.4,0.1,0.6,0.1c0.2,0,0.4,0,0.6,0
					c0.2,0,0.4,0.1,0.6,0.1c0.5,0,1,0,1.6,0.1c0.3,0,0.7,0.1,1,0.1c0.4,0,0.7,0,1.1,0c0.2,0,0.4,0.1,0.6,0c0.1,0,0.2-0.1,0.3-0.1
					c0.2-0.1,0.5-0.1,0.7-0.2c0.1-0.1,0.2-0.1,0.3-0.2c0.1-0.1,0.2-0.2,0.4-0.2c0-0.1,0.3-0.3,0.3-0.4c0-0.1,0.1-0.1,0.1-0.1
					c0-0.2,0.3-0.4,0.4-0.5c0,0,0,0-0.1-0.1c0-0.1,0.1-0.1,0.1-0.1c0-0.1,0.1-0.2,0.2-0.3c0,0,0,0,0,0c0-0.1,0.1-0.1,0.2-0.2
					c0,0,0,0,0,0c0-0.1,0-0.1,0-0.2v0c0.2,0,0.4-0.5,0.4-0.7c0,0,0.1-0.1,0.2-0.2c0.1,0,0.1-0.1,0.2-0.1c0-0.1,0-0.2,0.1-0.3
					c0-0.2,0-0.4,0.1-0.5c0.1-0.2,0.2-0.3,0.4-0.5c0-0.1,0.1-0.1,0.2-0.2c0,0,0-0.1,0-0.1c0.1,0,0.1-0.1,0.2-0.1
					c0-0.1,0-0.2,0.1-0.3c0-0.1,0-0.1,0-0.2c0,0,0,0,0-0.1h0c0-0.1-0.1-0.1-0.1-0.1c0,0,0-0.1,0-0.1c0-0.1-0.1-0.1-0.2-0.1
					c-0.1-0.1-0.4-0.1-0.6,0c-0.1,0-0.2,0.1-0.3,0.2c-0.1,0.1-0.3,0.1-0.4,0.2c-0.6,0.2-1.1,0.4-1.8,0.5c-0.1,0-0.1,0-0.2,0.1
					c-0.1,0-0.3,0.1-0.4,0.1v0c0,0,0,0,0,0v0c-0.1,0-0.3,0.1-0.4,0.1c-0.1,0-0.2,0-0.3,0c0,0.1-0.6,0.1-0.7,0.1c-0.1,0-0.3,0-0.4,0
					c-0.1,0-0.2,0-0.3,0c-0.1,0-0.1,0-0.2,0c0,0-0.4,0-0.4,0.1c-0.1,0-0.2,0-0.3,0c-0.2,0-0.4,0-0.7,0c-0.1,0-0.1,0-0.2,0
					c-0.2,0-0.5-0.1-0.7,0v0c-0.1,0-0.2,0-0.4,0c-0.6,0-1.1,0-1.6-0.1c-0.2,0-0.7-0.1-0.9-0.1c-0.1,0-0.5-0.1-0.6,0
					c-0.1,0-0.2,0-0.2-0.1c-0.1,0-0.8,0-0.8,0c-0.3,0-0.6,0-0.9,0c-0.5,0-0.9,0-1.4,0c-0.2,0-0.3,0-0.5,0c-0.2,0-0.7,0-0.8,0
					c-0.2,0-0.3,0.1-0.4,0h0c0,0,0,0-0.1,0.1c-0.1,0-0.2,0-0.3,0c-0.2,0-0.4,0-0.6-0.2c-0.1-0.1-0.1-0.2-0.1-0.3
					c-0.1-0.1-0.2-0.3-0.1-0.4c0,0-0.1-0.1-0.1-0.1v0c0,0,0,0,0,0c0,0,0.1,0,0.1-0.1c0,0,0,0,0,0c-0.1,0-0.2-0.3-0.2-0.3
					c0-0.1,0-0.1,0-0.2c0-0.1-0.2-0.3-0.1-0.4c0-0.1-0.1-0.1-0.1-0.1c0,0,0.1-0.1,0.1-0.2c0,0,0,0,0,0v0h-0.2c0-0.1,0.1-0.1,0.1-0.2
					v-0.1c-0.1,0-0.1-0.1-0.2-0.1c0,0,0,0,0,0h0c0,0,0.1-0.1,0.1-0.1c0,0,0,0,0,0h0c0-0.1-0.1-0.1-0.2-0.1c0-0.1,0.1-0.1,0.2-0.1v0
					c-0.1,0-0.1-0.1-0.1-0.2c-0.1,0,0-0.1,0.1-0.1h0v0c0,0,0-0.1-0.1-0.1c0,0,0-0.1,0-0.2c0,0-0.1,0-0.1,0v-0.1c0,0,0,0,0.1,0h0
					v-0.1c0,0-0.1-0.1-0.1-0.1c0,0,0,0,0,0c0,0,0.1-0.1,0.1-0.1c0,0,0,0,0,0c0,0-0.1,0-0.1-0.1v0c0,0,0,0,0,0h0c0,0,0-0.1,0.1-0.1
					c0-0.1,0-0.2,0.1-0.2v-0.1c-0.1,0-0.1-0.2-0.2-0.3c0,0,0,0,0,0c0-0.1,0.1-0.1,0.1-0.1c0-0.1,0-0.3-0.1-0.4h0c0,0,0-0.1,0.1-0.1
					c0-0.1-0.1-0.2,0.1-0.3v0c-0.1,0-0.1,0-0.2-0.1c0,0,0.1-0.1,0.1-0.2h0c0,0-0.1-0.1-0.1-0.1v-0.1c0,0,0.1,0,0.1-0.1
					c0,0,0,0,0-0.1c0,0-0.1,0-0.1-0.1h0v0c0,0,0.1-0.1,0.1-0.2c0,0-0.1,0-0.1-0.1h0v-0.1c0.1,0,0-0.2,0.1-0.3v0
					c-0.2,0,0-0.3-0.1-0.3c0-0.1,0-0.1,0.1-0.1h0v0c0,0-0.1-0.1-0.1-0.1c0,0,0-0.2-0.1-0.2c0-0.1,0.2-0.1,0.3-0.1v0c0,0,0,0-0.1,0h0
					c0,0,0,0,0,0c0-0.3,0.5-0.8,0.7-0.9c0.1-0.1,0.2-0.1,0.3-0.1v0h0c0.2,0,0.3-0.1,0.5-0.1c0,0,0-0.1,0.1-0.1c0.1,0,0.2,0,0.3,0
					c0.5-0.1,1-0.1,1.5-0.1c0.3,0,0.6,0,0.9,0c0.2,0,0.5,0,0.7,0c0.1,0,0.3-0.1,0.4-0.1c0.2,0,0.4-0.2,0.6-0.3
					c0.1,0,0.2-0.1,0.3-0.1c0.4-0.2,0.8-0.4,1.1-0.7c0.1-0.1,0.2-0.2,0.3-0.3c0.2-0.2,0.3-0.4,0.4-0.6c0.1-0.1,0.2-0.1,0.1-0.3
					c0.2,0,0.1-0.3,0.1-0.4c0,0,0,0,0,0h0c0-0.1,0.1-0.1,0.1-0.1h0c0,0-0.1-0.1-0.1-0.1c0-0.2,0.2-0.4,0.1-0.6c0,0,0.1-0.2,0-0.2
					v-0.1c0.1,0,0-0.2,0-0.2c0,0,0-0.1,0-0.1c0-0.1-0.1-0.2-0.2-0.3c-0.1-0.1-0.2-0.2-0.3-0.3c-0.1,0-0.1,0-0.2,0
					c-0.1,0-0.1,0-0.2,0c-0.1,0-0.3,0-0.4,0.1c-0.1,0-0.2,0-0.2,0.1h0c0,0,0,0-0.1,0c0,0,0,0,0,0c-0.2,0.1-0.5,0.1-0.7,0.2
					c-0.2,0.1-0.5,0.1-0.7,0.2v0c0,0,0,0,0,0c-0.1,0-0.2,0.1-0.4,0.1c-0.2,0.1-0.4,0.1-0.6,0.2c-0.1,0-0.1,0-0.2,0
					c-0.2,0-0.3,0-0.4,0.1c0,0,0,0,0,0c0,0-0.3,0.1-0.4,0.1c-0.2,0-0.4,0.1-0.6,0.1c0,0.1-0.1,0-0.2,0.1c-0.1,0-0.2,0-0.3,0.1
					c-0.2,0-0.4,0-0.6,0c-0.6,0-1.1,0-1.6-0.2v0c-0.2,0-0.2-0.2-0.3-0.3c0,0,0-0.1,0.1-0.1c0,0,0-0.1,0-0.1c0-0.2,0.1-0.3,0-0.5
					c0,0,0-0.1,0-0.1c0,0,0-0.1,0-0.1c0,0,0-0.1,0-0.1c0,0,0,0,0-0.1h-0.1c0,0,0.1-0.1,0.1-0.1c0,0,0,0,0,0c0,0-0.1-0.1-0.1-0.1
					c0,0,0.1,0,0.1-0.1h0c0-0.1,0-0.1-0.1-0.2v0c0,0,0.1,0,0.1,0c0-0.1-0.1-0.2,0.1-0.3v0c0,0,0,0,0,0c0,0-0.1,0-0.1,0c0,0,0,0,0,0
					c0,0,0-0.1,0-0.1c0,0,0-0.1-0.1-0.1c0,0,0,0,0,0c0,0,0.1-0.1,0.1-0.1c0,0,0,0,0,0c0,0,0,0-0.1-0.1h0c0,0,0.1-0.1,0.1-0.2
					c0,0,0,0,0,0v0c0,0-0.1,0-0.1-0.1c0,0,0,0,0,0c0,0,0.1-0.1,0.1-0.1c0.1,0-0.1-0.1-0.2-0.1v-0.1c0.1,0,0.1,0,0.2,0
					c0-0.1-0.1-0.2,0-0.3v0c0,0-0.1,0-0.1-0.1h0v-0.1c0,0,0.1,0,0.1-0.1h0v0c-0.2,0,0-0.3-0.2-0.3v0c0.1,0,0.1-0.1,0.1-0.2h0
					c0,0-0.1-0.1-0.1-0.1c0-0.2,0-0.3,0.1-0.5c0,0,0.1-0.1,0.1-0.2c0.2-0.2,0.5-0.5,0.7-0.6c0.3-0.1,0.7-0.2,1-0.3
					c0.3,0,0.5-0.1,0.8-0.1c0.1,0,0.2,0,0.3,0c0.2,0,0.4-0.1,0.7-0.1c0.5,0,0.9,0,1.4-0.1c0.2,0,0.4-0.1,0.6-0.1
					c0.2,0,0.4,0,0.5-0.1c0.1,0,0.1-0.1,0.2-0.1c0.3-0.1,0.6-0.2,0.9-0.4c0.1-0.1,0.2-0.2,0.2-0.3c0.3-0.3,0.4-0.3,0.4-0.8h0
					c0,0,0.1,0,0.1,0c0-0.1,0-0.1,0-0.2c0,0,0.1,0,0.1,0c0-0.1-0.1-0.1,0-0.1c0-0.1,0.1-0.2,0.1-0.4c0-0.2-0.2-0.7-0.5-0.8
					C137.2,5.4,137,5.4,136.8,5.4L136.8,5.4z"/>
			</g>
			<path class="st0" d="M77.4,7.6L77.4,7.6L77.4,7.6z"/>
			<g>
				<path class="st0" d="M74.4,9.6L74.4,9.6c-0.1,0-0.4,0.1-0.5,0.2c-0.1,0-0.2,0-0.3,0.1c-0.1,0-0.3,0-0.4,0.1c-0.1,0-0.1,0-0.2,0
					c-0.3,0-0.6,0.1-0.9,0.1h0c0,0,0,0,0,0v0c-0.1,0-0.2,0-0.3,0c-0.2,0-0.3,0-0.5,0c0,0,0,0,0,0c0,0-0.4,0-0.5,0
					c-0.2,0-0.4,0-0.5,0c-0.1,0-0.3,0-0.4,0c-0.1,0-0.2-0.1-0.3,0c0,0,0,0,0,0c0,0,0,0,0,0v0c0,0,0,0,0,0c0,0-0.1,0-0.1,0
					c-0.2,0-0.4,0-0.7,0c-0.2,0-0.5,0.1-0.7,0h0c0,0,0,0,0,0c0,0-0.2,0-0.2,0c-0.1,0-0.3,0-0.4,0c-0.4,0-0.7-0.3-1-0.3
					c-0.1,0-0.2,0-0.3,0c-0.2,0-0.5-0.1-0.7-0.1c-0.1,0-0.2,0-0.3,0c-0.1,0-0.2,0-0.3,0c-0.1,0-0.2,0-0.3,0c-0.2,0-0.5-0.1-0.7,0
					c-0.1,0-0.2,0-0.2,0v0c-0.1,0-0.2,0-0.3,0c-0.2,0-0.4,0-0.6,0.1c-0.1,0-0.4-0.1-0.5,0c-0.1,0-0.3,0-0.4,0c-0.1,0-0.2,0-0.2,0.1
					c-0.1,0-0.2,0-0.3,0c-0.1,0-0.2,0-0.3,0c-0.1,0-0.2,0-0.3,0.1c-0.1,0.1-0.1,0.3-0.2,0.4c-0.2,0.3-0.4,0.5-0.6,0.8
					c-0.1,0.1-0.1,0.2-0.2,0.4c0,0-0.1,0.1-0.1,0.1c0,0.1,0,0.2-0.1,0.2v0.1c0,0,0.1,0,0.1,0v0c-0.1,0-0.1,0.1-0.1,0.1v0
					c0,0,0,0,0,0c0.1,0,0.2,0.1,0.2,0.1c-0.1,0-0.2,0-0.2,0c0,0.1,0.1,0.1,0.1,0.2c0,0-0.1,0.1-0.1,0.1c0,0,0,0,0,0.1
					c0.1,0,0.1,0,0.2,0.1c0,0,0,0,0,0c-0.2,0.1-0.1,0.1-0.1,0.3V13h0c0,0,0.1,0.1,0.1,0.1c0-0.1-0.1,0-0.2,0.1
					c0.1,0,0.1,0.2,0.1,0.2c0,0.1,0.1,0.1,0.1,0.2c0,0,0.1,0.1,0.1,0.1c0.3,0.3,0.4,0.4,0.9,0.5c0.1,0,0.3,0,0.4,0.1
					c0-0.1,0.3,0,0.3,0c0.1,0,0.5-0.1,0.7-0.1c0.3-0.1,0.6-0.1,0.9-0.1c0.1,0,0.2-0.1,0.4-0.1c0.3,0,0.7,0,1.1,0c0,0,0,0.1,0,0.1
					c0.4,0,0.6,0.3,1.1,0.3c0,0,0,0,0,0.1c0,0-0.1,0-0.1,0c0,0.1,0,0.1,0,0.2c0,0,0,0-0.1,0c0,0.1,0.1,0.1,0.1,0.2h0v0
					c-0.1,0-0.1,0-0.2,0.1v0.1c0.1,0,0.1,0.1,0.1,0.2c0,0,0,0,0,0v0h-0.1c0,0.1,0.1,0.2,0.1,0.2c-0.2,0,0,0.3,0.1,0.4c0,0,0,0,0,0
					c0,0,0,0-0.1,0c0,0-0.1,0-0.1,0.1c0,0,0,0,0,0v0c0.1,0,0.1,0,0.2,0v0.1c0,0-0.1,0-0.1,0.1h0v0c0,0,0.1,0,0.1,0h0v0.2v0
					c0,0-0.1,0-0.1,0c0,0.1,0.1,0.1,0.1,0.1v0.1c-0.1,0-0.1,0.1-0.1,0.1c0,0,0.1,0.1,0.2,0.1c-0.1,0-0.1,0.1-0.2,0.1
					c0.1,0,0.1,0.1,0.1,0.1c0,0.1,0,0.1-0.1,0.2v0c0,0,0.1,0,0.1,0.1h0v0c0,0-0.1,0-0.1,0.1c0,0,0,0-0.1,0.1c0.1,0,0.1,0.1,0.2,0.1
					v0c0,0-0.1,0-0.1,0.1h0c0,0,0.2,0.1,0.2,0.2c-0.1,0-0.1,0-0.1,0.1v0c0,0,0,0,0,0c0,0,0.1,0,0.2,0.1h0v0c-0.1,0-0.1,0.1-0.1,0.1
					h0c0,0,0.1,0.1,0.1,0.2c0.1,0,0,0.1,0,0.1h0c0,0.1,0.2,0.1,0,0.3c0.1,0,0.2,0.1,0.2,0.2v0h-0.1c0,0,0,0,0,0.1
					c0,0.1-0.1,0.1-0.1,0.2h0c0,0.1,0.1,0.1,0,0.2h0c0,0.1,0.2,0.1,0.1,0.3v0c0.1,0,0.1,0.1,0.1,0.1h0c0,0,0,0,0,0
					c0,0.1,0,0.1,0,0.2h0l0,0c-0.1,0-0.1,0-0.1,0c0,0.1,0,0.1,0.1,0.1h0c0,0,0,0,0,0c-0.1,0-0.1,0.2,0,0.3c-0.1,0,0,0.2,0,0.2
					c0,0,0,0.1,0,0.1c-0.1,0,0.1,0.1,0.1,0.2h0v0c-0.1,0-0.1,0-0.2,0.1c0,0,0,0.1,0.1,0.2c0,0-0.1,0-0.1,0.1c0,0,0.1,0.1,0.1,0.2v0
					c0,0,0,0.2,0,0.3h0c0,0,0,0,0,0c0,0.1,0,0.2,0,0.2c0,0,0,0.1-0.1,0.1c-0.1,0.1-0.3,0.6-0.3,0.7c0,0,0,0,0,0
					c-0.1,0-0.2,0.2-0.2,0.2c-0.1,0.1-0.1,0.1-0.2,0.2c-0.1,0.1-0.1,0.2-0.2,0.3c-0.1,0.1-0.2,0.1-0.3,0.2c0,0-0.1,0-0.1,0
					c-0.2,0-1.1,0-1.2,0.1c0,0-0.1,0-0.1,0c0,0,0,0-0.1,0c-0.2,0-0.4,0.1-0.5,0.2c-0.2,0-0.4,0.1-0.5,0.1c-0.1,0-0.2,0.1-0.3,0.1
					c-0.1,0-0.2,0.1-0.3,0.1c-0.2,0.1-0.3,0.2-0.4,0.2v0c0,0,0,0,0,0c-0.1,0-0.1,0.1-0.1,0.1v0c0,0-0.1,0-0.1-0.1v0
					c-0.1,0-0.1,0.1-0.2,0.1c-0.7,0.3-1.2,0.8-1.9,1.1c0,0.2,0,0.4-0.1,0.6c0,0-0.1,0.1-0.1,0.1c0,0.1,0,0.1,0,0.2
					c0,0.1-0.1,0.1-0.1,0.2c0,0.1-0.1,0.2-0.1,0.3c-0.1,0.2-0.1,0.4-0.2,0.5c0,0,0,0.2-0.1,0.2c-0.1,0,0.1,0.1,0.1,0.1v0h0
					c0,0-0.1,0-0.1,0v0c0,0,0.2,0.1,0,0.2c0,0.1,0.1,0.1,0.1,0.2c0,0,0,0,0,0c0,0-0.1,0-0.1,0.1c-0.1,0,0.1,0.2,0.2,0.3h0
					c0,0.1,0,0.1,0,0.2c0,0,0,0.1,0.1,0.1c0,0.1,0.1,0.2,0.2,0.3c0.4,0.3,1.7,0,2.1-0.1c0.2,0,0.3-0.1,0.4-0.2c0.1,0,0.2,0,0.4-0.1
					c0.1-0.1,0.3-0.1,0.5-0.2c0.2-0.1,0.4-0.2,0.6-0.3c0.1,0,0.2,0,0.3-0.1c0.1,0,0.2-0.1,0.2-0.1c0.1,0,0.2,0,0.3,0
					c0.3-0.1,0.7-0.2,1.1-0.4c0,0,0.3,0,0.3,0c0.2,0,0.3,0,0.4-0.1c0.1,0,0.2-0.1,0.2-0.1c0.1,0,0.2,0,0.3-0.1
					c0.6-0.2,1.1-0.6,1.7-0.7c0.2-0.1,0.3-0.1,0.5-0.2c0.2-0.1,0.4-0.1,0.6-0.2c0.2-0.1,0.3-0.1,0.4-0.2c0.1,0,0.1,0,0.2,0
					c0.3-0.1,0.7-0.2,1-0.2c0.1,0,0.2,0,0.3,0c0.1,0,0.2-0.1,0.4-0.1c0.3-0.1,0.5-0.1,0.8-0.1c0.2,0,0.5-0.1,0.8-0.1
					c0.7-0.1,1.3-0.2,2-0.3c0.2,0,0.3,0,0.4-0.1c0.2-0.1,0.3-0.3,0.4-0.5c0.3-0.3,0.7-0.6,0.9-1c0,0,0.2-0.2,0.3-0.3v0h0
					c0,0,0,0-0.1-0.1c0,0,0,0,0-0.1c0,0,0.1-0.1,0.1-0.1c0-0.1-0.1-0.2,0.1-0.2v0c-0.1,0-0.1-0.2-0.1-0.3c0-0.1-0.1-0.1-0.1-0.1h0
					c0,0,0-0.1,0-0.1v0c-0.2,0-0.4-0.1-0.6-0.1c-0.2,0-0.4,0-0.7,0c-0.2,0-0.5-0.1-0.7-0.1c-1-0.1-2.1-0.1-3.1-0.3v0.1
					c-0.1,0-0.1,0-0.2-0.1c-0.1,0-0.3,0-0.4,0c-0.1,0-0.1,0-0.2-0.1c-0.2,0-0.4,0-0.5-0.2c-0.1-0.2,0-0.4-0.2-0.5
					c0-0.2-0.1-0.4,0-0.6c0,0-0.1-0.3-0.2-0.4c0-0.1,0.1-0.1,0.2-0.1v-0.1c-0.1,0-0.1,0-0.2-0.1v0h0c0-0.1,0.1,0,0.1-0.1
					c0,0,0-0.1-0.1-0.1c0-0.1-0.1,0-0.1,0c0-0.1,0-0.1,0.1-0.2c0-0.1-0.1-0.1-0.1-0.1c0-0.1,0-0.1,0-0.1c0.1,0,0-0.1,0-0.1
					c0,0,0-0.1,0-0.1c0-0.1,0.1,0,0.1-0.1v0c-0.2,0-0.1-0.2-0.1-0.3c0,0,0.1-0.1,0.1-0.2c0,0-0.1,0-0.1,0c0-0.1,0.1-0.1,0.2-0.2h0
					c0,0-0.1-0.1-0.1-0.1c0,0,0,0-0.1-0.1c0.1,0,0.1-0.1,0.2-0.1c0,0-0.1,0-0.1-0.1c0-0.1,0-0.1,0.1-0.2c0-0.1,0-0.1,0-0.2
					c0,0-0.1-0.1-0.1-0.1c0,0,0,0,0,0c0,0,0.1-0.1,0.1-0.1h0c0-0.1-0.1-0.1-0.1-0.3c0-0.1,0-0.1-0.1-0.2c0,0,0.1,0,0.1-0.1
					c0-0.1,0-0.2,0.1-0.2c0,0-0.1-0.1-0.1-0.1c0,0,0,0,0-0.1c0.1,0,0.1-0.1,0.1-0.2h0c0-0.1,0-0.1,0.1-0.1c0,0,0-0.1,0-0.1
					c0,0-0.1-0.1-0.1-0.1c0,0,0.1,0,0.1-0.1c0,0,0,0,0,0c-0.1,0-0.1-0.1-0.1-0.1c0,0,0.1-0.1,0.1-0.1c0,0,0-0.1,0-0.1c0,0,0,0,0,0
					c0.1,0,0.1-0.2,0.1-0.3h0c0-0.1,0-0.1,0-0.1c0,0,0,0,0-0.1c0,0,0.1,0,0.2-0.1v-0.1c-0.1,0-0.1-0.1-0.1-0.1c0,0,0.1,0,0.1-0.1h0
					c0,0,0-0.1-0.1-0.1c0-0.1,0.1-0.2,0-0.3v0c0.1,0,0.1-0.3,0.1-0.4c0,0-0.1-0.1-0.1-0.1c0,0,0.1-0.1,0.1-0.1c0,0,0,0,0,0
					c0,0-0.1-0.1-0.1-0.1c0-0.1,0.1-0.1,0.1-0.2c0,0-0.1,0-0.1,0v0c0,0,0-0.2,0-0.2h0c0,0,0.1,0,0.1-0.1c0.1,0,0.2-0.1,0.2-0.1
					c0.2-0.1,0.5-0.1,0.7-0.1c0.4-0.1,0.8,0,1.3,0c0.3,0,0.5,0,0.8,0c0.1,0,0.2,0,0.2,0c0.3,0,0.7-0.1,1-0.2c0.2,0,0.3-0.1,0.5-0.1
					c0.3-0.1,0.6-0.3,0.8-0.5c0.1-0.1,0.2-0.2,0.3-0.3c0.1-0.1,0.1-0.3,0.3-0.3v0c0,0-0.1,0-0.1-0.1c0-0.1,0.1-0.1,0.1-0.2
					c0-0.2,0-0.3,0.2-0.4c0-0.2,0.3-0.6,0.4-0.8c0.1,0,0.1-0.3,0.1-0.4c0,0,0.1-0.1,0.1-0.1h0c0-0.1,0-0.1-0.1-0.1h0v0
					c0,0,0.1-0.1,0.2-0.1v-0.1c0,0-0.1,0-0.1-0.1c0-0.1,0-0.1,0-0.2c-0.1-0.3-0.3-0.5-0.7-0.5C75,9.5,74.7,9.5,74.4,9.6"/>
				<path class="st0" d="M171.8,10.4C171.8,10.4,171.8,10.4,171.8,10.4L171.8,10.4c-0.1,0-0.1,0-0.1,0c-0.2,0-0.4,0-0.6,0.1
					c-0.1,0-0.2,0-0.2,0c-0.1,0-0.2,0-0.3,0.1c-0.2,0-0.3,0-0.5,0.1c-0.1,0-0.3,0-0.4,0.1v0c-0.1,0-0.4,0-0.5,0c-0.1,0-0.1,0-0.2,0
					c-0.2,0-0.3,0-0.4,0c0,0.1-0.5,0.1-0.6,0.1c-0.1,0-0.2,0-0.3,0c-0.2,0-0.5-0.1-0.7,0c-0.1,0-0.2,0-0.3-0.1v0h-0.5
					c-0.2,0-0.4,0-0.5-0.1c-0.1,0-0.3,0-0.4,0c-0.4,0-0.9-0.1-1.3-0.1c-0.1,0-0.2,0-0.4,0c0,0,0,0,0,0c0,0.1-0.2,0-0.2,0
					c-0.3,0-0.5-0.1-0.7-0.1c-0.3,0-0.5,0-0.8,0c-0.1,0-0.3,0-0.4,0c-0.7,0-1,0.1-1.5,0.4c-0.1,0-0.1,0.1-0.2,0.2v0.1
					c0,0-0.2,0.3-0.3,0.4c0,0-0.1,0.2-0.1,0.3v0c0,0,0.1,0,0.1,0.1h0c0,0.1-0.1,0.1-0.1,0.3c0,0-0.1,0-0.1,0.1h0c0,0,0,0,0,0
					c0,0.2-0.2,0.4-0.1,0.6c-0.1,0-0.1,0.3-0.1,0.3c0,0.1,0.1,0.1,0.1,0.2c0,0,0,0,0,0c0,0-0.1,0-0.1,0c0,0.1,0.1,0.1,0.1,0.3h0
					c0,0.1,0,0.1,0.1,0.1c0.2,0.2,0.5,0.3,0.8,0.3c0.1,0,0.3,0,0.4,0.1c0,0,0.1,0,0.2,0c0.6,0.1,1.2,0.1,1.8,0.1c0.1,0,0.2,0,0.3,0
					c0.3,0,0.7,0.1,1,0c0.1,0,0.2,0,0.3-0.1c0.3,0,0.6,0,0.9,0c0.2,0,0.5-0.1,0.7-0.1c0.3,0,0.5,0,0.8,0c0.1,0,0.2,0,0.3-0.1
					c0.2,0,0.5,0,0.7,0c0.4,0,0.7-0.1,1,0c0,0.2,0,0.3,0,0.5c0,0-0.1,0.2-0.1,0.3c0,0.2,0,0.4-0.1,0.5c-0.1,0.1-0.4,0.3-0.5,0.4
					c-0.3,0.2-0.5,0.5-0.8,0.7c-0.2,0.1-0.4,0.3-0.5,0.4c-0.1,0.1-0.4,0.3-0.5,0.4v0c0,0,0,0,0,0v0c-0.2,0-0.6,0.5-0.8,0.6
					c-0.1,0.1-0.2,0.1-0.3,0.2c-0.2,0.1-0.4,0.3-0.5,0.4c-0.4,0.4-1,0.6-1.5,0.9c-0.2,0.1-0.3,0.2-0.5,0.3c-0.1,0-0.2,0.1-0.3,0.1
					c-0.1,0-0.1,0.1-0.2,0.1c-0.1,0-0.2,0-0.3,0.1c-0.3,0.1-0.6,0.2-0.9,0.3c-0.1,0-0.1,0-0.2,0c-0.1,0-0.2,0-0.4,0.1v0
					c-0.1,0-0.1,0-0.1,0c0,0.1-0.3,0.1-0.4,0.1c-0.1,0-0.3,0.1-0.4,0.1c-0.4,0.1-0.7,0.2-1,0.5c-0.1,0.1-0.1,0.1-0.2,0.2
					c-0.1,0.2-0.3,0.3-0.3,0.5c0,0.1-0.2,0.4-0.2,0.5c-0.1,0.2,0,0.3-0.1,0.5c0,0.1,0,0.1-0.1,0.2c0,0,0,0.2-0.1,0.2
					c0,0,0,0.1,0,0.1c0,0.1,0,0.1-0.1,0.2c0,0.1,0,0.2,0,0.2c0,0.1,0,0.1-0.1,0.2c0,0.1,0,0.3-0.1,0.4c0,0.1-0.1,0.3-0.1,0.4
					c0,0,0.1,0.1,0.1,0.1h0c0,0,0,0-0.1,0c0,0,0,0,0,0.1c0,0,0,0,0,0c0,0,0,0.1,0.1,0.1c0,0,0,0,0,0h-0.1c0.1,0.1,0.2,0.3,0.2,0.4
					c0.1,0,0.4,0.2,0.6,0.3c0.4,0.2,1,0.2,1.4,0.1c0.3-0.1,0.5-0.2,0.8-0.3c0.1-0.1,0.3-0.2,0.4-0.3c0.1,0,0.1-0.1,0.2-0.1
					c0.1,0,0.1-0.1,0.2-0.2c0.1-0.1,0.2-0.1,0.3-0.1c0.1-0.1,0.2-0.2,0.3-0.2c0.2-0.1,0.4-0.2,0.7-0.3c0.2-0.1,0.3-0.2,0.5-0.3
					c0.1,0,0.1-0.1,0.2-0.1c0.1,0,0.1-0.1,0.2-0.1c0.1-0.1,0.3-0.2,0.4-0.2c0.1-0.1,0.3-0.2,0.4-0.3c0.1,0,0.1-0.1,0.1-0.1
					c0.3-0.2,0.6-0.4,0.8-0.6c0.1-0.1,0.2-0.1,0.3-0.2c0.3-0.3,1.1-1,1.4-0.3c0,0,0,0,0,0c0,0.1,0,0.7,0.1,0.7v0c0,0,0,0-0.1,0
					c0,0.1,0.1,0.1,0.1,0.1c0,0.1,0,0.1-0.1,0.1c0,0,0,0.1,0,0.2c0,0,0,0,0,0c-0.1,0,0,0.2,0.1,0.2c0,0,0,0,0,0c0,0-0.1,0-0.1,0.1
					c0,0,0,0,0,0h0c0,0.1,0.1,0.1,0.1,0.1c0,0-0.1,0-0.1,0.1c0,0.2,0,0.2,0,0.3c0,0,0.1,0.1,0.1,0.1v0.1c-0.1,0,0,0.4-0.1,0.4
					c0,0,0,0.1-0.1,0.1h0c0,0,0,0.1,0.1,0.1c0,0,0,0.1-0.1,0.1c0,0.1,0.1,0.1,0.1,0.2c0,0-0.1,0-0.1,0c0,0.1,0,0.1,0.1,0.1
					c0,0.1,0,0.3-0.1,0.4c0,0.1,0,0.2,0,0.3h0c0,0,0,0,0,0c0,0.1,0,0.2,0,0.2c0,0.2,0,0.4-0.1,0.6c0,0.1,0.1,0.2,0,0.3
					c0,0,0,0.1,0,0.2v0c-0.1,0,0,0.2,0,0.2c0,0,0,0,0,0c-0.1,0-0.1,0.4-0.1,0.4c0,0-0.1,0-0.1,0c0,0.1,0,0.3,0.1,0.5
					c0,0-0.1,0-0.1,0.1h0c0,0.1,0,0.2-0.1,0.3c0,0,0,0.1,0,0.1c0,0.1,0,0.1,0,0.2c-0.1,0-0.1,0.2,0,0.3c0,0-0.1,0-0.1,0.1v0.1
					c0.1,0,0,0.5,0,0.6c0,0,0,0,0,0c0,0.1,0,0.2,0,0.3c0,0.1,0,0.1-0.1,0.2c0,0.2,0,0.4-0.1,0.5c0,0,0,0.1,0,0.2
					c0,0.2,0,0.7-0.1,0.8c0,0.1,0,0.2,0,0.3c0,0,0,0.1,0,0.1c0,0.1,0,0.3,0,0.4c0,0,0.1,0.2,0,0.3c0,0,0,0,0,0v0
					c0.2,0.1,0,0.2,0.1,0.3c0,0-0.1,0.1-0.1,0.1v0.1h0c0,0,0.1,0,0.1,0v0h0v0c0,0-0.1,0.1-0.1,0.1c0,0.1,0.1,0.2,0,0.3
					c0,0.1,0.1,0.1,0.2,0.1v0c0,0,0,0.1,0,0.1c0,0,0.1,0.1,0.1,0.2c0.1,0.1,0.1,0.1,0.2,0.2c0.2,0.1,0.3,0.2,0.5,0.3
					c0.1,0,0.3,0,0.4,0.1c0.1,0,0.2,0,0.4,0.1c0.1,0,0.2,0,0.2,0c0.3,0,0.6,0.1,0.9,0c0.3-0.1,0.6-0.4,0.8-0.6
					c0.1,0,0.1-0.1,0.2-0.1c0.1-0.1,0.1-0.1,0.2-0.2c0,0,0.1-0.1,0.1-0.1c0.2-0.1,0.3-0.3,0.5-0.4c0.1-0.1,0.2-0.3,0.3-0.4
					c0-0.1,0.1,0,0.1-0.2c0,0,0,0,0,0c0.1,0,0.1-0.1,0.2-0.1c0,0,0-0.1,0-0.1c0-0.1,0-0.2,0-0.2c0-0.1,0.1-0.1,0.1-0.2
					c0-0.1,0-0.2,0-0.3h0v0c0.1,0,0-0.2,0-0.2v0c0.1,0,0.1,0,0.2,0c0-0.1-0.1-0.2-0.2-0.3c0,0,0.1,0,0.1,0h0c0-0.1-0.1-0.1,0-0.2
					c0.1,0,0-0.1-0.1-0.1c0,0,0-0.1,0.1-0.1c0,0,0,0,0,0c0,0-0.1-0.1-0.1-0.1c0-0.1,0.1-0.1,0.1-0.2c0,0,0,0,0,0
					c-0.1,0-0.1-0.4,0-0.4c0-0.1-0.1-0.1-0.1-0.2c0,0,0-0.1,0-0.1c0-0.1-0.1-0.1,0-0.2c0,0,0-0.1,0-0.2c0.1,0,0-0.2,0-0.2
					c0,0,0-0.1,0.1-0.1c0,0-0.1-0.1-0.2-0.1v-0.1c0,0,0.1,0,0.1-0.1c0-0.1,0-0.1-0.1-0.2c0,0,0,0,0,0c0,0,0.1-0.1,0.1-0.1
					c0,0-0.1-0.1-0.1-0.1c0,0,0-0.1,0.1-0.1c0,0,0-0.1,0-0.1c0,0,0.1-0.2-0.1-0.2v0c0,0,0,0,0,0c0,0,0.1,0,0.1-0.1
					c0-0.1,0-0.1-0.1-0.2c0-0.1,0-0.2,0-0.3c0,0,0,0,0,0c0,0-0.1,0-0.1,0h0c0-0.1,0.1-0.4,0.1-0.4v0c-0.1,0-0.1-0.2-0.1-0.2
					c0,0,0,0,0-0.1c-0.1,0,0-0.1,0.1-0.1c0,0,0,0,0,0h0c0,0-0.1-0.1-0.1-0.1c0-0.1,0-0.1-0.1-0.2c0,0,0-0.1,0.1-0.1v0
					c0,0-0.1-0.1-0.1-0.1c0,0,0,0,0,0v0c0,0,0.1,0,0.1,0c0-0.1-0.1-0.2,0-0.3V26c0,0,0,0-0.1,0h0v0c0,0,0.1-0.1,0.1-0.1v0l0,0
					c0,0-0.1,0-0.2-0.1v0h0v0c0.1,0,0.1,0,0.2-0.1c0-0.1-0.1-0.3-0.2-0.4c0-0.1,0-0.1,0-0.1c0,0,0-0.1,0-0.1c0-0.1,0-0.2,0-0.3h0
					c0-0.1,0.1-0.1,0.1-0.1v0c-0.2,0-0.1-0.4-0.1-0.5c0,0,0-0.1-0.1-0.1h0v0c0,0,0.1-0.1,0.1-0.1v-0.1c0,0-0.1,0-0.1-0.1
					c0,0,0,0,0,0c0,0,0.1-0.1,0.1-0.1c0-0.1,0-0.1-0.1-0.1c0-0.1,0-0.1,0.1-0.1c0.1,0,0-0.1-0.1-0.1c0-0.1,0-0.1,0.1-0.2
					c0,0,0,0,0,0c0,0-0.1-0.1-0.1-0.1c0-0.1-0.2-0.2,0-0.3c0-0.1,0-0.3-0.1-0.3h0c0-0.1,0-0.2,0.1-0.2c0,0-0.1,0-0.1,0v-0.1
					c0,0,0.1,0,0.1,0V22h0c0,0.1-0.1,0-0.1,0h0c0-0.1,0-0.1,0.1-0.1v0c0,0,0,0,0,0h0c0,0,0-0.1-0.1-0.1h0c0-0.1,0.1-0.1,0.2-0.1
					v-0.1c-0.1,0-0.1,0-0.2-0.1h0c0-0.1,0.1-0.1,0-0.3c0,0,0,0,0,0c0,0,0-0.1,0-0.1c0,0,0.1-0.3,0-0.4c0-0.1,0-0.1,0-0.2
					c0.1,0,0.1-0.3,0.1-0.3c0,0-0.1-0.1-0.1-0.1c0-0.1,0.1-0.1,0-0.2c0-0.2,0.1-0.3-0.1-0.5h0v0c0.1,0,0.1,0,0.1-0.1
					c0-0.1-0.1-0.1-0.1-0.2h0c0-0.1,0.1-0.1,0.1-0.1v0c-0.1,0-0.1-0.1-0.2-0.1c0-0.1,0.1-0.1,0.1-0.1v0h0v0c-0.1,0-0.1-0.1-0.1-0.1
					c0,0,0.1,0,0.1-0.1c0-0.1,0-0.1-0.1-0.1c0,0,0,0-0.1,0c0.1,0,0.1-0.2,0.1-0.2c0,0,0-0.1,0.1-0.1c-0.2,0,0.1-0.4,0.2-0.5
					c0,0-0.1,0-0.1-0.1c0,0,0,0,0-0.1c0.1,0,0.1-0.1,0.2-0.1V17c0,0,0,0,0.1,0c0,0,0.1-0.1,0.1-0.1c0-0.1,0.1-0.1,0.1-0.1
					c0-0.1,0.1-0.2,0.1-0.2c0.1-0.1,0.2-0.2,0.3-0.3c0.1-0.2,0.2-0.3,0.4-0.5c0.1-0.1,0.1-0.1,0.2-0.2c0.1-0.1,0.2-0.2,0.3-0.3
					c0.1-0.1,0.2-0.1,0.3-0.3c0,0,0-0.1,0.1-0.1c0.1-0.1,0.2-0.3,0.4-0.4c0.1-0.2,0.3-0.4,0.4-0.5c0-0.1,0.1-0.1,0.1-0.2
					c0.1-0.1,0.2-0.2,0.2-0.3c0.1-0.1,0.1-0.2,0.2-0.2c0-0.2,0.1-0.4,0.2-0.4c0-0.2,0-0.4,0.2-0.5v0h0c0,0-0.1-0.1-0.1-0.1h0v-0.1
					c0,0,0,0,0,0c0.1,0,0.1,0,0.2,0V12h0c0,0-0.1-0.1-0.1-0.1h0c0,0,0.1-0.1,0.1-0.2c0,0,0,0-0.1-0.1c0-0.1,0.1-0.2,0.1-0.3
					c0,0-0.1,0-0.1-0.1c0,0,0-0.1-0.1-0.2c0,0-0.1-0.2-0.1-0.3c0-0.2-0.2-0.3-0.3-0.3c-0.3-0.1-0.6-0.3-0.9-0.3
					C172.3,10.4,172,10.4,171.8,10.4L171.8,10.4z"/>
			</g>
			<path class="st0" d="M67,10.7L67,10.7L67,10.7z"/>
			<g>
				<path class="st0" d="M173.9,11C173.9,11.1,173.9,11.1,173.9,11L173.9,11C173.9,11.1,173.9,11.1,173.9,11L173.9,11z"/>
			</g>
			<path class="st0" d="M66.5,11.1L66.5,11.1L66.5,11.1z"/>
			<g>
				<path class="st0" d="M63.8,11.6C63.8,11.6,63.8,11.6,63.8,11.6C63.8,11.6,63.8,11.6,63.8,11.6L63.8,11.6z"/>
				<path class="st0" d="M59.4,12.6L59.4,12.6C59.4,12.7,59.4,12.7,59.4,12.6L59.4,12.6z"/>
			</g>
			<path class="st0" d="M63.9,14L63.9,14L63.9,14z"/>
			<g>
				<path class="st0" d="M86.3,15.2c-0.3,0-0.4,0.2-0.7,0.3c0,0.1-0.1,0.2-0.2,0.2c0,0.1,0,0.1,0.1,0.2h0c0,0-0.1,0-0.1,0.1
					c0,0,0,0,0,0v0c0.1,0,0.1,0,0.2,0v0.1c0,0-0.1,0-0.2,0.1c0,0.1,0,0.1,0.1,0.1c0,0,0,0,0,0c0,0.1-0.1,0.1-0.1,0.2
					c0,0,0.1,0.1,0.1,0.1v0.1c-0.1,0-0.1,0-0.2,0.1v0c0,0,0.1,0,0.1,0.1v0c0,0-0.1,0.1-0.1,0.1h0v0c0.1,0,0.1,0.1,0.2,0.1v0
					c-0.1,0-0.1,0-0.2,0.1c0,0.1,0.1,0.1,0.2,0.2v0c-0.1,0-0.1,0-0.2,0c0,0.1,0,0.2-0.1,0.3c0,0,0,0,0,0c0,0,0,0,0,0.1c0,0,0,0,0,0
					c-0.1,0-0.1,0.1-0.1,0.1c0,0,0,0.2,0.1,0.3v0c0,0-0.1,0.1-0.1,0.1c0,0,0,0.1-0.1,0.2c0,0.1,0.1,0.1,0.1,0.2
					c-0.1,0-0.1,0-0.2,0.1c0,0,0.1,0.1,0.1,0.2c0,0,0,0,0,0c0,0.1-0.1,0.2-0.1,0.4c0,0.1,0,0.1,0,0.2c0,0.1,0,0.2-0.1,0.3
					c0,0,0,0,0,0.1c0,0.2-0.1,0.4-0.2,0.6c0,0.3-0.2,0.4-0.3,0.6c-0.1,0.2-0.6,0.9-0.9,0.9c-0.1,0-0.2-0.1-0.2-0.1
					c-0.3-0.1-0.4-0.3-0.6-0.4c-0.3-0.2-0.6-0.5-0.9-0.8c-0.1-0.1-0.2-0.1-0.3-0.2c0,0-0.1-0.1-0.1-0.1h0c0,0,0,0,0-0.1
					c0.1,0-0.1-0.2-0.1-0.2c-0.1-0.1-0.2-0.2-0.3-0.3c-0.1-0.1-0.2-0.2-0.3-0.4c-0.1-0.1-0.2-0.1-0.3-0.3c-0.2-0.2-0.3-0.4-0.6-0.5
					c0-0.1-0.1-0.1-0.1-0.2c0-0.1-0.1-0.1-0.2-0.1c-0.3-0.2-0.4-0.1-0.8-0.1c-0.1,0-0.3,0-0.4,0c-0.1,0-0.3,0.1-0.4,0
					c-0.1,0-0.1,0-0.1,0c-0.4,0.2-0.7,0.6-1,0.9c0.1,0,0,0.2,0.1,0.3c0,0,0.1,0.1,0.1,0.1c0,0-0.1,0-0.1,0.1c0.1,0,0.1,0.1,0.1,0.2
					v0c0.1,0,0.2,0.3,0.3,0.3v0.1c0,0,0,0,0,0.1h0v0c0.3,0,0.2,0.5,0.5,0.5c0,0.1,0,0.1,0.1,0.2c0,0,0,0-0.1,0v0
					c0.1,0,0.4,0.4,0.5,0.5c0.1,0,0.1,0.1,0.2,0.1c0.2,0.2,0.2,0.5,0.5,0.6c0,0,0,0.1,0,0.1c0.1,0.1,0.3,0.3,0.4,0.4
					c0.1,0.1,0.2,0.2,0.3,0.3c0.1,0,0.2,0.1,0.2,0.1c0,0,0,0.1,0,0.1c0,0,0,0,0,0c0.1,0,0.1,0,0.2,0c0,0,0,0,0,0c0,0,0,0,0.1,0.1
					c0.1,0.1,0.1,0.1,0.2,0.2c0.3,0.2,0.5,0.4,0.8,0.7c0.1,0.1,0.2,0.1,0.3,0.2c0.1,0.1,0.1,0.2,0.2,0.3v0.1c0,0-0.1,0.1-0.1,0.1
					c0,0,0,0,0,0c0,0,0.1,0.1,0.2,0.2c0,0-0.1,0-0.1,0c0,0,0,0.1,0,0.1c0,0.5-0.6,0.5-0.9,0.9h0h0c-0.1,0-0.1,0.1-0.2,0.2
					c0,0,0,0,0,0c-0.2,0-0.5,0.4-0.6,0.5c-0.1,0.1-0.2,0.1-0.3,0.2c-0.1,0.1-0.2,0.2-0.3,0.2c-0.1,0.1-0.2,0.1-0.3,0.2
					c-0.2,0.1-0.3,0.3-0.5,0.4c-0.2,0.2-0.5,0.3-0.7,0.5c-0.1,0.1-0.2,0.2-0.2,0.2c-0.1,0-0.2,0.1-0.2,0.1c-0.1,0.1-0.2,0.2-0.3,0.2
					c-0.2,0.1-0.4,0.2-0.6,0.3c-0.2,0.1-0.4,0.3-0.6,0.4c-0.2,0.1-0.3,0.1-0.5,0.2c-0.1,0-0.2,0.1-0.3,0.1c-0.3,0.1-0.5,0.3-0.8,0.4
					c-0.1,0-0.1,0-0.2,0c-0.2,0.1-0.3,0.1-0.5,0.2c-0.2,0-0.3,0.1-0.4,0.1v0c0,0,0,0,0,0c-0.1,0-0.1,0-0.2,0.1c-0.1,0-0.2,0-0.2,0
					c-0.1,0-0.2,0-0.3,0c-0.2,0-0.5,0.1-0.7,0.1c0,0,0,0,0,0c0,0,0,0.1-0.1,0.1c-0.7,0-1.1,0.6-1.5,1.1c-0.1,0.1-0.2,0.3-0.2,0.4
					c0,0,0,0-0.1,0.1c0,0.1,0,0.3,0,0.4c0,0.1-0.1,0.1-0.1,0.1c0,0.1,0,0.2,0,0.2c0,0.1,0,0.1,0,0.2c0,0.2-0.1,0.4-0.2,0.5
					c0,0,0.1,0.1,0.2,0.1v0c0,0-0.1,0-0.1,0h-0.1c0,0,0,0,0,0c0,0.1,0,0.1,0,0.2v0c0,0-0.1,0.3-0.1,0.3c0,0,0,0.3,0.1,0.3
					c0,0,0,0,0,0c0,0-0.1,0-0.1,0.1c-0.1,0,0,0.1,0,0.1c0,0,0,0,0,0.1c0,0.1,0.7,0.5,0.8,0.4c0.2,0,0.3,0.1,0.5,0.1
					c0.1,0,0.2-0.1,0.3-0.1c0.1,0,0.2,0,0.3-0.1c0.1,0,0.1-0.1,0.1-0.1c0.1,0,0.2-0.1,0.3-0.1c0.3-0.2,0.7-0.3,1-0.5
					c0.2-0.1,0.4-0.2,0.5-0.3c0.1,0,0.2-0.1,0.3-0.1c0.2-0.1,0.4-0.2,0.5-0.3c0.1-0.1,0.3-0.1,0.4-0.2c0.1-0.1,0.2-0.1,0.3-0.2
					c0.1-0.1,0.3-0.1,0.4-0.2c0.1-0.1,0.2-0.1,0.4-0.1c0.1-0.1,0.3-0.1,0.4-0.2c0.2-0.1,0.4-0.2,0.7-0.4c0,0,0.1-0.1,0.1-0.1
					c0.3-0.2,0.6-0.3,0.8-0.4c0.1-0.1,0.2-0.1,0.3-0.2c0.1,0,0.1-0.1,0.2-0.1c0.1-0.1,0.1-0.1,0.2-0.2c0,0,0.1,0,0.2-0.1
					c0.1-0.1,0.2-0.1,0.3-0.2c0.1-0.1,0.2-0.1,0.3-0.1c0.2-0.1,0.3-0.2,0.5-0.3c0.1-0.1,0.2-0.1,0.3-0.2c0.1-0.1,0.2-0.1,0.4-0.2
					c0,0,0.1-0.1,0.1-0.1c0.1,0,0.1-0.1,0.2-0.1c0.1-0.1,0.1-0.1,0.2-0.2c0.1-0.1,0.2-0.1,0.3-0.2c0.2-0.1,0.4-0.3,0.6-0.4
					c0.3-0.2,0.6-0.5,1-0.7c0.1,0,0.1-0.1,0.2-0.1c0.1-0.1,0.1-0.2,0.2-0.3c0.1-0.1,0.2-0.2,0.2-0.2c0.1,0,0.1-0.1,0.2-0.1
					c0.1-0.2,0.4-0.5,0.6-0.5c0.1,0,0.2,0,0.2,0c0.3,0.2,0.6,0.5,0.9,0.8c0.2,0.2,0.4,0.3,0.5,0.4c0.1,0.1,0.1,0.1,0.2,0.2
					c0.2,0.2,0.4,0.3,0.5,0.5c0.2,0.2,0.3,0.4,0.6,0.4c0,0,0,0,0,0c0,0.2,0.3,0.3,0.3,0.4c0,0,0,0,0.1,0.1c0.2,0.1,0.3,0.3,0.5,0.5
					c0.1,0.1,0.2,0.1,0.2,0.2c0,0.1,0.1,0.1,0.1,0.2c0.1,0.1,0.1,0.1,0.2,0.2c0.1,0.1,0.1,0.2,0.2,0.3c0.1,0.1,0.1,0.1,0.2,0.2
					c0.1,0.1,0.2,0.3,0.3,0.4c0,0,0,0,0,0.1c0,0,0,0.1,0,0.1c0,0,0,0,0.1,0c0,0.2,0,0.1,0.1,0.3c0,0,0,0.1,0,0.1
					c0.1,0.1,0.1,0.2,0.2,0.2c0.1,0.2,0.2,0.4,0.4,0.6c0,0,0.1-0.1,0.1-0.1c0,0,0,0,0,0h0c0,0.1-0.1,0.1-0.1,0.1V34
					c0.1,0,0.3,0.3,0.4,0.3c0.4,0.2,0.9,0.3,1.3,0.2c0.2-0.1,0.4-0.1,0.6-0.2c0.2,0,0.6,0,0.7-0.1c0.4,0,0.9-0.1,1.3-0.2
					c0.3,0,0.6,0,0.8-0.1c0.1,0,0.3-0.1,0.4-0.1c0.4,0,0.7-0.1,1.1-0.1c0.2,0,0.3,0,0.4-0.1c0.3-0.1,0.5-0.3,0.8-0.4
					c0.2,0,0.3-0.1,0.4-0.2c0.1-0.1,0.2-0.1,0.3-0.2c0.1-0.1,0.2-0.1,0.4-0.2c0.1,0,0.1,0,0.2-0.1c0.2-0.2,0.5-0.3,0.7-0.6
					c0.1-0.2,0.2-0.3,0.3-0.5c0-0.1-0.1-0.1-0.1-0.1c0,0,0-0.1,0-0.1c0-0.1-0.1-0.3-0.3-0.3c-0.2,0-0.4,0-0.5-0.1H99
					c0,0-0.1,0-0.2,0c-0.1,0-0.2,0-0.2,0c0,0.1-0.2,0-0.2,0c-0.2-0.1-0.5,0-0.8,0c-0.2,0-0.5-0.1-0.7-0.1c-0.2,0-0.3-0.2-0.5-0.2
					c-0.1,0-0.1,0-0.2,0c0-0.1,0-0.1-0.1-0.1c-0.2-0.2-0.5-0.2-0.7-0.4c-0.2-0.1-0.4-0.2-0.5-0.3c-0.1,0-0.2-0.1-0.4-0.1
					c-0.1,0-0.2-0.1-0.3-0.1v0c0,0-0.1-0.1-0.2-0.1c-0.3-0.2-0.6-0.4-1-0.6c-0.1,0-0.2-0.1-0.3-0.1c-0.2-0.1-0.4-0.4-0.6-0.3
					c0-0.1-0.1-0.1-0.1-0.1c-0.1-0.1-0.2-0.1-0.3-0.1c-0.1-0.1-0.2-0.1-0.4-0.2c0,0-0.1-0.1-0.1-0.1c-0.1,0-0.2-0.1-0.3-0.1
					c-0.1-0.1-0.2-0.2-0.3-0.3c-0.2-0.1-0.4-0.2-0.5-0.3c0,0-0.1-0.1-0.1-0.1c-0.1,0-0.1-0.1-0.2-0.1c-0.3-0.2-0.6-0.4-0.9-0.6
					c-0.1-0.1-0.2-0.2-0.3-0.3c-0.2-0.1-0.4-0.3-0.6-0.4c-0.1-0.1-0.2-0.1-0.3-0.2c-0.1-0.1-0.3-0.2-0.4-0.4
					c-0.2-0.2-0.4-0.4-0.7-0.6c-0.2-0.2-0.4-0.3-0.5-0.6c0-0.1,0-0.1,0-0.2v-0.1c0,0-0.1-0.1-0.1-0.1c0,0,0.1-0.1,0.1-0.1
					c0,0,0-0.1-0.1-0.1c0-0.1,0.1-0.3,0.2-0.4c0.1-0.1,0.1-0.2,0.2-0.3c0.1-0.1,0.1-0.2,0.2-0.3c0-0.1,0-0.2,0.1-0.2
					c0-0.1,0.1-0.1,0.2-0.1c0-0.1,0-0.1-0.1-0.1c0.1,0,0.2-0.2,0.2-0.3c0,0,0.1,0,0.2-0.1v0c-0.1,0-0.1-0.1-0.1-0.1
					c0,0,0.1,0,0.1-0.1c0,0,0-0.1,0.1-0.2c0.2-0.3,0.3-0.6,0.5-0.9c0.1-0.2,0.2-0.8,0.5-0.9c0,0,0-0.1-0.1-0.1c0,0,0,0,0.1-0.1
					c0,0,0.1-0.1,0.1-0.1c0-0.1,0-0.2,0.1-0.3c0,0,0.1-0.1,0.1-0.1c0.1-0.1,0-0.2,0-0.3c0,0,0.1,0,0.1,0c0-0.1,0.1-0.3,0.2-0.4
					c0,0,0-0.1,0-0.1c0-0.1,0.2-0.3,0.2-0.4c0-0.1,0-0.1,0-0.2c0-0.1,0.1-0.1,0.2-0.1c0,0,0-0.1-0.1-0.1v0c-0.1,0,0-0.1,0.1-0.1h0
					c0,0-0.1-0.1-0.1-0.1c0,0,0-0.1,0-0.1c-0.1,0-0.1-0.1-0.2-0.1c0-0.1-0.1-0.2-0.1-0.2c-0.1-0.2-0.3-0.5-0.5-0.7
					c-0.2-0.1-0.4-0.1-0.6-0.2c-0.2-0.1-0.4-0.1-0.6-0.2c-0.1-0.1-0.2-0.1-0.3-0.2c-0.2,0-0.3-0.1-0.5-0.1
					C86.7,15.2,86.5,15.2,86.3,15.2C86.3,15.2,86.3,15.2,86.3,15.2"/>
				<path class="st0" d="M173.5,16.3C173.5,16.3,173.5,16.3,173.5,16.3L173.5,16.3c-0.1,0.1-0.2,0-0.3,0.1c-0.1,0-0.2,0-0.3,0
					c-0.1,0-0.4,0-0.5,0.1c-0.1,0.1-0.3,0.2-0.4,0.2c0,0,0,0,0,0c-0.2,0-1.4,0.7-1.4,0.9c0,0,0,0,0,0c0,0.1-0.1,0-0.1,0.1v0.1
					c0.1,0,0.9,0.9,0.9,1.1c0,0,0,0.1,0,0.2h0c0,0,0.1,0,0.1,0V19c0,0,0,0-0.1,0.1c0,0,0.2,0.4,0.2,0.5c0,0,0.1,0,0.1,0.1
					c0,0,0,0,0,0.1c0,0.3,0,0.5,0.3,0.7c0,0,0,0,0,0h-0.1c0,0,0,0,0.1,0.1c0,0,0,0,0,0.1c0,0.2,0.1,0.7,0,0.8c0,0.1,0,0.1,0.1,0.2
					c0,0.1,0.1,0.5,0,0.6c0,0.1,0.1,0.1,0,0.2c0,0,0.1,0.4,0.1,0.4c0,0,0,0,0,0c0,0-0.1,0-0.1,0.1h0c0,0.1,0.1,0.1,0.1,0.1h0
					c0,0,0,0,0,0c0,0,0,0.1,0,0.1c0,0.1,0.2,0.3,0.3,0.3c0.1,0.1,0.1,0.1,0.2,0.2c0.2,0.1,0.6,0.1,0.8,0.1c0,0,0.1-0.1,0.1-0.1
					c0.1,0,0.2-0.1,0.3-0.1c0.2-0.1,0.5-0.2,0.7-0.3c0.2-0.1,0.5-0.3,0.8-0.4c0,0,0-0.1,0-0.1c0.1-0.1,0.2-0.1,0.4-0.2
					c0.1-0.1,0.2-0.1,0.3-0.2c0,0,0,0,0-0.1c0.1,0,0.2-0.1,0.2-0.1c0.1-0.2,0.2-0.3,0.4-0.5c0-0.1,0-0.2,0.1-0.3v-0.1
					c0,0,0,0-0.1-0.1c0,0,0,0,0,0c0,0,0.1,0,0.1-0.1c0-0.1,0-0.3-0.1-0.3v0c-0.1,0,0.1-0.1,0.1-0.1v-0.1c-0.1,0-0.1,0-0.2,0v0
					c0,0,0-0.1,0-0.2c0,0-0.1,0-0.1-0.1h0v0c0.1,0-0.1-0.4-0.1-0.4c0-0.1,0.1-0.1,0.1-0.2c0-0.1-0.1-0.1-0.1-0.1
					c0,0-0.1-0.3-0.1-0.4c0,0,0,0,0,0.1h0c0-0.1,0-0.1,0-0.2c0,0-0.2-0.1-0.2-0.1c0-0.1,0.1-0.2,0.1-0.3c0-0.1-0.1-0.1-0.1-0.2
					c0-0.1-0.1-0.2-0.1-0.2c0,0,0.1,0,0.1-0.1c0,0,0,0,0,0c0,0-0.1-0.1-0.1-0.1c0,0,0-0.2,0-0.3c0,0,0-0.1,0.1-0.1c0,0,0,0,0,0
					c-0.1-0.1-0.1-0.2-0.2-0.3c0,0-0.1-0.1-0.1-0.1c0-0.1-0.1-0.2-0.1-0.3c-0.2-0.4-0.6-0.6-1-0.8c-0.1,0-0.5-0.2-0.6-0.1
					c-0.2,0-0.4,0-0.5-0.1C173.7,16.3,173.6,16.3,173.5,16.3"/>
				<path class="st0" d="M84.8,20.6C84.8,20.6,84.8,20.6,84.8,20.6C84.8,20.6,84.8,20.6,84.8,20.6C84.8,20.6,84.8,20.6,84.8,20.6"/>
				<path class="st0" d="M133.6,20.9c-0.2,0.1-0.4,0.2-0.6,0.2c-0.1,0-0.1,0-0.2,0c0,0,0,0,0,0v0c-0.1,0-0.1,0-0.1,0.1h-0.1
					c0,0,0,0,0,0c0,0.1-0.1,0.1-0.1,0.1c-0.4,0.1-0.7,0.4-0.8,0.8c0,0.1,0,0.2-0.1,0.3c0,0,0,0.1-0.1,0.1c0,0,0,0.2,0,0.2
					c-0.1,0,0,0.1,0,0.1c0,0,0,0.1-0.1,0.1c0.1,0,0,0.2,0,0.2c0,0.1,0,0.1,0.1,0.2c0,0.1,0,0.3,0.1,0.4c0,0,0,0,0,0c0,0,0,0.1,0,0.1
					h0v0h0.1c0,0,0.2,0.2,0.2,0.2c0.1,0,0.1,0.1,0.2,0.1c0.1,0.1,0.2,0.2,0.2,0.2c0.1,0.1,0.2,0.1,0.3,0.2c0.3,0.2,0.6,0.5,1,0.7
					c0.1,0,0.1,0.1,0.2,0.1c0.1,0.1,0.2,0.2,0.3,0.3c0.2,0.1,0.3,0.2,0.5,0.3c0.1,0,0.2,0.1,0.3,0.1c0.1,0.1,0.3,0.2,0.4,0.2
					c0.1,0,0.1,0,0.2,0c0.2,0,0.3,0.1,0.5,0.2c0.3,0,1.1,0.2,1.3,0c0.1-0.1,0.2-0.3,0.3-0.4c0-0.1,0-0.1,0-0.2
					c0-0.1,0.1-0.1,0.1-0.2c0,0,0,0,0,0c0,0,0,0,0.1-0.1c0,0,0,0,0,0c-0.1,0-0.1-0.4-0.1-0.5c0,0,0-0.1-0.1-0.1V25h0c0,0,0,0,0,0.1
					v0c0,0,0-0.1,0.1-0.1c0,0-0.1,0-0.1,0c0-0.2-0.1-0.4-0.1-0.5c0-0.1-0.2-0.3-0.1-0.3c0,0,0,0,0-0.1c0-0.1,0-0.1,0-0.2
					c-0.1,0-0.2-0.5-0.3-0.6c0,0,0.1,0,0.1-0.1h0l0,0c-0.2,0-0.2-0.4-0.2-0.5c-0.1-0.2-0.3-0.5-0.5-0.6V22c0,0,0,0,0.1-0.1h0v0
					c0,0,0,0,0,0c-0.3-0.2-0.5-0.4-0.7-0.6c-0.1,0-0.2-0.1-0.2-0.1c-0.1-0.1-0.3-0.2-0.5-0.2c-0.3-0.1-0.6-0.1-0.9-0.2
					C133.9,20.9,133.7,20.9,133.6,20.9"/>
				<path class="st0" d="M79.5,21.5c0,0-0.1,0.1,0,0.1C79.5,21.6,79.5,21.5,79.5,21.5"/>
				<path class="st0" d="M173.4,23.6L173.4,23.6C173.5,23.7,173.5,23.7,173.4,23.6L173.4,23.6z"/>
				<path class="st0" d="M160.1,24.8c0,0.1,0,0.1,0,0.2c0,0,0.1,0.1,0.1,0.1c0,0,0.2-0.1,0.1-0.1c0-0.1,0-0.1,0-0.2
					C160.2,24.8,160.2,24.8,160.1,24.8"/>
				<path class="st0" d="M58.1,26.6L58.1,26.6C58.1,26.6,58.2,26.6,58.1,26.6L58.1,26.6z"/>
			</g>
			<path class="st0" d="M90.2,27.9L90.2,27.9L90.2,27.9z"/>
			<path class="st0" d="M57.5,28.9L57.5,28.9L57.5,28.9z"/>
			<path class="st0" d="M145.8,31.7L145.8,31.7L145.8,31.7z"/>
			<path class="st0" d="M109,32.3L109,32.3L109,32.3z"/>
			<g>
				<path class="st0" d="M89,32.6C89,32.7,89.1,32.8,89,32.6L89,32.6L89,32.6z"/>
			</g>
			<path class="st0" d="M69.5,33L69.5,33L69.5,33z"/>
		</g>
	</g>
</g>
</svg>
