<?xml version="1.0" encoding="utf-8"?>
<!-- Generator: Adobe Illustrator 26.5.3, SVG Export Plug-In . SVG Version: 6.00 Build 0)  -->
<svg version="1.1" id="レイヤー_1" xmlns="http://www.w3.org/2000/svg" xmlns:xlink="http://www.w3.org/1999/xlink" x="0px"
	 y="0px" viewBox="0 0 483.8 483.8" style="enable-background:new 0 0 483.8 483.8;" xml:space="preserve">
<style type="text/css">
	.st0{fill:none;stroke:#2F548E;stroke-width:2;stroke-linecap:round;stroke-linejoin:round;stroke-miterlimit:10;}
	.st1{fill:none;stroke:#2F548E;stroke-width:2;stroke-miterlimit:10;}
	.st2{fill:#9AC1E6;}
	.st3{fill:#2F548E;}
	.st4{fill:#FFFFFF;stroke:#2F548E;stroke-width:2;stroke-miterlimit:10;}
	.st5{fill:#2F548E;stroke:#2F548E;stroke-width:2;stroke-miterlimit:10;}
	.st6{fill:none;}
</style>
<g>
	<g>
		<g>
			<circle class="st0" cx="241.9" cy="241.9" r="123.1"/>
			<circle class="st0" cx="241.9" cy="241.9" r="108.7"/>
		</g>
		<line class="st1" x1="113.3" y1="188.6" x2="370.6" y2="295.2"/>
		<line class="st1" x1="113.3" y1="295.2" x2="370.6" y2="188.6"/>
		<line class="st1" x1="188.6" y1="370.6" x2="295.2" y2="113.3"/>
		<line class="st1" x1="295.2" y1="370.6" x2="188.6" y2="113.3"/>
		<g>
			<g>
				<polygon class="st2" points="254.4,254.4 241.9,241.9 116.7,367.2 				"/>
				<polygon class="st3" points="116.7,367.2 241.9,241.9 229.4,229.4 				"/>
			</g>
			<g>
				<polygon class="st4" points="229.4,229.4 241.9,241.9 367.2,116.7 				"/>
				<polygon class="st3" points="367.2,116.7 241.9,241.9 254.4,254.4 				"/>
				<g>
					<polygon class="st4" points="254.4,254.4 241.9,241.9 116.7,367.2 					"/>
					<polygon class="st5" points="116.7,367.2 241.9,241.9 229.4,229.4 					"/>
				</g>
				<polygon class="st3" points="367.2,116.7 241.9,241.9 254.4,254.4 				"/>
			</g>
		</g>
		<g>
			<g>
				<polygon class="st2" points="254.4,229.4 241.9,241.9 367.2,367.2 				"/>
				<polygon class="st3" points="367.2,367.2 241.9,241.9 229.4,254.4 				"/>
			</g>
			<g>
				<polygon class="st4" points="229.4,254.4 241.9,241.9 116.7,116.7 				"/>
				<polygon class="st3" points="116.7,116.7 241.9,241.9 254.4,229.4 				"/>
				<g>
					<polygon class="st4" points="254.4,229.4 241.9,241.9 367.2,367.2 					"/>
					<polygon class="st3" points="367.2,367.2 241.9,241.9 229.4,254.4 					"/>
				</g>
				<polygon class="st3" points="116.7,116.7 241.9,241.9 254.4,229.4 				"/>
			</g>
		</g>
		<g>
			<g>
				<polygon class="st2" points="217.7,241.9 241.9,241.9 241.9,0.1 				"/>
				<polygon class="st3" points="241.9,0.1 241.9,241.9 266.1,241.9 				"/>
			</g>
			<g>
				<polygon class="st4" points="266.1,241.9 241.9,241.9 241.9,483.7 				"/>
				<polygon class="st3" points="241.9,483.7 241.9,241.9 217.7,241.9 				"/>
				<g>
					<polygon class="st4" points="217.7,241.9 241.9,241.9 241.9,0.1 					"/>
					<polygon class="st3" points="241.9,0.1 241.9,241.9 263.9,219.9 					"/>
				</g>
				<polygon class="st5" points="241.9,483.7 241.9,241.9 217.7,241.9 				"/>
			</g>
		</g>
		<g>
			<g>
				<polygon class="st2" points="219.9,263.9 241.9,241.9 0.1,241.9 				"/>
				<polygon class="st3" points="0.1,241.9 241.9,241.9 219.9,219.9 				"/>
			</g>
			<g>
				<polygon class="st4" points="263.9,219.9 241.9,241.9 483.7,241.9 				"/>
				<polygon class="st3" points="483.7,241.9 241.9,241.9 263.9,263.9 				"/>
				<g>
					<polygon class="st4" points="219.9,263.9 241.9,241.9 0.1,241.9 					"/>
					<polygon class="st3" points="0.1,241.9 241.9,241.9 219.9,219.9 					"/>
				</g>
				<polygon class="st3" points="483.7,241.9 241.9,241.9 263.9,263.9 				"/>
			</g>
		</g>
		<polygon class="st6" points="263.9,263.9 483.7,241.9 266.1,241.9 266.1,241.9 241.9,241.9 217.7,241.9 217.7,241.9 0.1,241.9 
			219.9,263.9 241.9,483.7 		"/>
		<polygon class="st6" points="483.7,241.9 263.9,219.9 241.9,0.1 219.9,219.9 0.1,241.9 217.7,241.9 241.9,241.9 266.1,241.9 
			266.1,241.9 		"/>
	</g>
</g>
</svg>
