<?xml version="1.0" encoding="utf-8"?>
<!-- Generator: Adobe Illustrator 26.5.3, SVG Export Plug-In . SVG Version: 6.00 Build 0)  -->
<svg version="1.1" id="レイヤー_1" xmlns="http://www.w3.org/2000/svg" xmlns:xlink="http://www.w3.org/1999/xlink" x="0px"
	 y="0px" viewBox="0 0 498.5 124.5" style="enable-background:new 0 0 498.5 124.5;" xml:space="preserve">
<style type="text/css">
	.st0{fill:#211918;stroke:#251F1C;stroke-width:0.5669;stroke-linecap:round;stroke-linejoin:round;stroke-miterlimit:10;}
	.st1{fill:#2F548E;}
</style>
<g>
	<path class="st0" d="M19.8,124.1c-0.9,0-1.6-0.7-1.6-1.8c0-0.6,0.1-4,0.2-5.3c0.1-1.6,0.4-9.6,0.4-11.4v-5.4
		C15,107.5,9.3,112.8,0.7,117l-0.4-0.6c8.4-6.1,12.5-11.5,16.2-19.1h-3.9c-1.2,0-3.7,0.1-5,1.1c-1.3-0.4-3-1.5-3.8-3.6
		c2.5,0.5,4.6,0.5,6.9,0.5h8.2c0-0.3-0.1-2.3-0.2-4c-0.1-1.5-0.4-3-0.9-4.3c1.4,0.4,3.9,1.3,5.3,1.8c0.7,0.2,0.9,0.5,0.9,0.9
		c0,0.7-0.9,1.5-1.8,2.2c-0.1,1.4-0.2,2.5-0.2,3.4h7.2l1.7-1.6c0.2-0.2,0.4-0.4,0.7-0.4s0.4,0.1,0.8,0.4c1,0.9,2.1,1.8,3.1,2.7
		c0.2,0.2,0.3,0.4,0.3,0.5c0,0.2-0.3,0.4-0.5,0.4H22.1v3c5,1.7,9.5,4.1,9.5,6.7c0,1.6-0.9,2.7-1.8,2.7c-0.8,0-1.5-0.9-2.2-2.3
		c-0.7-1.4-2.8-4.5-5.5-6.2v4.3c0,1.8,0.1,8,0.2,9.1c0.1,0.9,0.2,5.5,0.2,6.3C22.5,122.6,20.9,124.1,19.8,124.1z M5.5,86.9
		c-1.3-0.4-3-1.5-3.8-3.6c2.5,0.5,4.6,0.5,6.9,0.5h13.5c2.2-3.8,3.4-6.6,4-9.1c0.3-1.2,0.5-2.5,0.5-3.3c0-0.4,0-0.7-0.1-1
		c1.8,0.9,3.4,1.8,5,2.8c0.4,0.2,0.7,0.4,0.7,0.8c0,0.4-1.2,1.2-2.3,1.4c-1.4,2.6-4.1,5.9-6.5,8.4h8l1.7-1.6
		c0.3-0.3,0.4-0.4,0.7-0.4c0.2,0,0.4,0.1,0.8,0.4c1,0.9,2,1.8,2.8,2.6c0.3,0.3,0.4,0.4,0.4,0.6c0,0.2-0.2,0.4-0.4,0.4H10.4
		C9.2,85.8,6.7,85.9,5.5,86.9z M8.8,70.9c-1.3-0.4-3-1.5-3.8-3.6c2.5,0.5,4.6,0.5,6.9,0.5H19v-2.6c0-3.6-0.3-5.1-1.2-7.7
		c2.8,0.8,5.2,1.6,6.3,2.1c0.4,0.2,0.6,0.4,0.6,0.7c0,0.5-0.8,1.3-1.8,1.9c-0.1,0.7-0.1,1.8-0.1,2.6v3.1h6.9l1.6-1.6
		c0.1-0.1,0.4-0.4,0.7-0.4c0.2,0,0.6,0.2,0.9,0.4c1,0.8,2,1.6,3,2.6c0.3,0.3,0.4,0.4,0.4,0.6c0,0.3-0.3,0.4-0.5,0.4H13.8
		C12.5,69.8,10.1,69.9,8.8,70.9z M11.2,71.5l0.6-0.4c3.2,2.8,6.1,5.2,6.1,8.2c0,1.8-1.4,3.1-2.6,3.1c-0.9,0-1.5-0.9-1.7-2.9
		C13.4,77.2,13.1,75,11.2,71.5z M54,124c-1,0-1.8-0.9-1.8-2.3c0-2.4,0.2-8.9,0.4-13.3c0.2-7.1,0.4-19.1,0.4-23.9h-9.3
		c-0.2,5.5-0.6,11-1.1,14.5c-1.3,8.8-6.6,18.5-16.1,23.4l-0.5-0.7c7.4-5.9,11.4-13.4,12.8-22.3c0.9-5.8,1.2-15.5,1.2-21.7
		c0-2.3,0-3-0.1-5.1c-0.1-3-0.4-4.2-1.1-6c2.1,0.8,4.2,1.6,6.1,2.4c0.5,0.2,0.8,0.5,0.8,0.8c0,0.2-0.1,0.4-0.4,0.7
		c3.1-1.2,6.6-2.9,9.4-4.7c2.1-1.3,4.4-2.9,5.3-4.5c1.7,1.3,3.7,2.9,4.8,4c0.2,0.2,0.3,0.4,0.3,0.6c0,0.5-1.1,0.8-2.1,0.8
		c-0.5,0-1-0.1-1.4-0.1C55.9,69,50.4,70.9,44,72c-0.1,3.4-0.1,6.8-0.3,10.5h15.8l2.4-2.3c0.2-0.2,0.4-0.4,0.7-0.4s0.4,0.1,0.9,0.5
		c1.2,1,2.7,2.3,3.7,3.2c0.2,0.2,0.4,0.4,0.4,0.6s-0.3,0.4-0.7,0.4H56.6c0,5.9,0.1,17.2,0.4,23.8c0.1,4.5,0.3,8.9,0.3,11.6
		C57.2,122.1,55.3,124,54,124z"/>
	<path class="st0" d="M97.6,119.3c-0.9,0-2.7-1.8-2.7-3.6c0-0.9,0.7-2,2.2-4.7c4.1-6.9,9.5-22.4,11.8-29.7c-1.1,0.3-2.2,0.5-3.2,0.7
		c-1,0.1-1.8,0.2-2.6,0.2c-3,0-4.6-0.6-6.3-2.8C96.1,78.4,95,76.7,95,76c0-0.4,0.2-0.6,0.4-0.7c1,1.1,3.6,2.9,5.9,2.9
		c2.4,0,6-0.5,8.8-1.2c1.2-4.4,2.9-10.6,2.9-12.6c0-2.6-1.2-3.6-2.6-4.7c0.1-0.4,0.4-0.7,0.8-0.7c0.5,0,2.3,1.1,3.6,2.1
		c1.8,1.4,3.1,2.6,3.1,3.7c0,0.8-0.4,1.4-0.8,2c-0.5,0.7-2.3,5.3-3.5,9.1c1.3-0.5,2.3-1,3.4-1.6c1.2-0.7,2.6-1.1,3.5-1.1
		c2,0,3.4,1.1,3.4,1.8c0,0.9-0.4,1.2-1.3,1.7c-1.8,1.1-5.4,2.7-10.2,3.9c-3.1,10.9-10.1,29.8-11.5,33.7
		C99.9,117,98.9,119.3,97.6,119.3z M121.8,91c0-0.1,0-0.3,0.1-0.4c3.6-3.7,8.5-6.1,14.1-6.1c5.9,0,7.9,3,7.9,3.9
		c0,1.3-1,2.2-2.6,2.3c-4.3,0.2-9.3,2-12.3,4.1l-0.5-0.4c2.1-2.3,5.8-4.6,8.4-5.8c-1.2-0.6-2.5-0.9-3.9-0.9c-3.8,0-8,1.8-11,3.9
		C121.8,91.3,121.8,91.2,121.8,91z M125,100.5c-0.2,0.5-0.6,1.5-0.6,2.8c0,1.7,0.5,3.6,2.6,5.8c2,2,5,3.1,8.5,3.1
		c0.6,0,1.1,0,1.9-0.1c0.9-0.1,1.8-0.1,2.3-0.1c2.1,0,4.6,1.9,4.6,3.1c0,1.2-1.6,1.7-6.6,1.7c-7.5,0-15.1-3.9-15.1-11.7
		c0-1.8,0.7-3.4,1.8-5L125,100.5z"/>
	<path class="st0" d="M184.3,99.3c-1.2,0-1.8-2.1-1.8-3.4c0-1.4,0.7-2.8,1.7-3.8c2.8-3.1,6.5-9.5,8.3-13.7c-1.4,0.4-2.5,0.8-3.1,1
		c-1.7,0.6-3.9,1.4-5.3,1.4c-1.6,0-3.4-1.2-4.6-2.3c-1.4-1.4-2.4-2.8-2.4-3.3c0-0.2,0.1-0.4,0.4-0.5c1.8,1.2,3.7,2,5.9,2
		c1.2,0,3.4-0.4,4.7-0.7c1.7-0.4,3.8-0.9,5.9-1.4c0.8-2,1.9-4.7,2.8-7c0.6-1.6,0.9-3,0.9-4.2c0-2-1.9-3.3-2.8-3.9
		c0.1-0.3,0.4-0.6,0.8-0.6c0.6,0,2,0.6,3.3,1.2c1.3,0.7,2.6,1.6,2.6,2.7c0,1.4-0.5,2.9-1.5,5c-0.8,1.8-1.8,3.9-2.6,5.8
		c1.5-0.5,2.8-1.1,3.9-1.7c1.2-0.7,2-0.9,2.6-0.9c0.7,0,2.8,0.7,2.8,2c0,1-1.3,1.5-3.1,2c-1.6,0.4-4.7,1.3-7.7,2.2
		c-2.5,6.3-7.2,16.5-9.7,20.4C185.6,99,185,99.3,184.3,99.3z M203.6,120.5c-1.7,0-3-1.1-4-2.3c-0.6-0.7-1.4-2.3-1.7-3.3
		c-0.4-1.2-0.7-2.2-0.9-2.8c-0.4-1.3-0.8-2.8-0.8-3.9c0-1.6,1.5-2.6,3.4-3.2c1.8-0.6,3.5-0.8,5.3-0.8c1.1,0,2.2,0.1,3.3,0.3
		c-0.3-2.2-0.5-5.1-0.5-7.6c0-3.7,0.8-6.7,3-8.8c2.8-2.6,8.8-3.3,11.3-3.3c-1.7-2.7-5.7-3.6-9.3-3.6c-1,0-2,0.1-3,0.2
		c0-0.3,0-0.5,0.2-0.7c2.3-1.5,5-1.7,6.3-1.7c8.2,0,12.3,5,12.7,6.3c0.3,0.8,0.4,1.5,0.4,2.6c0,0.9-0.6,1.5-1.6,1.5
		c-0.8,0-1.5-0.1-2.3-0.7c-2.7-1.5-5.3-2.1-8.5-2.1c-3.5,0-6.5,2.4-6.5,7.1c0,3.7,0.7,6.8,1.5,9.5c0.2,0.8,0.4,1.5,0.5,2.3
		c3.6,1.3,9.7,4.3,11.2,6.2c0.7,0.9,1,2,1,2.8c0,1.1-0.7,2-1.7,2c-0.6,0-1.5-0.6-2.9-2c-2.1-2-4.9-4-7.2-5.3v0.5
		c0,2.5-0.7,4.9-2.3,6.9C209.1,118.4,206.4,120.5,203.6,120.5z M204.3,116.3c2.3,0,4.6-3.7,4.6-6.3c0-0.6-0.1-1.4-0.2-2.3
		c-2-0.5-3.9-0.7-5.6-0.7c-2.3,0-4.4,0.8-4.4,2.5C198.7,111,201.4,116.3,204.3,116.3z"/>
	<path class="st0" d="M278.3,123.3c-0.9-1-1.7-1.5-2.9-2.2c-2.1-1.1-3.6-1.8-4.5-3.4l0.4-0.6c1.8,0.9,3.9,1.3,5.8,1.3
		c1.7,0,2.1-1.2,2.1-3.4V89.5c-2.6,0.7-5.2,1.5-7.8,2c1.8,0.6,2.6,0.9,4,1.4c0.6,0.2,0.7,0.5,0.7,0.7c0,0.6-0.7,1-1.4,1.5
		c-0.1,0.8-0.1,1.9-0.1,3v5.9c0,0.4,0,1.4,0.1,2.4c0.1,0.9,0.1,1.8,0.1,2.1c0,1.4-1,2.9-2.1,2.9c-0.7,0-1.2-0.7-1.2-1.7
		c0-0.6,0-0.9,0.1-2.3c0.1-1.2,0.1-2.7,0.1-3.4v-6c0-2.2-0.1-4.7-0.7-6.4c-0.9,0.2-2.3,0.5-3.4,0.7c-0.1,2.9-0.1,5.6-0.3,7.3
		c-0.7,9.5-3.5,17-9.5,22.6l-0.7-0.5c4.8-6.4,6.4-13.7,7-22.2c0.1-1.8,0.2-4,0.2-6.4c-1.7,0.4-3.2,0.7-4.7,0.9
		c-0.4,0.9-1.1,1.8-1.6,1.8c-0.2,0-0.4-0.1-0.7-0.6c-0.6-1.2-1.2-3-2.1-5.4c1.2,0.2,2.3,0.3,3.3,0.3c1.6,0,3.7-0.1,5.9-0.4v-7.3
		c0-4.2,0-7.9-0.1-10.4c-0.1-1.5-0.2-3.2-0.7-5.5c2.4,0.9,4.1,1.6,5,2c0.3,0.1,0.4,0.2,0.5,0.4h1.1c1.2-3.6,2-7.4,2-9.3
		c0-0.5-0.1-1.2-0.1-1.6c2,0.6,3.7,1.2,5.3,1.8c0.4,0.1,0.7,0.4,0.7,0.7c0,0.6-1.4,1-2,1.2c-1.2,2.4-2.8,5.1-4.5,7.3h7.5l1.2-1.1
		c0.3-0.3,0.7-0.4,0.8-0.4c0.1,0,0.4,0.1,0.8,0.3c0.7,0.4,1.8,1.3,2.5,2c0.3,0.3,0.4,0.4,0.4,0.6c0,0.6-0.7,1.1-1.6,1.7
		c-0.1,4.4-0.1,9.6-0.1,14.7c2.2-0.6,4.2-1.2,5.9-1.8l0.3,0.9c-1.9,0.9-4,1.8-6.2,2.5c0,5.5,0.1,12,0.3,17.7c0.1,2.8,0.2,8.5,0.2,11
		C283.3,120,280.8,121.9,278.3,123.3z M267.7,89.4c3.7-0.4,7.8-1.1,11.6-1.9V71H268c-0.1,1.7-0.2,6.9-0.2,10.7
		C267.8,83.7,267.8,86.5,267.7,89.4z M270.5,74.5l0.7-0.4c2.7,2.5,4.5,5.3,4.5,7.4c0,1.8-1,2.7-1.9,2.7c-0.8,0-1.5-0.8-1.7-2.6
		C272,80,271.8,77.2,270.5,74.5z M284,122.5l-0.6-0.4c6.9-6.7,8.9-17.9,8.9-30.1V88c0-3.7-0.4-6.6-1-8.2c2,0.8,3.8,1.6,5,2.2
		c0.3,0.1,0.5,0.3,0.7,0.5h6.9l1.2-1.3c0.3-0.3,0.5-0.5,0.7-0.5c0.2,0,0.5,0.1,0.9,0.4c0.9,0.6,2,1.2,2.7,1.8
		c0.5,0.4,0.7,0.7,0.7,0.9c0,0.5-1.2,1.5-2.1,2.2c-0.1,5.5-0.1,16.1-0.1,22.6c0,2.3,0,4.2,0.1,5.5c0.1,2.1,0.9,2.8,2.1,3.1
		c1.5,0.3,2.8,0.4,3.7,0.4c2.6,0,3.7-0.7,4.3-3.1c0.7-3.1,1.2-6,1.5-9.9h0.7c0.6,2.8,0.9,5.2,1.1,8c0.1,2.1,0.5,3.4,1.8,4.5
		c-0.1,1.3-0.9,2.3-1.8,2.8c-2,1.1-4.7,1.3-6.4,1.3c-3.1,0-4.5-0.1-6.8-0.7c-2-0.5-3.9-2.3-3.9-5.9c0-3.3,0.1-11,0.2-14.9
		c0.1-5,0.1-10.8,0.1-15.1h-8.5v6.4C295.9,102.8,294.9,114.2,284,122.5z M289.6,74c-1.3-0.4-3-1.5-3.8-3.5c2.5,0.5,4.6,0.5,6.9,0.5
		h6.2v-1.6c0-1.8,0-3.3-0.1-5.5c-0.1-2-0.5-3.9-0.9-5.5c2.4,0.7,4.1,1.2,5.6,1.7c0.9,0.3,1.2,0.5,1.2,0.9c0,0.7-1.1,1.5-1.8,2
		c-0.1,2.4-0.1,3.8-0.1,6.2V71h8.8l2-2.1c0.3-0.3,0.4-0.4,0.7-0.4c0.2,0,0.4,0.1,0.9,0.4c1.2,0.8,2.8,2,4.2,3
		c0.3,0.2,0.4,0.4,0.4,0.6s-0.2,0.5-0.7,0.5h-24.4C293.3,72.9,290.8,73,289.6,74z"/>
	<path class="st0" d="M344.6,77.7L345,77c4,1.2,10.4,3.9,10.4,8.5c0,1.7-0.9,2.8-1.8,2.8c-1.2,0-2.1-0.5-3.1-3.1
		C349.4,82.1,346.8,78.7,344.6,77.7z M355.2,105.3c-0.4,0.9-0.7,1.8-0.7,2.6c0,1.4,0.4,2.5,0.8,3.4c0.8,1.9,1.4,4.6,1.4,7
		c0,0.7-0.1,1.5-0.2,2c-0.2,0.7-0.9,1.2-1.6,1.2c-1.8,0-3.2-1.5-3.2-3.6c0-1,0-3.1-0.1-4.3c-0.4-5.6-3.1-10-6.4-12.5l0.3-0.8
		c1.5,0.8,3.7,2.5,4.7,3.2c0.3,0.2,0.7,0.4,1,0.4s0.7-0.1,0.9-0.4c2.9-3.8,6.9-13.2,9.3-21.8l0.7,0.3
		C361.1,90.6,358.2,99.4,355.2,105.3z M351.4,60.9l0.4-0.7c3.9,1.4,9.8,4.2,9.8,8.7c0,1.6-0.9,2.6-1.8,2.6c-1.2,0-2-0.5-2.9-3.1
		C355.9,65.4,353.5,62,351.4,60.9z M386.5,124.2c-0.9-1.5-2-2.8-3.8-4c-1.4-0.9-3.7-2.7-4.7-4.3l0.4-0.6c3.1,1.8,6.6,3.1,9.1,3.1
		c1.4,0,3.1-0.9,4.3-3.1c0.6-1.1,1.1-2.5,1.5-4h-21.8c-0.1,0.3-0.2,0.9-0.4,1.4c-0.4,1.5-2.4,2.2-3.6,2.2c-0.6,0-1.1-0.4-1.1-0.9
		c0-0.2,0.2-0.9,0.7-2.2c1.8-5.6,3.2-11.1,4.1-16.9H370c-1.2,0-3.7,0.1-5,1.1c-1.3-0.4-3-1.5-3.8-3.6c2.5,0.5,4.6,0.5,6.9,0.5h3.4
		c0.5-3.6,0.9-7.2,1.2-11.1c0.1-0.8,0.1-1.5,0.1-2.3c0-1.4-0.1-2.8-0.2-4.2c1.6,1.1,3,2,3.9,2.7c0.6,0.4,0.7,0.6,0.8,0.8H394l2-2
		c0.1-0.1,0.4-0.4,0.6-0.4s0.4,0.1,0.7,0.3c1.2,0.9,2.5,1.8,3.5,2.6c0.4,0.4,0.6,0.6,0.6,0.8c0,0.7-1.1,1.4-2.3,2.1
		c0,3.8,0,7.4-0.1,10.7h3.5l2.5-2.5c0.2-0.2,0.5-0.4,0.8-0.4c0.2,0,0.6,0.2,1,0.5c1.5,1,3,2.2,4.4,3.3c0.3,0.2,0.4,0.4,0.4,0.7
		s-0.3,0.4-0.6,0.4h-12c-0.2,5.6-0.6,10.4-1.2,14.5h3.8l2.2-2.1c0.2-0.2,0.5-0.4,0.7-0.4c0.3,0,0.5,0.1,1,0.5c1.3,0.9,2.8,2.1,3.9,3
		c0.4,0.3,0.4,0.4,0.4,0.6c0,0.2-0.2,0.4-0.7,0.4h-11.8c-0.3,1.4-0.7,2.6-1,3.8C394.5,120.2,391.7,123.5,386.5,124.2z M375.1,70.5
		c-3.1,4.9-6.5,9.2-11.1,13.4l-0.6-0.5c5.5-7.3,9.8-15,11.1-21.5c0.1-0.4,0.1-1.1,0.1-1.8c0-0.7,0-1.2-0.1-2c2.2,1,4.5,2.1,6,2.9
		c0.8,0.4,1,0.7,1,1.1c0,0.4-0.9,0.9-2.3,1.2c-0.9,1.8-1.9,3.5-2.9,5.2h21.4l2.1-2c0.1-0.1,0.4-0.4,0.7-0.4c0.2,0,0.4,0.1,0.9,0.4
		c1.2,0.9,2.6,2.1,3.4,3c0.2,0.2,0.4,0.4,0.4,0.5c0,0.3-0.3,0.4-0.7,0.4H375.1z M380.8,109.4c0.9-4.1,1.7-9.2,2.2-14.5h-8.3
		c-0.7,5-1.7,9.7-2.8,14.5H380.8z M383.2,92.9c0.4-4.2,0.7-8.5,0.9-12.2h-7.7c-0.4,4.5-0.9,8.5-1.5,12.2H383.2z M393.7,109.4
		c0.9-4.2,1.2-9.4,1.4-14.5h-8.5c-0.6,5.3-1.2,10.4-2,14.5H393.7z M395.1,80.7h-7.3c-0.2,4-0.6,8.2-0.9,12.2h8.3v-3.6
		C395.1,86.6,395.1,83.7,395.1,80.7z"/>
	<path class="st0" d="M435.1,89.9c0.8,0.8,1.9,1.2,3.1,1.2c1.2,0,3.5-0.8,5-1.7c4.6-2.8,9.3-6.4,10.9-7.7c1.8-1.4,3.6-2.5,5-2.5
		c0.7,0,1.9,0.4,2.6,0.9c2.3,1.6,3.9,2.7,6.5,4.4c9,5.9,15.3,9.9,20.1,12.1c3,1.3,5,2.2,6.5,3c2.1,1.1,3.4,2.8,3.4,4.1
		c0,0.9-0.9,1.3-1.8,1.3c-0.9,0-1.8,0-2.7-0.2c-3.4-0.9-8.8-4.2-14.5-8.3c-5.9-4.2-12.3-9.2-16.6-12.5c-1.6-1.2-2.8-2-3.6-2
		c-1.5,0-2.7,1.2-4.2,2.6c-1.7,1.6-3.8,3.7-5.4,5.5c-1.6,1.7-6.1,5.5-7.9,5.5c-1.7,0-3.5-1.2-5-2.6c-0.9-0.9-1.9-2-1.9-2.6
		C434.6,90.2,434.9,89.9,435.1,89.9z"/>
</g>
<g>
	<g>
		<polygon class="st1" points="113.1,4.2 113.1,0 79,0 79,4.2 93.9,4.2 93.9,17.5 85.9,17.5 85.9,22.6 93.9,22.6 93.9,34.2 79,34.2 
			79,38.4 113.1,38.4 113.1,34.2 98.2,34.2 98.2,22.6 106.2,22.6 106.2,17.5 98.2,17.5 98.2,4.2 		"/>
		<polygon class="st1" points="90.2,13.1 90.2,8.8 82.2,8.8 79.6,8.8 78.6,8.8 78.6,30.6 79.6,30.6 82.2,30.6 90.2,30.6 90.2,26.4 
			82.2,26.4 82.2,13.1 		"/>
		<polygon class="st1" points="101.9,13.1 101.9,8.8 109.9,8.8 112.5,8.8 113.4,8.8 113.4,30.6 112.5,30.6 109.9,30.6 101.9,30.6 
			101.9,26.4 109.9,26.4 109.9,13.1 		"/>
	</g>
	<g>
		<path class="st1" d="M131,4.1h5.8v10.4L145,4.1h6.9l-10.5,13.5l11.6,16.7h-6.8l-9.3-13.4v13.4H131V4.1z"/>
		<path class="st1" d="M171.3,3.4c4.3,0,7.9,1.5,11,4.6c3.1,3.1,4.6,6.9,4.6,11.3c0,4.4-1.5,8.1-4.5,11.2c-3,3-6.7,4.6-11,4.6
			c-4.5,0-8.3-1.6-11.3-4.7s-4.5-6.8-4.5-11.2c0-2.9,0.7-5.5,2.1-8s3.3-4.3,5.8-5.8C165.8,4.1,168.4,3.4,171.3,3.4z M171.2,9
			c-2.8,0-5.1,1-7,2.9c-1.9,1.9-2.9,4.4-2.9,7.4c0,3.3,1.2,6,3.6,7.9c1.9,1.5,4,2.3,6.4,2.3c2.7,0,5-1,7-3c1.9-2,2.9-4.4,2.9-7.3
			c0-2.9-1-5.3-2.9-7.3C176.3,10,174,9,171.2,9z"/>
		<path class="st1" d="M220.1,9l-4,4c-2.6-2.7-5.5-4.1-8.9-4.1c-3,0-5.5,1-7.5,3c-2,2-3,4.4-3,7.2c0,2.9,1,5.4,3.1,7.4
			c2.1,2,4.6,3,7.7,3c2,0,3.7-0.4,5-1.3c1.4-0.8,2.5-2.1,3.3-3.9h-8.7V19h15.2l0,1.3c0,2.6-0.7,5.1-2.1,7.5s-3.1,4.2-5.3,5.4
			s-4.7,1.9-7.6,1.9c-3.1,0-5.9-0.7-8.4-2s-4.4-3.3-5.8-5.8s-2.1-5.2-2.1-8.1c0-4,1.3-7.5,4-10.4c3.1-3.5,7.2-5.3,12.2-5.3
			c2.6,0,5.1,0.5,7.4,1.5C216.4,5.6,218.3,7,220.1,9z"/>
		<path class="st1" d="M225.4,4.1h6.2l5.6,10.9l5.6-10.9h6.1l-8.8,17.1v13.1h-5.8V21.2L225.4,4.1z"/>
		<path class="st1" d="M267.9,3.4c4.3,0,7.9,1.5,11,4.6s4.6,6.9,4.6,11.3c0,4.4-1.5,8.1-4.5,11.2s-6.7,4.6-11,4.6
			c-4.5,0-8.3-1.6-11.3-4.7c-3-3.1-4.5-6.8-4.5-11.2c0-2.9,0.7-5.5,2.1-8s3.3-4.3,5.8-5.8C262.4,4.1,265,3.4,267.9,3.4z M267.8,9
			c-2.8,0-5.1,1-7,2.9s-2.9,4.4-2.9,7.4c0,3.3,1.2,6,3.6,7.9c1.9,1.5,4,2.3,6.4,2.3c2.7,0,5-1,7-3c1.9-2,2.9-4.4,2.9-7.3
			c0-2.9-1-5.3-2.9-7.3C272.9,10,270.6,9,267.8,9z"/>
		<path class="st1" d="M288.9,4.1h5.8v10.4l8.2-10.4h6.9l-10.5,13.5l11.6,16.7H304l-9.3-13.4v13.4h-5.8V4.1z"/>
		<path class="st1" d="M314.7,4.1h5.8v19.5c0,1.7,0.1,2.9,0.4,3.6s0.8,1.3,1.5,1.7c0.7,0.4,1.5,0.6,2.5,0.6c1,0,1.9-0.2,2.6-0.7
			c0.7-0.5,1.2-1.1,1.5-1.8c0.3-0.7,0.4-2.1,0.4-4.1V4.1h5.8v18c0,3-0.2,5.1-0.5,6.3s-1,2.3-2,3.4c-1,1.1-2.1,1.9-3.3,2.4
			S326.6,35,325,35c-2.2,0-4.1-0.5-5.7-1.5c-1.6-1-2.8-2.3-3.5-3.8s-1-4.1-1-7.7V4.1z"/>
		<path class="st1" d="M357.6,8.2l-4.3,3.8c-1.5-2.1-3-3.1-4.6-3.1c-0.8,0-1.4,0.2-1.8,0.6s-0.7,0.9-0.7,1.4s0.2,1,0.5,1.4
			c0.5,0.6,1.9,1.9,4.2,3.9c2.2,1.8,3.5,3,4,3.5c1.2,1.2,2,2.3,2.5,3.4s0.7,2.2,0.7,3.5c0,2.5-0.9,4.5-2.6,6.1s-3.9,2.4-6.7,2.4
			c-2.1,0-4-0.5-5.6-1.6s-3-2.7-4.1-5l4.8-2.9c1.5,2.7,3.1,4,5,4c1,0,1.8-0.3,2.5-0.9s1-1.2,1-2c0-0.7-0.3-1.4-0.8-2.1
			c-0.5-0.7-1.6-1.7-3.3-3.1c-3.3-2.7-5.4-4.7-6.4-6.2c-1-1.5-1.4-2.9-1.4-4.4c0-2.1,0.8-3.9,2.4-5.4s3.6-2.2,5.9-2.2
			c1.5,0,2.9,0.3,4.3,1C354.6,5.1,356.1,6.4,357.6,8.2z"/>
		<path class="st1" d="M363.6,4.1h5.8v11.4h10.1V4.1h5.8v30.2h-5.8V21.1h-10.1v13.2h-5.8V4.1z"/>
		<path class="st1" d="M401.4,4.1h5.8l11.6,30.2h-6l-2.4-6.2h-12.3l-2.5,6.2h-6L401.4,4.1z M404.4,12.1l-4,10.4h8.1L404.4,12.1z"/>
	</g>
</g>
</svg>
