<svg xmlns="http://www.w3.org/2000/svg" width="149" height="29.072" viewBox="0 0 149 29.072">
  <g id="今スグ相談" transform="translate(-822.309 -593.085)">
    <g id="グループ_75" data-name="グループ 75" transform="translate(822.309 593.085)">
      <g id="グループ_74" data-name="グループ 74" transform="translate(0 0)" style="isolation: isolate">
        <path id="パス_161" data-name="パス 161" d="M842.421,603.633c-.254,0-.318.223-.349.413v.827c0,.762-.064,1.143-.795,1.143-.858,0-1.716-.063-2.574-.063h-5.242c-.858,0-1.716.063-2.574.063-.731,0-.794-.381-.794-1.207v-.635c-.032-.191-.1-.381-.317-.381a.313.313,0,0,0-.254.1c-.795.667-4.449,3.686-5.306,3.686-.668,0-1.906-1.589-1.906-2.255,0-.381.6-.668.921-.826a29.45,29.45,0,0,0,8.864-7.594,26.877,26.877,0,0,0,2.225-3.368c.127-.222.222-.445.508-.445.445,0,1.938.413,2.51.508.413.095,1.207.19,1.207.635,0,.223-.222.318-.413.413a.213.213,0,0,0-.127.222c0,.064,0,.1.032.127a30.157,30.157,0,0,0,11.628,9.31c.445.222.763.349.763.7,0,.508-.826,2.51-1.557,2.51-.826,0-5.338-3.114-6.228-3.781A.473.473,0,0,0,842.421,603.633Zm-10.453,8.07c-1.208,0-2.415.064-3.622.064-.795,0-.731-.445-.731-1.62s-.032-1.588.731-1.588c1.207,0,2.415.063,3.622.063h6.545c1.017,0,2.034-.032,3.05-.032a2.075,2.075,0,0,1,2.1,1.747c0,1.239-3.05,6.355-3.845,7.594a36.35,36.35,0,0,1-2.764,3.717,1.356,1.356,0,0,1-.953.508c-.6,0-2.478-.89-2.478-1.589,0-.35.508-.826.731-1.048a24.952,24.952,0,0,0,3.463-4.7,9.57,9.57,0,0,0,1.208-2.605c0-.572-.54-.509-1.208-.509Zm-.89-9.119c0,.222.191.318.381.318.667.032,1.334.064,2,.064H838.7c.7,0,1.4-.032,2.1-.064.159-.032.317-.1.317-.254a.33.33,0,0,0-.127-.254,34.172,34.172,0,0,1-4.607-4.734.573.573,0,0,0-.509-.286.6.6,0,0,0-.508.286,44.5,44.5,0,0,1-4.162,4.67C831.142,602.426,831.078,602.49,831.078,602.585Z" transform="translate(-822.309 -593.085)" fill="#1e313b"/>
        <path id="パス_162" data-name="パス 162" d="M909.293,604.5a8.586,8.586,0,0,0,1.366-.063c.191,0,.508-.064.7-.064.668,0,2.034,1.748,2.034,2.161a6.162,6.162,0,0,1-.7,1.239c-.191.286-.381.6-.508.826a46.057,46.057,0,0,1-4.13,6.037.869.869,0,0,0-.254.6.849.849,0,0,0,.477.763,51,51,0,0,1,5.37,4.1c.763.667,1.557,1.4,2.288,2.16a.608.608,0,0,1,.222.445c0,.668-1.747,2.542-2.415,2.542a1.064,1.064,0,0,1-.795-.477,33.787,33.787,0,0,0-7.022-6.291,1.12,1.12,0,0,0-.731-.286,1.521,1.521,0,0,0-.953.54,35.373,35.373,0,0,1-7.943,5.56,5.322,5.322,0,0,1-1.4.6c-.668,0-2.129-2.128-2.129-2.7,0-.381.381-.54.667-.635,5.624-2.161,10.962-7.022,14.171-12.042a3.138,3.138,0,0,0,.54-1.08c0-.476-.445-.54-.921-.54h-6.577c-1.366,0-2.732.064-4.1.064-.858,0-.794-.477-.794-1.939,0-1.111-.032-1.588.763-1.588,1.366,0,2.732.063,4.13.063Z" transform="translate(-862.637 -599.548)" fill="#1e313b"/>
        <path id="パス_163" data-name="パス 163" d="M977.8,600.279a5.541,5.541,0,0,0,1.271-.1,1.356,1.356,0,0,1,.35-.063c.7,0,2.319,1.938,2.319,2.446a3.077,3.077,0,0,1-.381.763c-.19.35-.508.826-.826,1.462-3.145,6.069-6.2,10.676-12.073,14.457-.7.445-3.654,2.256-4.321,2.256-.73,0-2.7-1.557-2.7-2.129,0-.318.413-.509.635-.6a28.024,28.024,0,0,0,12.3-10.168c.508-.763,2.447-3.844,2.447-4.638,0-.413-.54-.445-.985-.445h-6.037c-.635.063-.763.063-1.334.858-.572.857-4.258,5.242-5.084,5.242-.413,0-2.732-1.207-2.732-1.906a.584.584,0,0,1,.286-.445,29.271,29.271,0,0,0,8.483-11.343c.127-.318.254-.763.508-.763a16.775,16.775,0,0,1,2.256.984,3.727,3.727,0,0,0,.413.191c.381.159.953.349.953.635,0,.191-.318.318-.477.413-.381.222-.508.477-.826,1.049-.127.223-.254.445-.445.763a1.269,1.269,0,0,0-.223.572c0,.318.254.476.541.509Zm6.418-.636c0,.477-1.239,1.334-1.62,1.334-.191,0-.286-.19-.413-.349-.635-.953-1.334-1.906-2.065-2.8-.1-.127-.222-.254-.222-.413,0-.381,1.3-1.176,1.652-1.176A12.775,12.775,0,0,1,984.215,599.643Zm3.272-1.97c0,.476-1.239,1.3-1.62,1.3-.222,0-.317-.159-.413-.317a30.3,30.3,0,0,0-2.1-2.8.68.68,0,0,1-.222-.382c0-.413,1.3-1.207,1.652-1.207A12.5,12.5,0,0,1,987.488,597.673Z" transform="translate(-901.482 -593.766)" fill="#1e313b"/>
        <path id="パス_164" data-name="パス 164" d="M1036.29,608.707c-.159,0-.222.159-.222.286v7.531c0,1.493.1,2.986.1,4.48,0,.953-.349.985-1.652.985-1.271,0-1.62-.032-1.62-.953,0-1.494.064-2.987.064-4.512V609.6c0-.064-.032-.159-.127-.159a.142.142,0,0,0-.127.1,28.6,28.6,0,0,1-2.637,5.751c-.191.286-.318.572-.7.572-.6,0-1.938-1.112-1.938-1.747a2.042,2.042,0,0,1,.476-.985,38.778,38.778,0,0,0,4.258-9.6c0-.1.032-.191.032-.255,0-.445-.318-.6-.7-.6h-.064c-.921,0-1.843.1-2.478.1-.731,0-.7-.476-.7-1.589,0-1.176-.032-1.589.731-1.589.668,0,1.525.064,2.447.064h.635c.636,0,.891-.254.891-.89v-2.415a15.831,15.831,0,0,0-.1-2.161.884.884,0,0,1-.032-.286c0-.381.254-.445.54-.445.413,0,2.224.191,2.7.254.254.032.7.063.7.413,0,.19-.127.254-.35.445-.318.254-.349.858-.349,1.779v2.415c0,.635.286.89.89.89h.317c.922,0,1.779-.064,2.447-.064.763,0,.731.413.731,1.589,0,1.112.032,1.589-.7,1.589-.635,0-1.557-.1-2.478-.1h-.317c-.6,0-.858.254-.89.858a.929.929,0,0,0,.222.7,43.4,43.4,0,0,0,3.876,4.8c.191.191.477.445.477.7a2.809,2.809,0,0,1-1.779,1.811.833.833,0,0,1-.635-.445,19.983,19.983,0,0,1-1.716-2.256A.323.323,0,0,0,1036.29,608.707Zm15.505,11.5c0-.509-.222-.731-.731-.731h-5.433c-.508,0-.731.222-.731.731v.413c0,.89-.318.89-1.589.89s-1.652,0-1.652-.89c0-1.239.063-2.447.063-3.686V599.684c0-.953-.032-1.906-.032-2.891,0-1.144.318-1.525,1.493-1.525.731,0,1.461.032,2.192.032h5.974c.7,0,1.43-.032,2.129-.032,1.176,0,1.557.318,1.557,1.525,0,.953-.063,1.938-.063,2.891v17.253c0,1.239.063,2.478.063,3.717,0,.858-.381.858-1.62.858-1.112,0-1.62.032-1.62-.795Zm-.826-18.047a.869.869,0,0,0,.89-.89v-2.129a.888.888,0,0,0-.89-.89h-5.243a.909.909,0,0,0-.89.89v2.129a.888.888,0,0,0,.89.89Zm-6.132,6.1a.909.909,0,0,0,.89.89h5.243a.889.889,0,0,0,.89-.89v-2.478c-.064-.54-.318-.857-.89-.857h-5.243a.842.842,0,0,0-.89.857Zm0,7.435a.909.909,0,0,0,.89.89h5.243a.888.888,0,0,0,.89-.89v-2.892a.889.889,0,0,0-.89-.89h-5.243a.909.909,0,0,0-.89.89Z" transform="translate(-939.706 -593.297)" fill="#1e313b"/>
        <path id="パス_165" data-name="パス 165" d="M1115.556,600.732a.372.372,0,0,0-.349.286c-.032.318-.159.476-.731.476-.858,0-1.748-.063-2.637-.063h-4.258c-.89,0-1.779.063-2.669.063-.795,0-.763-.317-.763-1.334,0-.985,0-1.3.763-1.3.89,0,1.779.032,2.669.032h4.258c.889,0,1.779-.032,2.669-.032.254,0,.54,0,.667.286a.255.255,0,0,0,.191.159c.032,0,.1.032.159-.095a18.251,18.251,0,0,0,1.207-3.336c.1-.318.127-.6.54-.6a6.263,6.263,0,0,1,1.3.254c.953.254,1.652.445,1.652.794,0,.254-.349.349-.541.381-.254.095-.349.413-.54.984a26.625,26.625,0,0,1-1.334,3.209.675.675,0,0,1-.6.381,4.625,4.625,0,0,1-1.494-.508C1115.652,600.764,1115.62,600.732,1115.556,600.732Zm-4.7,19.668h-1.875c-.7,0-.857.064-.857.7v.222c0,.794-.254.763-1.335.763-1.017,0-1.366.032-1.366-.7,0-.763.064-1.525.064-2.288v-4.448c0-.476-.032-.985-.032-1.462,0-.985.318-1.461,1.335-1.461.413,0,.826.064,1.271.064h3.432c.413,0,.826-.064,1.239-.064,1.049,0,1.366.445,1.366,1.461,0,.476-.032.953-.032,1.462v3.558c0,.795.064,1.557.064,2.351,0,.7-.286.763-1.366.763-.953,0-1.176-.1-1.271-.35C1111.331,620.654,1111.235,620.4,1110.854,620.4Zm-2.479-10.39c-.826,0-1.556.064-2.1.064-.763,0-.731-.349-.731-1.3,0-.921-.032-1.271.7-1.271.445,0,1.334.064,2.128.064h2.733c.826,0,1.716-.064,2.128-.064.731,0,.731.35.731,1.271,0,.953,0,1.3-.731,1.3-.635,0-1.271-.064-2.128-.064Zm.159-12.867c-.763,0-1.525.063-2.256.063s-.7-.349-.7-1.3c0-.985-.032-1.335.73-1.335.635,0,1.43.064,2.224.064h2.542c.794,0,1.589-.064,2.224-.064.73,0,.73.349.73,1.335,0,.953.032,1.3-.7,1.3-.762,0-1.493-.063-2.256-.063Zm-.127,8.578c-.858,0-1.716.064-2.129.064-.731,0-.7-.35-.7-1.335,0-.953-.032-1.3.7-1.3.445,0,1.3.064,2.129.064h2.732c.826,0,1.684-.064,2.129-.064.731,0,.7.349.7,1.3,0,.985.032,1.335-.7,1.335-.445,0-1.271-.064-2.129-.064Zm3.05,9.437c-.063-.54-.318-.858-.89-.858h-1.589c-.572,0-.826.318-.889.858v1.874a.888.888,0,0,0,.889.89h1.589a.888.888,0,0,0,.89-.89Zm4.8-7.245c-.6,0-1.97-1.684-1.97-2.255,0-.35.349-.445.763-.6a13.182,13.182,0,0,0,5.369-4.226c1.43-1.97,1.366-4.13,1.366-6.482,0-.445.127-.667.6-.667.349,0,1.874.159,2.288.191.349.064.921.064.921.413,0,.19-.286.349-.445.445-.223.127-.255.254-.286.508,0,.571-.032,1.144-.032,1.715a1.076,1.076,0,0,0-.032.318,3.672,3.672,0,0,0,.1.826c.89,3.591,4.289,5.846,7.276,7.657.349.191.445.318.445.477,0,.6-1.144,2.192-1.811,2.192a9.339,9.339,0,0,1-2.256-1.335,14.954,14.954,0,0,1-4.893-5.179.431.431,0,0,0-.35-.222.357.357,0,0,0-.349.222C1121.5,604.99,1117.177,607.913,1116.255,607.913Zm6.958,6.926a.384.384,0,0,0-.35.254,13.154,13.154,0,0,1-5.274,6.1,3.077,3.077,0,0,1-1.144.6c-.635,0-2.16-1.589-2.16-2.224,0-.255.19-.381.413-.509a14.3,14.3,0,0,0,4.7-3.908c2.065-2.733,2.287-4.893,2.287-8.229,0-.445.127-.635.6-.635.317,0,1.843.127,2.161.159.445.064,1.016.064,1.016.413,0,.19-.254.349-.381.445a.515.515,0,0,0-.318.54c0,.635-.063,1.3-.063,1.938a6.726,6.726,0,0,0,.063.794,9.742,9.742,0,0,0,2.669,4.957,20.019,20.019,0,0,0,4.576,3.749c.286.159.572.318.572.54,0,.636-1.43,2.161-2.129,2.161a5.305,5.305,0,0,1-1.843-1.112,18.321,18.321,0,0,1-5.052-5.783C1123.468,614.967,1123.373,614.839,1123.214,614.839Zm-3.686-4.861c-.445.064-.54.286-.7.795-.254.763-.953,2.446-1.271,3.114-.159.254-.318.445-.635.445-.349,0-2.192-.349-2.192-1.049a1.444,1.444,0,0,1,.254-.6,16.3,16.3,0,0,0,1.366-3.368c.095-.286.159-.636.54-.636.1,0,.572.127.731.159.381.1,2.225.477,2.225.89C1119.846,609.883,1119.655,609.947,1119.528,609.978Zm12.042-13.726c.222.1.667.254.667.508,0,.19-.19.254-.318.286a.89.89,0,0,0-.7.445,27.1,27.1,0,0,1-2.288,3.113c-.223.254-.445.572-.794.572-.445,0-2.161-.731-2.161-1.3,0-.222.286-.54.445-.7a23.467,23.467,0,0,0,2.415-3.4c.1-.19.19-.381.413-.381A16.036,16.036,0,0,1,1131.57,596.253Zm.1,14.075c-.381.032-.445.095-.635.413a29.241,29.241,0,0,1-2.192,3.019.907.907,0,0,1-.7.413c-.445,0-2.129-.826-2.129-1.4,0-.254.254-.508.508-.794a19.008,19.008,0,0,0,2.129-2.987c.1-.191.191-.349.381-.349a8.012,8.012,0,0,1,1.462.508c.413.159.826.318,1.017.381s.54.223.54.476C1132.047,610.137,1131.951,610.3,1131.665,610.328Z" transform="translate(-983.619 -593.425)" fill="#1e313b"/>
      </g>
    </g>
  </g>
</svg>
