<?xml version="1.0" encoding="utf-8"?>
<!-- Generator: Adobe Illustrator 26.5.3, SVG Export Plug-In . SVG Version: 6.00 Build 0)  -->
<svg version="1.1" id="レイヤー_1" xmlns="http://www.w3.org/2000/svg" xmlns:xlink="http://www.w3.org/1999/xlink" x="0px"
	 y="0px" viewBox="0 0 832.9 62.3" style="enable-background:new 0 0 832.9 62.3;" xml:space="preserve">
<style type="text/css">
	.st0{fill:#FFFFFF;}
</style>
<g>
	<path class="st0" d="M45.6,10.7L42,13.6c-2-2.6-4.5-4.6-7.3-6c-2.8-1.4-6-2-9.4-2c-3.7,0-7.2,0.9-10.3,2.7s-5.6,4.2-7.4,7.2
		c-1.7,3-2.6,6.4-2.6,10.2c0,5.7,2,10.4,5.9,14.3c3.9,3.8,8.8,5.7,14.8,5.7c6.5,0,12-2.6,16.4-7.7l3.7,2.8c-2.3,3-5.2,5.3-8.7,6.9
		c-3.5,1.6-7.4,2.4-11.7,2.4c-8.2,0-14.6-2.7-19.3-8.2C2,37.2,0,31.6,0,25.1c0-6.8,2.4-12.6,7.2-17.2c4.8-4.7,10.8-7,18-7
		c4.4,0,8.3,0.9,11.8,2.6C40.5,5.2,43.4,7.6,45.6,10.7z"/>
	<path class="st0" d="M51.4,14.2h4.5v5c1.4-2,2.8-3.5,4.3-4.5c1.5-1,3.1-1.5,4.7-1.5c1.2,0,2.5,0.4,3.9,1.2l-2.3,3.7
		c-0.9-0.4-1.7-0.6-2.3-0.6c-1.5,0-2.9,0.6-4.3,1.8c-1.4,1.2-2.4,3.1-3.1,5.7c-0.6,2-0.8,5.9-0.8,11.9v11.7h-4.5V14.2z"/>
	<path class="st0" d="M99.3,37.3l3.7,2c-1.2,2.4-2.6,4.4-4.3,5.8s-3.4,2.6-5.4,3.4c-2,0.8-4.3,1.2-6.8,1.2c-5.6,0-10-1.8-13.2-5.5
		c-3.2-3.7-4.8-7.9-4.8-12.5c0-4.4,1.3-8.3,4-11.7c3.4-4.4,8-6.5,13.7-6.5c5.9,0,10.6,2.2,14.1,6.7c2.5,3.2,3.8,7.1,3.8,11.8H73.2
		c0.1,4,1.4,7.3,3.8,9.9c2.5,2.6,5.5,3.8,9.2,3.8c1.8,0,3.5-0.3,5.1-0.9c1.7-0.6,3.1-1.4,4.2-2.4S98,39.5,99.3,37.3z M99.3,28
		c-0.6-2.4-1.5-4.3-2.6-5.7c-1.1-1.4-2.6-2.6-4.5-3.4c-1.9-0.9-3.8-1.3-5.9-1.3c-3.4,0-6.3,1.1-8.7,3.3c-1.8,1.6-3.1,4-4,7.1H99.3z"
		/>
	<path class="st0" d="M145.6,14.2v34.5h-4.4v-5.9c-1.9,2.3-4,4-6.3,5.1c-2.3,1.1-4.9,1.7-7.6,1.7c-4.9,0-9.1-1.8-12.5-5.3
		c-3.5-3.5-5.2-7.9-5.2-12.9c0-5,1.7-9.2,5.2-12.8c3.5-3.5,7.7-5.3,12.6-5.3c2.8,0,5.4,0.6,7.7,1.8c2.3,1.2,4.3,3,6,5.4v-6.3H145.6z
		 M127.9,17.6c-2.5,0-4.8,0.6-6.8,1.8c-2.1,1.2-3.8,2.9-5,5.1s-1.9,4.5-1.9,7c0,2.4,0.6,4.8,1.9,7c1.2,2.2,2.9,3.9,5,5.2
		c2.1,1.2,4.4,1.9,6.8,1.9c2.4,0,4.7-0.6,6.9-1.8s3.9-2.9,5-5c1.2-2.1,1.8-4.4,1.8-7.1c0-4-1.3-7.3-3.9-10S131.7,17.6,127.9,17.6z"
		/>
	<path class="st0" d="M157.7,1.4h4.4v12.8h7v3.8h-7v30.7h-4.4V18.1h-6.1v-3.8h6.1V1.4z"/>
	<path class="st0" d="M202.2,37.3l3.7,2c-1.2,2.4-2.6,4.4-4.3,5.8s-3.4,2.6-5.4,3.4c-2,0.8-4.3,1.2-6.8,1.2c-5.6,0-10-1.8-13.2-5.5
		c-3.2-3.7-4.8-7.9-4.8-12.5c0-4.4,1.3-8.3,4-11.7c3.4-4.4,8-6.5,13.7-6.5c5.9,0,10.6,2.2,14.1,6.7c2.5,3.2,3.8,7.1,3.8,11.8H176
		c0.1,4,1.4,7.3,3.8,9.9c2.5,2.6,5.5,3.8,9.2,3.8c1.8,0,3.5-0.3,5.1-0.9c1.7-0.6,3.1-1.4,4.2-2.4S200.8,39.5,202.2,37.3z M202.2,28
		c-0.6-2.4-1.5-4.3-2.6-5.7c-1.1-1.4-2.6-2.6-4.5-3.4c-1.9-0.9-3.8-1.3-5.9-1.3c-3.4,0-6.3,1.1-8.7,3.3c-1.8,1.6-3.1,4-4,7.1H202.2z
		"/>
	<path class="st0" d="M237.2,1.4h4.4v12.8h7v3.8h-7v30.7h-4.4V18.1h-6.1v-3.8h6.1V1.4z"/>
	<path class="st0" d="M254.1,0.9h4.4v19.5c1.8-2.4,3.8-4.1,5.9-5.3c2.2-1.2,4.5-1.8,7-1.8c2.6,0,4.9,0.7,6.9,2
		c2,1.3,3.5,3.1,4.4,5.3c1,2.2,1.4,5.7,1.4,10.4v17.8h-4.4V32.3c0-4-0.2-6.6-0.5-8c-0.6-2.3-1.6-4-3-5.2c-1.4-1.2-3.3-1.7-5.7-1.7
		c-2.7,0-5.1,0.9-7.2,2.7c-2.1,1.8-3.5,4-4.2,6.6c-0.4,1.7-0.6,4.8-0.6,9.4v12.7h-4.4V0.9z"/>
	<path class="st0" d="M321.9,37.3l3.7,2c-1.2,2.4-2.6,4.4-4.3,5.8s-3.4,2.6-5.4,3.4c-2,0.8-4.3,1.2-6.8,1.2c-5.6,0-10-1.8-13.2-5.5
		c-3.2-3.7-4.8-7.9-4.8-12.5c0-4.4,1.3-8.3,4-11.7c3.4-4.4,8-6.5,13.7-6.5c5.9,0,10.6,2.2,14.1,6.7c2.5,3.2,3.8,7.1,3.8,11.8h-31.1
		c0.1,4,1.4,7.3,3.8,9.9c2.5,2.6,5.5,3.8,9.2,3.8c1.8,0,3.5-0.3,5.1-0.9c1.7-0.6,3.1-1.4,4.2-2.4S320.6,39.5,321.9,37.3z M321.9,28
		c-0.6-2.4-1.5-4.3-2.6-5.7c-1.1-1.4-2.6-2.6-4.5-3.4c-1.9-0.9-3.8-1.3-5.9-1.3c-3.4,0-6.3,1.1-8.7,3.3c-1.8,1.6-3.1,4-4,7.1H321.9z
		"/>
	<path class="st0" d="M353.1,14.2h4.4v6.2c1.8-2.4,3.7-4.1,5.9-5.3c2.2-1.2,4.5-1.8,7-1.8c2.6,0,4.9,0.7,6.9,2
		c2,1.3,3.5,3.1,4.4,5.3s1.4,5.7,1.4,10.4v17.8h-4.4V32.3c0-4-0.2-6.6-0.5-8c-0.5-2.3-1.5-4-3-5.2s-3.4-1.7-5.7-1.7
		c-2.7,0-5.1,0.9-7.2,2.7c-2.1,1.8-3.5,4-4.2,6.6c-0.4,1.7-0.6,4.8-0.6,9.4v12.7h-4.4V14.2z"/>
	<path class="st0" d="M420.9,37.3l3.7,2c-1.2,2.4-2.6,4.4-4.3,5.8s-3.4,2.6-5.4,3.4c-2,0.8-4.3,1.2-6.8,1.2c-5.6,0-10-1.8-13.2-5.5
		c-3.2-3.7-4.8-7.9-4.8-12.5c0-4.4,1.3-8.3,4-11.7c3.4-4.4,8-6.5,13.7-6.5c5.9,0,10.6,2.2,14.1,6.7c2.5,3.2,3.8,7.1,3.8,11.8h-31.1
		c0.1,4,1.4,7.3,3.8,9.9c2.5,2.6,5.5,3.8,9.2,3.8c1.8,0,3.5-0.3,5.1-0.9c1.7-0.6,3.1-1.4,4.2-2.4S419.5,39.5,420.9,37.3z M420.9,28
		c-0.6-2.4-1.5-4.3-2.6-5.7c-1.1-1.4-2.6-2.6-4.5-3.4c-1.9-0.9-3.8-1.3-5.9-1.3c-3.4,0-6.3,1.1-8.7,3.3c-1.8,1.6-3.1,4-4,7.1H420.9z
		"/>
	<path class="st0" d="M427.9,14.2h5.3l9.2,12.6l9.1-12.6h5.3l-11.8,16.3l13.2,18.2h-5.4l-10.5-14.5L432,48.7h-5.3l13.1-18.2
		L427.9,14.2z"/>
	<path class="st0" d="M467.1,1.4h4.4v12.8h7v3.8h-7v30.7h-4.4V18.1h-6.1v-3.8h6.1V1.4z"/>
	<path class="st0" d="M533,14.2h4.4v27.5c0,4.8-0.4,8.4-1.3,10.6c-1.2,3.2-3.2,5.6-6.1,7.3c-2.9,1.7-6.3,2.6-10.4,2.6
		c-3,0-5.6-0.4-8-1.3s-4.3-2-5.8-3.4c-1.5-1.4-2.8-3.5-4.1-6.2h4.8c1.3,2.3,3,4,5.1,5.1c2.1,1.1,4.7,1.7,7.7,1.7
		c3,0,5.6-0.6,7.7-1.7c2.1-1.1,3.6-2.5,4.5-4.3c0.9-1.7,1.3-4.5,1.3-8.3v-1.8c-1.7,2.1-3.7,3.7-6.1,4.9c-2.4,1.1-5,1.7-7.7,1.7
		c-3.2,0-6.2-0.8-9-2.4s-5-3.7-6.5-6.4c-1.5-2.7-2.3-5.6-2.3-8.8c0-3.2,0.8-6.2,2.4-8.9c1.6-2.8,3.8-4.9,6.6-6.6
		c2.8-1.6,5.8-2.4,8.9-2.4c2.6,0,5,0.5,7.2,1.6c2.2,1.1,4.4,2.8,6.5,5.3V14.2z M519.9,17.6c-2.5,0-4.9,0.6-7,1.8
		c-2.2,1.2-3.9,2.9-5.1,5s-1.8,4.5-1.8,7c0,3.8,1.3,6.9,3.8,9.4s5.8,3.7,9.9,3.7c4.1,0,7.4-1.2,9.9-3.7c2.5-2.5,3.7-5.7,3.7-9.7
		c0-2.6-0.6-4.9-1.7-7s-2.8-3.7-4.9-4.8C524.6,18.2,522.3,17.6,519.9,17.6z"/>
	<path class="st0" d="M575.4,37.3l3.7,2c-1.2,2.4-2.6,4.4-4.3,5.8c-1.6,1.5-3.4,2.6-5.4,3.4c-2,0.8-4.3,1.2-6.8,1.2
		c-5.6,0-10-1.8-13.2-5.5c-3.2-3.7-4.8-7.9-4.8-12.5c0-4.4,1.3-8.3,4-11.7c3.4-4.4,8-6.5,13.7-6.5c5.9,0,10.6,2.2,14.1,6.7
		c2.5,3.2,3.8,7.1,3.8,11.8h-31.1c0.1,4,1.4,7.3,3.8,9.9c2.5,2.6,5.5,3.8,9.2,3.8c1.8,0,3.5-0.3,5.1-0.9c1.7-0.6,3.1-1.4,4.2-2.4
		C572.8,41.2,574,39.5,575.4,37.3z M575.4,28c-0.6-2.4-1.5-4.3-2.6-5.7c-1.1-1.4-2.6-2.6-4.5-3.4c-1.9-0.9-3.8-1.3-5.9-1.3
		c-3.4,0-6.3,1.1-8.7,3.3c-1.8,1.6-3.1,4-4,7.1H575.4z"/>
	<path class="st0" d="M587.4,14.2h4.4v6.2c1.8-2.4,3.7-4.1,5.9-5.3c2.2-1.2,4.5-1.8,7-1.8c2.6,0,4.9,0.7,6.9,2
		c2,1.3,3.5,3.1,4.4,5.3s1.4,5.7,1.4,10.4v17.8h-4.4V32.3c0-4-0.2-6.6-0.5-8c-0.5-2.3-1.5-4-3-5.2s-3.4-1.7-5.7-1.7
		c-2.7,0-5.1,0.9-7.2,2.7c-2.1,1.8-3.5,4-4.2,6.6c-0.4,1.7-0.6,4.8-0.6,9.4v12.7h-4.4V14.2z"/>
	<path class="st0" d="M655.2,37.3l3.7,2c-1.2,2.4-2.6,4.4-4.3,5.8s-3.4,2.6-5.4,3.4c-2,0.8-4.3,1.2-6.8,1.2c-5.6,0-10-1.8-13.2-5.5
		c-3.2-3.7-4.8-7.9-4.8-12.5c0-4.4,1.3-8.3,4-11.7c3.4-4.4,8-6.5,13.7-6.5c5.9,0,10.6,2.2,14.1,6.7c2.5,3.2,3.8,7.1,3.8,11.8H629
		c0.1,4,1.4,7.3,3.8,9.9c2.5,2.6,5.5,3.8,9.2,3.8c1.8,0,3.5-0.3,5.1-0.9c1.7-0.6,3.1-1.4,4.2-2.4C652.5,41.2,653.8,39.5,655.2,37.3z
		 M655.2,28c-0.6-2.4-1.5-4.3-2.6-5.7c-1.1-1.4-2.6-2.6-4.5-3.4c-1.9-0.9-3.8-1.3-5.9-1.3c-3.4,0-6.3,1.1-8.7,3.3
		c-1.8,1.6-3.1,4-4,7.1H655.2z"/>
	<path class="st0" d="M666.4,14.2h4.5v5c1.4-2,2.8-3.5,4.3-4.5c1.5-1,3.1-1.5,4.7-1.5c1.2,0,2.5,0.4,3.9,1.2l-2.3,3.7
		c-0.9-0.4-1.7-0.6-2.3-0.6c-1.5,0-2.9,0.6-4.3,1.8c-1.4,1.2-2.4,3.1-3.1,5.7c-0.6,2-0.8,5.9-0.8,11.9v11.7h-4.5V14.2z"/>
	<path class="st0" d="M719.5,14.2v34.5h-4.4v-5.9c-1.9,2.3-4,4-6.3,5.1c-2.3,1.1-4.9,1.7-7.6,1.7c-4.9,0-9.1-1.8-12.5-5.3
		c-3.5-3.5-5.2-7.9-5.2-12.9c0-5,1.7-9.2,5.2-12.8c3.5-3.5,7.7-5.3,12.6-5.3c2.8,0,5.4,0.6,7.7,1.8c2.3,1.2,4.3,3,6,5.4v-6.3H719.5z
		 M701.8,17.6c-2.5,0-4.8,0.6-6.8,1.8c-2.1,1.2-3.8,2.9-5,5.1s-1.9,4.5-1.9,7c0,2.4,0.6,4.8,1.9,7c1.2,2.2,2.9,3.9,5,5.2
		c2.1,1.2,4.4,1.9,6.8,1.9c2.4,0,4.7-0.6,6.9-1.8c2.2-1.2,3.9-2.9,5-5c1.2-2.1,1.8-4.4,1.8-7.1c0-4-1.3-7.3-3.9-10
		C708.9,19,705.6,17.6,701.8,17.6z"/>
	<path class="st0" d="M731.6,1.4h4.4v12.8h7v3.8h-7v30.7h-4.4V18.1h-6.1v-3.8h6.1V1.4z"/>
	<path class="st0" d="M750.4,0c1,0,1.9,0.4,2.6,1.1c0.7,0.7,1.1,1.6,1.1,2.6c0,1-0.4,1.9-1.1,2.6c-0.7,0.7-1.6,1.1-2.6,1.1
		c-1,0-1.8-0.4-2.6-1.1c-0.7-0.7-1.1-1.6-1.1-2.6c0-1,0.4-1.9,1.1-2.6C748.6,0.4,749.4,0,750.4,0z M748.2,14.2h4.4v34.5h-4.4V14.2z"
		/>
	<path class="st0" d="M777.5,13.3c5.3,0,9.7,1.9,13.2,5.8c3.2,3.5,4.8,7.7,4.8,12.5c0,4.8-1.7,9-5,12.6c-3.4,3.6-7.7,5.4-13,5.4
		c-5.3,0-9.6-1.8-13-5.4c-3.4-3.6-5-7.8-5-12.6c0-4.8,1.6-8.9,4.8-12.4C767.7,15.3,772.1,13.3,777.5,13.3z M777.4,17.7
		c-3.7,0-6.9,1.4-9.5,4.1s-4,6-4,9.9c0,2.5,0.6,4.8,1.8,7c1.2,2.2,2.8,3.8,4.9,5s4.3,1.8,6.8,1.8s4.7-0.6,6.8-1.8s3.7-2.8,4.9-5
		c1.2-2.2,1.8-4.5,1.8-7c0-3.9-1.3-7.2-4-9.9S781.1,17.7,777.4,17.7z"/>
	<path class="st0" d="M802.8,14.2h4.4v6.2c1.8-2.4,3.7-4.1,5.9-5.3c2.2-1.2,4.5-1.8,7-1.8c2.6,0,4.9,0.7,6.9,2
		c2,1.3,3.5,3.1,4.4,5.3s1.4,5.7,1.4,10.4v17.8h-4.4V32.3c0-4-0.2-6.6-0.5-8c-0.5-2.3-1.5-4-3-5.2s-3.4-1.7-5.7-1.7
		c-2.7,0-5.1,0.9-7.2,2.7c-2.1,1.8-3.5,4-4.2,6.6c-0.4,1.7-0.6,4.8-0.6,9.4v12.7h-4.4V14.2z"/>
</g>
</svg>
