<svg xmlns="http://www.w3.org/2000/svg" width="148.629" height="28.095" viewBox="0 0 148.629 28.095">
  <g id="グループ_50" data-name="グループ 50" transform="translate(-825.578 -348.899)">
    <g id="グループ_65" data-name="グループ 65" transform="translate(825.578 348.899)">
      <g id="お客様の声" style="isolation: isolate">
        <g id="グループ_64" data-name="グループ 64" style="isolation: isolate">
          <path id="パス_150" data-name="パス 150" d="M832.532,371.7a39.509,39.509,0,0,0-4.615,3.461.976.976,0,0,1-.468.25c-.624,0-1.871-2.339-1.871-2.962,0-.343.343-.437.717-.655,1.746-1,3.4-2.12,5.114-3.18,1.185-.717,1.309-.748,1.309-1.715v-1.061c0-.468.031-.935.031-1.4v-.312a.68.68,0,0,0-.686-.717c-.062,0-.125.031-.187.031-.593.125-2.713.5-3.18.5-.405,0-.9-.031-.9-2.307,0-.842.062-.967.654-1,.967-.031,2.058-.093,3.025-.218a1.664,1.664,0,0,0,1.154-.374,1.263,1.263,0,0,0,.249-.935c.031-.873.063-1.746.063-2.619,0-.624-.063-1.341-.063-1.466,0-.25.094-.468.405-.468.468,0,2.557.436,3.18.561.187.031.624.125.624.405,0,.187-.187.374-.312.5-.467.374-.5.748-.592,1.715-.031.187-.063.436-.094.717,0,.125-.031.312-.031.437a.547.547,0,0,0,.531.53c.218,0,1.652-.436,1.964-.53a1.707,1.707,0,0,1,.53-.156c.717,0,.811,2.027.811,2.557,0,.81-.53.81-2.9,1.216-1.154.218-1.216.436-1.216,1.871v.436c0,.531.062,1.216.468,1.216a2.981,2.981,0,0,0,.78-.28,14.567,14.567,0,0,1,5.176-1.029c3.461,0,6.8,2.152,6.8,5.893a5.489,5.489,0,0,1-2.494,4.646c-1.59,1.091-4.4,1.4-6.268,1.4h-.374c-.5,0-1.154-.031-1.309-.343a6.043,6.043,0,0,1-.5-2.245c0-.405.094-.811.562-.811a24.638,24.638,0,0,0,2.557.28c1.808,0,4.459-.592,4.459-2.869,0-1.965-2-2.931-3.742-2.931a12.156,12.156,0,0,0-5.488,1.5,1.049,1.049,0,0,0-.5.967c0,.374.062,1.621.094,2.058.062.655.281,3.461.281,3.773,0,1.528-1.9,2.276-2.744,2.276-.686,0-.9-.654-1.154-1.185a6.306,6.306,0,0,0-1.9-2.432c-.156-.156-.374-.343-.374-.592a.7.7,0,0,1,.686-.624,7.48,7.48,0,0,1,1.59.967.616.616,0,0,0,.374.187c.187,0,.219-.125.219-.25,0-.031-.063-1.309-.063-1.372,0-.156-.031-.312-.031-.436C832.843,372.007,832.843,371.7,832.532,371.7Zm15.747-10.882c.842.655,2.4,1.964,2.4,2.308,0,.593-1.341,2.12-1.965,2.12a1.254,1.254,0,0,1-.686-.374,44.518,44.518,0,0,0-4.147-3.493c-.218-.156-.561-.405-.561-.748,0-.468,1.372-2.027,1.871-2.027a9.369,9.369,0,0,1,2.339,1.621C847.78,360.408,848.029,360.626,848.278,360.813Z" transform="translate(-825.578 -352.176)" fill="#1e313b"/>
          <path id="パス_151" data-name="パス 151" d="M903.967,355.073c0-.249-.218-.343-.436-.343h-4.459c-.624,0-.873.25-.873.842v.531c0,.4.062.966.062,1.278,0,.686-.624.624-1.621.624-1.092,0-1.621.031-1.621-.655,0-.312.062-.842.062-1.247v-1.5c0-.655-.062-1.216-.062-1.528,0-1.06.841-1.247,2.37-1.247.78,0,1.715.062,2.807.062h5.332c.593,0,.81-.249.842-.842a11.121,11.121,0,0,0-.094-1.434,1.067,1.067,0,0,1-.031-.312c0-.374.312-.405.592-.405.624,0,2,.125,2.65.187.25.031.873.031.873.405,0,.218-.187.28-.374.436-.374.281-.343.717-.374,1.154.031.593.312.81.873.81h5.363c1.091,0,2.214-.031,3.305-.031.81,0,1.871.094,1.871,1.185,0,.25-.031.936-.031,1.559v1.621c0,.25.031.624.031.873a1.406,1.406,0,0,1,.031.374c0,.717-.561.655-1.622.655-1,0-1.621.062-1.621-.624,0-.374.062-.873.062-1.278v-.655c0-.592-.25-.842-.873-.842h-9.666c-.125,0-.125.063-.125.094a.1.1,0,0,0,.094.093c.343.125.9.281.9.592,0,.219-.312.312-.5.343a.736.736,0,0,0-.655.343.336.336,0,0,0-.062.187c0,.156.156.218.281.218H910.3c.9,0,1.809-.031,2.713-.031,1.5,0,2.12,1.777,2.12,2,0,.779-3.337,3.71-4.054,4.334a.537.537,0,0,0-.249.436.511.511,0,0,0,.312.468,38.578,38.578,0,0,0,9.23,3.586c.562.125,1.279.25,1.279.779,0,.405-.717,2.12-1.5,2.12a27.638,27.638,0,0,1-3.929-1.185.747.747,0,0,0-.281-.062c-.374,0-.5.312-.53.624v4.9c0,.561.062,1.278.062,1.777,0,.624-.405.624-1.528.624-1.091,0-1.528.031-1.528-.592v-.157c0-.4-.187-.561-.561-.561h-7.8c-.405,0-.561.156-.593.561,0,.031.031.063.031.125,0,.624-.5.592-1.622.592s-1.559,0-1.559-.624c0-.342.062-1.216.062-1.777V369.7c-.031-.312-.187-.562-.53-.562a.857.857,0,0,0-.281.031,26.006,26.006,0,0,1-3.8,1.153c-.811,0-1.59-1.652-1.59-2.182,0-.5.654-.593,1.621-.842a39.67,39.67,0,0,0,9.136-3.554c.187-.125.343-.25.343-.5,0-.187-.125-.312-.25-.468a19.524,19.524,0,0,1-1.777-1.809.91.91,0,0,0-.655-.343,1.209,1.209,0,0,0-.53.187c-.748.561-4.178,2.931-4.9,2.931-.53,0-1.622-1.528-1.622-2,0-.343.468-.561.873-.78a23.837,23.837,0,0,0,7.453-5.613A.433.433,0,0,0,903.967,355.073ZM911.606,373a.892.892,0,0,0,.873-.873v-1.185a.892.892,0,0,0-.873-.873h-7.328a.826.826,0,0,0-.842.873v1.185a.826.826,0,0,0,.842.873Zm-3.555-7.733a1.175,1.175,0,0,0-.654.218,36.213,36.213,0,0,1-3.212,1.777.211.211,0,0,0-.125.187.206.206,0,0,0,.218.188h7.577c.093-.031.187-.094.187-.188a.21.21,0,0,0-.125-.187c-1.154-.562-2.089-1.091-3.18-1.746A1.412,1.412,0,0,0,908.051,365.269Zm-.062-3.742a.961.961,0,0,0,.624-.28c.343-.249,2.12-1.684,2.12-2,0-.187-.436-.218-.935-.218h-3.9c-.187.031-.4.094-.4.343a.4.4,0,0,0,.124.312,16.135,16.135,0,0,0,1.684,1.559A1.123,1.123,0,0,0,907.989,361.527Z" transform="translate(-865.386 -348.899)" fill="#1e313b"/>
          <path id="パス_152" data-name="パス 152" d="M979.592,362.775c.125.156.312.342.312.561,0,.436-.9,2.182-1.4,2.182-.436,0-1.06-1.216-1.31-1.652a.314.314,0,0,0-.218-.125c-.156,0-.187.125-.219.249v7.64c0,1.434.094,2.9.094,4.334,0,.9-.312.935-1.528.935-1.247,0-1.59,0-1.59-.935,0-1.435.094-2.9.094-4.334v-6.018c0-.156-.094-.156-.125-.156-.063,0-.094.031-.125.093a31.656,31.656,0,0,1-2.058,4.709c-.125.25-.312.624-.655.624-.593,0-1.84-1.4-1.84-2a2.382,2.382,0,0,1,.405-.967,40.185,40.185,0,0,0,3.836-9.354c0-.062.031-.125.031-.219,0-.437-.343-.592-.717-.592-.779-.031-1.621.094-2.12.094-.655,0-.624-.468-.624-1.5,0-1.091-.031-1.527.624-1.527.5,0,1.4.062,2.276.062h.219c.623,0,.873-.25.873-.873v-2.058a13.015,13.015,0,0,0-.125-2.276v-.312c0-.312.249-.374.53-.374.405,0,2.058.156,2.525.219.25.031.748.031.748.4,0,.218-.156.28-.405.468-.312.218-.343.779-.343,1.808v2.121c0,.592.219.811.842.873.219,0,1.466-.062,1.59-.062.686,0,.624.468.624,1.5s.062,1.528-.624,1.528c-.28,0-1.216-.063-1.652-.063q-.7,0-.748.748a.828.828,0,0,0,.094.374A18.736,18.736,0,0,0,979.592,362.775Zm6.081,8.637c-1.4,1-2.619,1.715-4.147,2.619-.53.312-.592.374-.623.811,0,.187-.187.436-.374.436-.468,0-1.715-2.557-1.715-2.838,0-.187.156-.281.312-.343a42,42,0,0,0,5.8-3.118c.125-.062.249-.187.374-.187.5,0,.9,1.247.9,1.808C986.2,371.038,985.984,371.194,985.672,371.412Zm6.081-4.022a.767.767,0,0,0,.53-.25,25.87,25.87,0,0,0,2.089-2.058c.094-.094.25-.28.406-.28s.374.218.717.592c.218.25.5.562.748.811.374.405.655.686.655.935a.312.312,0,0,1-.312.312c-.062,0-.156-.031-.187-.031a.781.781,0,0,0-.25-.031.675.675,0,0,0-.437.156,19.308,19.308,0,0,1-1.777,1.528.791.791,0,0,0-.312.562.848.848,0,0,0,.249.53,23.575,23.575,0,0,0,2.963,2.307c.28.187.811.468.811.842,0,.592-1.31,1.808-1.934,1.808a7.025,7.025,0,0,1-1.9-1.278,18.93,18.93,0,0,1-3.492-3.9.315.315,0,0,0-.218-.125c-.156,0-.218.156-.25.312V372c0,.53.063,1.06.063,1.59a3.034,3.034,0,0,1-.936,2.495,6.794,6.794,0,0,1-3.991.873c-.374,0-.967,0-1.185-.405a5.065,5.065,0,0,1-.374-1.808c0-.437.218-.717.655-.717a3.217,3.217,0,0,1,.53.031c.343.031.686.063.935.063,1.216,0,1.247-.343,1.247-1.9v-6.735c0-.624-.249-.873-.873-.873h-1.808c-1.091,0-2.214.062-3.306.062-.717,0-.685-.405-.685-1.278,0-.935,0-1.278.717-1.278,1.091,0,2.182.063,3.274.063h1.934c.53,0,.748-.218.748-.717v-.312c0-.53-.218-.748-.748-.748h-1.123c-1.029,0-2.058.063-3.087.063-.686,0-.655-.405-.655-1.216,0-.842-.031-1.185.686-1.185,1.029,0,2.027.031,3.056.031h1.123c.53,0,.748-.218.748-.717v-.249c0-.5-.218-.717-.748-.717h-1.5c-1.092,0-2.214.062-3.337.062-.717,0-.685-.343-.685-1.31,0-.935,0-1.247.685-1.247,1.123,0,2.245.063,3.337.063h3.929a1.194,1.194,0,0,0,1.247-.624,31.833,31.833,0,0,0,2.058-3.96c.093-.25.156-.5.436-.5.156,0,2,.873,2.307,1.029.437.187.717.312.717.561,0,.28-.25.312-.655.405a.633.633,0,0,0-.405.343c-.468.654-.842,1.372-1.247,2.058a.434.434,0,0,0-.094.28c0,.281.249.374.5.406.966,0,1.9-.063,2.869-.063.717,0,.686.374.686,1.279s.031,1.278-.686,1.278c-1.123,0-2.245-.062-3.368-.062H990.6c-.53,0-.749.218-.749.717v.249c0,.5.219.717.749.717h1.839c1,0,2.027-.031,3.024-.031.717,0,.686.343.686,1.185s.031,1.216-.655,1.216c-1.029,0-2.027-.063-3.056-.063H990.6c-.53,0-.749.249-.749.748v.312c0,.5.219.717.749.717h2.744c1.122,0,2.213-.062,3.305-.062.717,0,.686.405.686,1.278,0,.9.031,1.278-.686,1.278-1.092,0-2.214-.062-3.305-.062h-2.651c-.28.031-.592.125-.592.468a1.017,1.017,0,0,0,.125.436,12.065,12.065,0,0,0,.936,1.5A.769.769,0,0,0,991.753,367.39Zm-8.606,1.84c-.218,0-.405-.187-.78-.5a20.837,20.837,0,0,0-1.964-1.59c-.156-.093-.218-.156-.218-.342,0-.312.78-1.9,1.247-1.9a4.111,4.111,0,0,1,1.185.686c.125.063.219.156.281.187.374.312,1.653,1.278,1.653,1.652C984.55,367.826,983.645,369.23,983.146,369.23Zm1.341-15.5c-.312,0-.5-.312-.873-1.029-.249-.468-.623-1.123-1.153-1.965a1.572,1.572,0,0,1-.219-.468c0-.561,1.9-1.185,2.276-1.185.437,0,.9.842,1.4,1.683a7.786,7.786,0,0,1,.873,1.809C986.794,353.109,984.893,353.732,984.487,353.732Z" transform="translate(-908.818 -348.899)" fill="#1e313b"/>
          <path id="パス_153" data-name="パス 153" d="M1069.393,360.6a10.544,10.544,0,0,1,3.149,7.67,11.2,11.2,0,0,1-6.08,10.072,12.131,12.131,0,0,1-3.4,1.247c-.811,0-2.089-1.933-2.089-2.619,0-.312.468-.374.779-.437,4.084-.967,7.3-3.648,7.3-8.107a7.564,7.564,0,0,0-4.989-7.453,5.434,5.434,0,0,0-1.185-.28c-.717,0-.717.686-.748,1.216-.343,4.552-1.434,10.1-4.428,13.688a5.585,5.585,0,0,1-4.116,2.4,5.025,5.025,0,0,1-4.241-2.962,9.77,9.77,0,0,1-.967-4.427,12.846,12.846,0,0,1,12.94-13.1A11.088,11.088,0,0,1,1069.393,360.6Zm-12.129.9a9.648,9.648,0,0,0-5.613,8.98c0,1.154.406,4.053,2,4.053,1.559,0,3.305-3.554,4.178-6.735a31.7,31.7,0,0,0,1-6.081c0-.311-.156-.561-.5-.561A3.507,3.507,0,0,0,1057.264,361.509Z" transform="translate(-954.869 -353.901)" fill="#1e313b"/>
          <path id="パス_154" data-name="パス 154" d="M1134.005,368.942h-12.348a.88.88,0,0,0-1.029.811,11.785,11.785,0,0,1-2.962,5.519c-.405.405-1.777,1.808-2.339,1.808s-1.965-1.5-1.965-2.058c0-.25.374-.468.562-.624a10.052,10.052,0,0,0,3.9-8.356v-2c0-.779-.062-1.434-.062-2.089,0-1.123.779-1.247,1.684-1.247.873,0,1.777.062,2.681.062h11.07c.9,0,1.84-.062,2.744-.062s1.684.156,1.684,1.247c0,.655-.062,1.341-.062,2v2.681c0,.811.093,1.59.093,2.4,0,.686-.406.655-1.652.655-1.123,0-1.559.031-1.653-.436C1134.286,369.035,1134.224,368.942,1134.005,368.942Zm-8.2-13.564c0-.5-.218-.748-.748-.748h-7.016c-1.216,0-2.4.093-3.617.093-.78,0-.749-.312-.749-1.4,0-1.123,0-1.372.717-1.372,1.216,0,2.432.031,3.649.031h6.891c.562,0,.81-.187.842-.779,0-.436-.062-1.091-.094-1.5,0-.094-.031-.218-.031-.281,0-.343.312-.374.593-.374.374,0,2.432.187,2.9.218.249.032.779.063.779.437,0,.218-.218.312-.468.436-.406.249-.374.561-.406,1,.031.624.249.842.873.842h6.954c1.216,0,2.4-.031,3.617-.031.748,0,.717.281.717,1.341,0,1.091.062,1.434-.717,1.434-1.216,0-2.432-.093-3.617-.093H1129.8c-.53,0-.748.218-.748.748v.468c0,.5.218.717.748.717h4.927c1.154,0,2.276-.062,3.43-.062.686,0,.655.342.655,1.372,0,1.092.031,1.372-.655,1.372-1.154,0-2.276-.063-3.43-.063H1120.1c-1.123,0-2.276.063-3.4.063-.717,0-.686-.311-.686-1.341,0-1.06-.032-1.4.686-1.4,1.154,0,2.276.062,3.4.062h4.958c.53,0,.748-.218.748-.717Zm.156,8.98a.853.853,0,0,0-.873-.873h-3.212a.853.853,0,0,0-.873.873v1.092a.853.853,0,0,0,.873.873h3.212a.852.852,0,0,0,.873-.873Zm7.577,1.965a.872.872,0,0,0,.873-.873v-1.092a.872.872,0,0,0-.873-.873h-3.586a.871.871,0,0,0-.873.873v1.092a.871.871,0,0,0,.873.873Z" transform="translate(-992.58 -348.985)" fill="#1e313b"/>
        </g>
      </g>
    </g>
  </g>
</svg>
